<ttFont>
    <TTGlyph name="A" xMin="0" yMin="-108" xMax="2109" yMax="1245">
      <contour>
        <pt x="0" y="160" on="1"/>
        <pt x="216" y="160" on="1"/>
        <pt x="874" y="1245" on="1"/>
        <pt x="1090" y="1245" on="1"/>
        <pt x="1736" y="160" on="1"/>
        <pt x="1996" y="160" on="1"/>
        <pt x="1996" y="0" on="1"/>
        <pt x="1226" y="0" on="1"/>
        <pt x="1226" y="160" on="1"/>
        <pt x="1468" y="160" on="1"/>
        <pt x="1323" y="415" on="1"/>
        <pt x="622" y="415" on="1"/>
        <pt x="481" y="160" on="1"/>
        <pt x="712" y="160" on="1"/>
        <pt x="712" y="0" on="1"/>
        <pt x="0" y="0" on="1"/>
      </contour>
      <contour>
        <pt x="1249" y="1194" on="1"/>
        <pt x="1828" y="220" on="1"/>
        <pt x="1782" y="220" on="1"/>
        <pt x="1203" y="1194" on="1"/>
      </contour>
      <contour>
        <pt x="1251" y="540" on="1"/>
        <pt x="968" y="1037" on="1"/>
        <pt x="692" y="540" on="1"/>
      </contour>
      <contour>
        <pt x="986" y="923" on="1"/>
        <pt x="1010" y="879" on="1"/>
        <pt x="849" y="600" on="1"/>
        <pt x="800" y="600" on="1"/>
      </contour>
      <contour>
        <pt x="661" y="345" on="1"/>
        <pt x="1314" y="345" on="1"/>
        <pt x="1332" y="307" on="1"/>
        <pt x="691" y="307" on="1"/>
        <pt x="644" y="220" on="1"/>
        <pt x="593" y="220" on="1"/>
      </contour>
      <contour>
        <pt x="2067" y="-70" on="1"/>
        <pt x="2067" y="105" on="1"/>
        <pt x="2109" y="105" on="1"/>
        <pt x="2109" y="-108" on="1"/>
        <pt x="1269" y="-108" on="1"/>
        <pt x="1269" y="-70" on="1"/>
      </contour>
      <contour>
        <pt x="784" y="-70" on="1"/>
        <pt x="784" y="105" on="1"/>
        <pt x="824" y="105" on="1"/>
        <pt x="824" y="-108" on="1"/>
        <pt x="44" y="-108" on="1"/>
        <pt x="44" y="-70" on="1"/>
      </contour>
    </TTGlyph>
    <TTGlyph name="AE" xMin="0" yMin="-108" xMax="2848" yMax="1245">
      <contour>
        <pt x="0" y="160" on="1"/>
        <pt x="245" y="160" on="1"/>
        <pt x="1249" y="1245" on="1"/>
        <pt x="2736" y="1245" on="1"/>
        <pt x="2736" y="855" on="1"/>
        <pt x="2511" y="855" on="1"/>
        <pt x="2511" y="1085" on="1"/>
        <pt x="1744" y="1085" on="1"/>
        <pt x="1744" y="691" on="1"/>
        <pt x="2256" y="691" on="1"/>
        <pt x="2256" y="566" on="1"/>
        <pt x="1744" y="566" on="1"/>
        <pt x="1744" y="160" on="1"/>
        <pt x="2511" y="160" on="1"/>
        <pt x="2511" y="390" on="1"/>
        <pt x="2736" y="390" on="1"/>
        <pt x="2736" y="0" on="1"/>
        <pt x="1249" y="0" on="1"/>
        <pt x="1249" y="160" on="1"/>
        <pt x="1519" y="160" on="1"/>
        <pt x="1519" y="415" on="1"/>
        <pt x="772" y="415" on="1"/>
        <pt x="541" y="160" on="1"/>
        <pt x="742" y="160" on="1"/>
        <pt x="742" y="0" on="1"/>
        <pt x="0" y="0" on="1"/>
      </contour>
      <contour>
        <pt x="2571" y="785" on="1"/>
        <pt x="2808" y="785" on="1"/>
        <pt x="2808" y="1195" on="1"/>
        <pt x="2848" y="1195" on="1"/>
        <pt x="2848" y="747" on="1"/>
        <pt x="2571" y="747" on="1"/>
      </contour>
      <contour>
        <pt x="1519" y="540" on="1"/>
        <pt x="1519" y="1085" on="1"/>
        <pt x="1379" y="1085" on="1"/>
        <pt x="885" y="540" on="1"/>
      </contour>
      <contour>
        <pt x="1816" y="1015" on="1"/>
        <pt x="2469" y="1015" on="1"/>
        <pt x="2469" y="977" on="1"/>
        <pt x="1856" y="977" on="1"/>
        <pt x="1856" y="751" on="1"/>
        <pt x="1816" y="751" on="1"/>
      </contour>
      <contour>
        <pt x="1413" y="1015" on="1"/>
        <pt x="1477" y="1015" on="1"/>
        <pt x="1477" y="977" on="1"/>
        <pt x="1423" y="977" on="1"/>
        <pt x="1084" y="600" on="1"/>
        <pt x="1040" y="600" on="1"/>
      </contour>
      <contour>
        <pt x="1816" y="496" on="1"/>
        <pt x="2327" y="496" on="1"/>
        <pt x="2327" y="641" on="1"/>
        <pt x="2367" y="641" on="1"/>
        <pt x="2367" y="458" on="1"/>
        <pt x="1856" y="458" on="1"/>
        <pt x="1856" y="220" on="1"/>
        <pt x="1816" y="220" on="1"/>
      </contour>
      <contour>
        <pt x="811" y="345" on="1"/>
        <pt x="1477" y="345" on="1"/>
        <pt x="1477" y="307" on="1"/>
        <pt x="822" y="307" on="1"/>
        <pt x="737" y="220" on="1"/>
        <pt x="693" y="220" on="1"/>
      </contour>
      <contour>
        <pt x="2808" y="-70" on="1"/>
        <pt x="2808" y="334" on="1"/>
        <pt x="2848" y="334" on="1"/>
        <pt x="2848" y="-108" on="1"/>
        <pt x="1309" y="-108" on="1"/>
        <pt x="1309" y="-70" on="1"/>
      </contour>
      <contour>
        <pt x="814" y="-70" on="1"/>
        <pt x="814" y="105" on="1"/>
        <pt x="854" y="105" on="1"/>
        <pt x="854" y="-108" on="1"/>
        <pt x="44" y="-108" on="1"/>
        <pt x="44" y="-70" on="1"/>
      </contour>
    </TTGlyph>
    <TTGlyph name="Aacute" xMin="0" yMin="-108" xMax="2109" yMax="1800">
      <contour>
        <pt x="991" y="1800" on="1"/>
        <pt x="1246" y="1800" on="1"/>
        <pt x="936" y="1460" on="1"/>
        <pt x="741" y="1460" on="1"/>
      </contour>
      <contour>
        <pt x="801" y="1390" on="1"/>
        <pt x="968" y="1390" on="1"/>
        <pt x="1292" y="1744" on="1"/>
        <pt x="1345" y="1744" on="1"/>
        <pt x="987" y="1352" on="1"/>
        <pt x="773" y="1352" on="1"/>
      </contour>
      <contour>
        <pt x="0" y="160" on="1"/>
        <pt x="216" y="160" on="1"/>
        <pt x="874" y="1245" on="1"/>
        <pt x="1090" y="1245" on="1"/>
        <pt x="1736" y="160" on="1"/>
        <pt x="1996" y="160" on="1"/>
        <pt x="1996" y="0" on="1"/>
        <pt x="1226" y="0" on="1"/>
        <pt x="1226" y="160" on="1"/>
        <pt x="1468" y="160" on="1"/>
        <pt x="1323" y="415" on="1"/>
        <pt x="622" y="415" on="1"/>
        <pt x="481" y="160" on="1"/>
        <pt x="712" y="160" on="1"/>
        <pt x="712" y="0" on="1"/>
        <pt x="0" y="0" on="1"/>
      </contour>
      <contour>
        <pt x="1249" y="1194" on="1"/>
        <pt x="1828" y="220" on="1"/>
        <pt x="1782" y="220" on="1"/>
        <pt x="1203" y="1194" on="1"/>
      </contour>
      <contour>
        <pt x="1251" y="540" on="1"/>
        <pt x="968" y="1037" on="1"/>
        <pt x="692" y="540" on="1"/>
      </contour>
      <contour>
        <pt x="986" y="923" on="1"/>
        <pt x="1010" y="879" on="1"/>
        <pt x="849" y="600" on="1"/>
        <pt x="800" y="600" on="1"/>
      </contour>
      <contour>
        <pt x="661" y="345" on="1"/>
        <pt x="1314" y="345" on="1"/>
        <pt x="1332" y="307" on="1"/>
        <pt x="691" y="307" on="1"/>
        <pt x="644" y="220" on="1"/>
        <pt x="593" y="220" on="1"/>
      </contour>
      <contour>
        <pt x="2067" y="-70" on="1"/>
        <pt x="2067" y="105" on="1"/>
        <pt x="2109" y="105" on="1"/>
        <pt x="2109" y="-108" on="1"/>
        <pt x="1269" y="-108" on="1"/>
        <pt x="1269" y="-70" on="1"/>
      </contour>
      <contour>
        <pt x="784" y="-70" on="1"/>
        <pt x="784" y="105" on="1"/>
        <pt x="824" y="105" on="1"/>
        <pt x="824" y="-108" on="1"/>
        <pt x="44" y="-108" on="1"/>
        <pt x="44" y="-70" on="1"/>
      </contour>
    </TTGlyph>
    <TTGlyph name="Acircumflex" xMin="0" yMin="-108" xMax="2109" yMax="1800">
      <contour>
        <pt x="833" y="1800" on="1"/>
        <pt x="1087" y="1800" on="1"/>
        <pt x="1358" y="1460" on="1"/>
        <pt x="1163" y="1460" on="1"/>
        <pt x="952" y="1677" on="1"/>
        <pt x="748" y="1460" on="1"/>
        <pt x="553" y="1460" on="1"/>
      </contour>
      <contour>
        <pt x="1273" y="1390" on="1"/>
        <pt x="1505" y="1390" on="1"/>
        <pt x="1214" y="1754" on="1"/>
        <pt x="1264" y="1754" on="1"/>
        <pt x="1585" y="1352" on="1"/>
        <pt x="1303" y="1352" on="1"/>
      </contour>
      <contour>
        <pt x="613" y="1390" on="1"/>
        <pt x="776" y="1390" on="1"/>
        <pt x="972" y="1592" on="1"/>
        <pt x="999" y="1563" on="1"/>
        <pt x="796" y="1352" on="1"/>
        <pt x="585" y="1352" on="1"/>
      </contour>
      <contour>
        <pt x="0" y="160" on="1"/>
        <pt x="216" y="160" on="1"/>
        <pt x="874" y="1245" on="1"/>
        <pt x="1090" y="1245" on="1"/>
        <pt x="1736" y="160" on="1"/>
        <pt x="1996" y="160" on="1"/>
        <pt x="1996" y="0" on="1"/>
        <pt x="1226" y="0" on="1"/>
        <pt x="1226" y="160" on="1"/>
        <pt x="1468" y="160" on="1"/>
        <pt x="1323" y="415" on="1"/>
        <pt x="622" y="415" on="1"/>
        <pt x="481" y="160" on="1"/>
        <pt x="712" y="160" on="1"/>
        <pt x="712" y="0" on="1"/>
        <pt x="0" y="0" on="1"/>
      </contour>
      <contour>
        <pt x="1249" y="1194" on="1"/>
        <pt x="1828" y="220" on="1"/>
        <pt x="1782" y="220" on="1"/>
        <pt x="1203" y="1194" on="1"/>
      </contour>
      <contour>
        <pt x="1251" y="540" on="1"/>
        <pt x="968" y="1037" on="1"/>
        <pt x="692" y="540" on="1"/>
      </contour>
      <contour>
        <pt x="986" y="923" on="1"/>
        <pt x="1010" y="879" on="1"/>
        <pt x="849" y="600" on="1"/>
        <pt x="800" y="600" on="1"/>
      </contour>
      <contour>
        <pt x="661" y="345" on="1"/>
        <pt x="1314" y="345" on="1"/>
        <pt x="1332" y="307" on="1"/>
        <pt x="691" y="307" on="1"/>
        <pt x="644" y="220" on="1"/>
        <pt x="593" y="220" on="1"/>
      </contour>
      <contour>
        <pt x="2067" y="-70" on="1"/>
        <pt x="2067" y="105" on="1"/>
        <pt x="2109" y="105" on="1"/>
        <pt x="2109" y="-108" on="1"/>
        <pt x="1269" y="-108" on="1"/>
        <pt x="1269" y="-70" on="1"/>
      </contour>
      <contour>
        <pt x="784" y="-70" on="1"/>
        <pt x="784" y="105" on="1"/>
        <pt x="824" y="105" on="1"/>
        <pt x="824" y="-108" on="1"/>
        <pt x="44" y="-108" on="1"/>
        <pt x="44" y="-70" on="1"/>
      </contour>
    </TTGlyph>
    <TTGlyph name="Adieresis" xMin="0" yMin="-108" xMax="2109" yMax="1660">
      <contour>
        <pt x="1121" y="1660" on="1"/>
        <pt x="1366" y="1660" on="1"/>
        <pt x="1366" y="1460" on="1"/>
        <pt x="1121" y="1460" on="1"/>
      </contour>
      <contour>
        <pt x="511" y="1660" on="1"/>
        <pt x="756" y="1660" on="1"/>
        <pt x="756" y="1460" on="1"/>
        <pt x="511" y="1460" on="1"/>
      </contour>
      <contour>
        <pt x="1181" y="1390" on="1"/>
        <pt x="1438" y="1390" on="1"/>
        <pt x="1438" y="1604" on="1"/>
        <pt x="1478" y="1604" on="1"/>
        <pt x="1478" y="1352" on="1"/>
        <pt x="1181" y="1352" on="1"/>
      </contour>
      <contour>
        <pt x="571" y="1390" on="1"/>
        <pt x="828" y="1390" on="1"/>
        <pt x="828" y="1604" on="1"/>
        <pt x="868" y="1604" on="1"/>
        <pt x="868" y="1352" on="1"/>
        <pt x="571" y="1352" on="1"/>
      </contour>
      <contour>
        <pt x="0" y="160" on="1"/>
        <pt x="216" y="160" on="1"/>
        <pt x="874" y="1245" on="1"/>
        <pt x="1090" y="1245" on="1"/>
        <pt x="1736" y="160" on="1"/>
        <pt x="1996" y="160" on="1"/>
        <pt x="1996" y="0" on="1"/>
        <pt x="1226" y="0" on="1"/>
        <pt x="1226" y="160" on="1"/>
        <pt x="1468" y="160" on="1"/>
        <pt x="1323" y="415" on="1"/>
        <pt x="622" y="415" on="1"/>
        <pt x="481" y="160" on="1"/>
        <pt x="712" y="160" on="1"/>
        <pt x="712" y="0" on="1"/>
        <pt x="0" y="0" on="1"/>
      </contour>
      <contour>
        <pt x="1249" y="1194" on="1"/>
        <pt x="1828" y="220" on="1"/>
        <pt x="1782" y="220" on="1"/>
        <pt x="1203" y="1194" on="1"/>
      </contour>
      <contour>
        <pt x="1251" y="540" on="1"/>
        <pt x="968" y="1037" on="1"/>
        <pt x="692" y="540" on="1"/>
      </contour>
      <contour>
        <pt x="986" y="923" on="1"/>
        <pt x="1010" y="879" on="1"/>
        <pt x="849" y="600" on="1"/>
        <pt x="800" y="600" on="1"/>
      </contour>
      <contour>
        <pt x="661" y="345" on="1"/>
        <pt x="1314" y="345" on="1"/>
        <pt x="1332" y="307" on="1"/>
        <pt x="691" y="307" on="1"/>
        <pt x="644" y="220" on="1"/>
        <pt x="593" y="220" on="1"/>
      </contour>
      <contour>
        <pt x="2067" y="-70" on="1"/>
        <pt x="2067" y="105" on="1"/>
        <pt x="2109" y="105" on="1"/>
        <pt x="2109" y="-108" on="1"/>
        <pt x="1269" y="-108" on="1"/>
        <pt x="1269" y="-70" on="1"/>
      </contour>
      <contour>
        <pt x="784" y="-70" on="1"/>
        <pt x="784" y="105" on="1"/>
        <pt x="824" y="105" on="1"/>
        <pt x="824" y="-108" on="1"/>
        <pt x="44" y="-108" on="1"/>
        <pt x="44" y="-70" on="1"/>
      </contour>
    </TTGlyph>
    <TTGlyph name="Agrave" xMin="0" yMin="-108" xMax="2109" yMax="1800">
      <contour>
        <pt x="649" y="1800" on="1"/>
        <pt x="904" y="1800" on="1"/>
        <pt x="1144" y="1460" on="1"/>
        <pt x="949" y="1460" on="1"/>
      </contour>
      <contour>
        <pt x="1078" y="1390" on="1"/>
        <pt x="1280" y="1390" on="1"/>
        <pt x="1023" y="1754" on="1"/>
        <pt x="1072" y="1754" on="1"/>
        <pt x="1356" y="1352" on="1"/>
        <pt x="1108" y="1352" on="1"/>
      </contour>
      <contour>
        <pt x="0" y="160" on="1"/>
        <pt x="216" y="160" on="1"/>
        <pt x="874" y="1245" on="1"/>
        <pt x="1090" y="1245" on="1"/>
        <pt x="1736" y="160" on="1"/>
        <pt x="1996" y="160" on="1"/>
        <pt x="1996" y="0" on="1"/>
        <pt x="1226" y="0" on="1"/>
        <pt x="1226" y="160" on="1"/>
        <pt x="1468" y="160" on="1"/>
        <pt x="1323" y="415" on="1"/>
        <pt x="622" y="415" on="1"/>
        <pt x="481" y="160" on="1"/>
        <pt x="712" y="160" on="1"/>
        <pt x="712" y="0" on="1"/>
        <pt x="0" y="0" on="1"/>
      </contour>
      <contour>
        <pt x="1249" y="1194" on="1"/>
        <pt x="1828" y="220" on="1"/>
        <pt x="1782" y="220" on="1"/>
        <pt x="1203" y="1194" on="1"/>
      </contour>
      <contour>
        <pt x="1251" y="540" on="1"/>
        <pt x="968" y="1037" on="1"/>
        <pt x="692" y="540" on="1"/>
      </contour>
      <contour>
        <pt x="986" y="923" on="1"/>
        <pt x="1010" y="879" on="1"/>
        <pt x="849" y="600" on="1"/>
        <pt x="800" y="600" on="1"/>
      </contour>
      <contour>
        <pt x="661" y="345" on="1"/>
        <pt x="1314" y="345" on="1"/>
        <pt x="1332" y="307" on="1"/>
        <pt x="691" y="307" on="1"/>
        <pt x="644" y="220" on="1"/>
        <pt x="593" y="220" on="1"/>
      </contour>
      <contour>
        <pt x="2067" y="-70" on="1"/>
        <pt x="2067" y="105" on="1"/>
        <pt x="2109" y="105" on="1"/>
        <pt x="2109" y="-108" on="1"/>
        <pt x="1269" y="-108" on="1"/>
        <pt x="1269" y="-70" on="1"/>
      </contour>
      <contour>
        <pt x="784" y="-70" on="1"/>
        <pt x="784" y="105" on="1"/>
        <pt x="824" y="105" on="1"/>
        <pt x="824" y="-108" on="1"/>
        <pt x="44" y="-108" on="1"/>
        <pt x="44" y="-70" on="1"/>
      </contour>
    </TTGlyph>
    <TTGlyph name="Aring" xMin="0" yMin="-108" xMax="2109" yMax="1875">
      <contour>
        <pt x="958" y="1442" on="1"/>
        <pt x="887" y="1442" on="0"/>
        <pt x="775" y="1477" on="0"/>
        <pt x="698" y="1536" on="0"/>
        <pt x="657" y="1614" on="0"/>
        <pt x="657" y="1657" on="1"/>
        <pt x="657" y="1701" on="0"/>
        <pt x="703" y="1780" on="0"/>
        <pt x="786" y="1840" on="0"/>
        <pt x="899" y="1875" on="0"/>
        <pt x="965" y="1875" on="1"/>
        <pt x="1038" y="1875" on="0"/>
        <pt x="1152" y="1840" on="0"/>
        <pt x="1228" y="1780" on="0"/>
        <pt x="1268" y="1701" on="0"/>
        <pt x="1268" y="1657" on="1"/>
        <pt x="1268" y="1612" on="0"/>
        <pt x="1225" y="1534" on="0"/>
        <pt x="1145" y="1475" on="0"/>
        <pt x="1030" y="1442" on="0"/>
      </contour>
      <contour>
        <pt x="688" y="1464" on="1"/>
        <pt x="742" y="1421" on="0"/>
        <pt x="871" y="1372" on="0"/>
        <pt x="958" y="1372" on="1"/>
        <pt x="1042" y="1372" on="0"/>
        <pt x="1183" y="1415" on="0"/>
        <pt x="1284" y="1490" on="0"/>
        <pt x="1340" y="1594" on="0"/>
        <pt x="1340" y="1656" on="1"/>
        <pt x="1340" y="1686" on="0"/>
        <pt x="1326" y="1742" on="0"/>
        <pt x="1304" y="1788" on="0"/>
        <pt x="1275" y="1822" on="0"/>
        <pt x="1259" y="1832" on="1"/>
        <pt x="1316" y="1812" on="0"/>
        <pt x="1380" y="1719" on="0"/>
        <pt x="1380" y="1656" on="1"/>
        <pt x="1380" y="1581" on="0"/>
        <pt x="1314" y="1462" on="0"/>
        <pt x="1201" y="1379" on="0"/>
        <pt x="1048" y="1334" on="0"/>
        <pt x="961" y="1334" on="1"/>
        <pt x="918" y="1334" on="0"/>
        <pt x="834" y="1354" on="0"/>
        <pt x="761" y="1389" on="0"/>
        <pt x="704" y="1436" on="0"/>
      </contour>
      <contour>
        <pt x="959" y="1562" on="1"/>
        <pt x="1022" y="1562" on="0"/>
        <pt x="1090" y="1614" on="0"/>
        <pt x="1090" y="1656" on="1"/>
        <pt x="1090" y="1699" on="0"/>
        <pt x="1021" y="1755" on="0"/>
        <pt x="963" y="1755" on="1"/>
        <pt x="927" y="1755" on="0"/>
        <pt x="878" y="1736" on="0"/>
        <pt x="847" y="1707" on="0"/>
        <pt x="833" y="1672" on="0"/>
        <pt x="833" y="1656" on="1"/>
        <pt x="833" y="1642" on="0"/>
        <pt x="845" y="1609" on="0"/>
        <pt x="873" y="1581" on="0"/>
        <pt x="922" y="1562" on="0"/>
      </contour>
      <contour>
        <pt x="0" y="160" on="1"/>
        <pt x="216" y="160" on="1"/>
        <pt x="874" y="1245" on="1"/>
        <pt x="1090" y="1245" on="1"/>
        <pt x="1736" y="160" on="1"/>
        <pt x="1996" y="160" on="1"/>
        <pt x="1996" y="0" on="1"/>
        <pt x="1226" y="0" on="1"/>
        <pt x="1226" y="160" on="1"/>
        <pt x="1468" y="160" on="1"/>
        <pt x="1323" y="415" on="1"/>
        <pt x="622" y="415" on="1"/>
        <pt x="481" y="160" on="1"/>
        <pt x="712" y="160" on="1"/>
        <pt x="712" y="0" on="1"/>
        <pt x="0" y="0" on="1"/>
      </contour>
      <contour>
        <pt x="1249" y="1194" on="1"/>
        <pt x="1828" y="220" on="1"/>
        <pt x="1782" y="220" on="1"/>
        <pt x="1203" y="1194" on="1"/>
      </contour>
      <contour>
        <pt x="1251" y="540" on="1"/>
        <pt x="968" y="1037" on="1"/>
        <pt x="692" y="540" on="1"/>
      </contour>
      <contour>
        <pt x="986" y="923" on="1"/>
        <pt x="1010" y="879" on="1"/>
        <pt x="849" y="600" on="1"/>
        <pt x="800" y="600" on="1"/>
      </contour>
      <contour>
        <pt x="661" y="345" on="1"/>
        <pt x="1314" y="345" on="1"/>
        <pt x="1332" y="307" on="1"/>
        <pt x="691" y="307" on="1"/>
        <pt x="644" y="220" on="1"/>
        <pt x="593" y="220" on="1"/>
      </contour>
      <contour>
        <pt x="2067" y="-70" on="1"/>
        <pt x="2067" y="105" on="1"/>
        <pt x="2109" y="105" on="1"/>
        <pt x="2109" y="-108" on="1"/>
        <pt x="1269" y="-108" on="1"/>
        <pt x="1269" y="-70" on="1"/>
      </contour>
      <contour>
        <pt x="784" y="-70" on="1"/>
        <pt x="784" y="105" on="1"/>
        <pt x="824" y="105" on="1"/>
        <pt x="824" y="-108" on="1"/>
        <pt x="44" y="-108" on="1"/>
        <pt x="44" y="-70" on="1"/>
      </contour>
    </TTGlyph>
    <TTGlyph name="Atilde" xMin="0" yMin="-108" xMax="2109" yMax="1730">
      <contour>
        <pt x="506" y="1460" on="1"/>
        <pt x="522" y="1528" on="0"/>
        <pt x="591" y="1630" on="0"/>
        <pt x="682" y="1697" on="0"/>
        <pt x="787" y="1730" on="0"/>
        <pt x="840" y="1730" on="1"/>
        <pt x="861" y="1730" on="0"/>
        <pt x="902" y="1724" on="0"/>
        <pt x="948" y="1709" on="0"/>
        <pt x="1005" y="1682" on="0"/>
        <pt x="1042" y="1661" on="1"/>
        <pt x="1078" y="1637" on="0"/>
        <pt x="1127" y="1613" on="0"/>
        <pt x="1158" y="1613" on="1"/>
        <pt x="1192" y="1613" on="0"/>
        <pt x="1250" y="1669" on="0"/>
        <pt x="1264" y="1723" on="1"/>
        <pt x="1436" y="1723" on="1"/>
        <pt x="1421" y="1655" on="0"/>
        <pt x="1360" y="1553" on="0"/>
        <pt x="1282" y="1486" on="0"/>
        <pt x="1191" y="1453" on="0"/>
        <pt x="1146" y="1453" on="1"/>
        <pt x="1129" y="1453" on="0"/>
        <pt x="1096" y="1458" on="0"/>
        <pt x="1059" y="1471" on="0"/>
        <pt x="1012" y="1495" on="0"/>
        <pt x="982" y="1514" on="1"/>
        <pt x="951" y="1531" on="0"/>
        <pt x="908" y="1553" on="0"/>
        <pt x="874" y="1565" on="0"/>
        <pt x="845" y="1570" on="0"/>
        <pt x="827" y="1570" on="1"/>
        <pt x="778" y="1570" on="0"/>
        <pt x="697" y="1511" on="0"/>
        <pt x="678" y="1460" on="1"/>
      </contour>
      <contour>
        <pt x="549" y="1390" on="1"/>
        <pt x="724" y="1390" on="1"/>
        <pt x="731" y="1452" on="0"/>
        <pt x="792" y="1500" on="0"/>
        <pt x="834" y="1500" on="1"/>
        <pt x="857" y="1500" on="0"/>
        <pt x="918" y="1471" on="0"/>
        <pt x="945" y="1456" on="1"/>
        <pt x="988" y="1432" on="0"/>
        <pt x="1049" y="1404" on="0"/>
        <pt x="1095" y="1388" on="0"/>
        <pt x="1132" y="1383" on="0"/>
        <pt x="1152" y="1383" on="1"/>
        <pt x="1212" y="1383" on="0"/>
        <pt x="1321" y="1423" on="0"/>
        <pt x="1411" y="1498" on="0"/>
        <pt x="1479" y="1607" on="0"/>
        <pt x="1497" y="1675" on="1"/>
        <pt x="1539" y="1675" on="1"/>
        <pt x="1517" y="1595" on="0"/>
        <pt x="1440" y="1472" on="0"/>
        <pt x="1339" y="1388" on="0"/>
        <pt x="1218" y="1345" on="0"/>
        <pt x="1152" y="1345" on="1"/>
        <pt x="1130" y="1345" on="0"/>
        <pt x="1084" y="1352" on="0"/>
        <pt x="1030" y="1369" on="0"/>
        <pt x="965" y="1400" on="0"/>
        <pt x="923" y="1424" on="1"/>
        <pt x="887" y="1444" on="0"/>
        <pt x="846" y="1462" on="0"/>
        <pt x="832" y="1462" on="1"/>
        <pt x="816" y="1462" on="0"/>
        <pt x="791" y="1454" on="0"/>
        <pt x="773" y="1430" on="0"/>
        <pt x="763" y="1387" on="0"/>
        <pt x="761" y="1352" on="1"/>
        <pt x="543" y="1352" on="1"/>
      </contour>
      <contour>
        <pt x="0" y="160" on="1"/>
        <pt x="216" y="160" on="1"/>
        <pt x="874" y="1245" on="1"/>
        <pt x="1090" y="1245" on="1"/>
        <pt x="1736" y="160" on="1"/>
        <pt x="1996" y="160" on="1"/>
        <pt x="1996" y="0" on="1"/>
        <pt x="1226" y="0" on="1"/>
        <pt x="1226" y="160" on="1"/>
        <pt x="1468" y="160" on="1"/>
        <pt x="1323" y="415" on="1"/>
        <pt x="622" y="415" on="1"/>
        <pt x="481" y="160" on="1"/>
        <pt x="712" y="160" on="1"/>
        <pt x="712" y="0" on="1"/>
        <pt x="0" y="0" on="1"/>
      </contour>
      <contour>
        <pt x="1249" y="1194" on="1"/>
        <pt x="1828" y="220" on="1"/>
        <pt x="1782" y="220" on="1"/>
        <pt x="1203" y="1194" on="1"/>
      </contour>
      <contour>
        <pt x="1251" y="540" on="1"/>
        <pt x="968" y="1037" on="1"/>
        <pt x="692" y="540" on="1"/>
      </contour>
      <contour>
        <pt x="986" y="923" on="1"/>
        <pt x="1010" y="879" on="1"/>
        <pt x="849" y="600" on="1"/>
        <pt x="800" y="600" on="1"/>
      </contour>
      <contour>
        <pt x="661" y="345" on="1"/>
        <pt x="1314" y="345" on="1"/>
        <pt x="1332" y="307" on="1"/>
        <pt x="691" y="307" on="1"/>
        <pt x="644" y="220" on="1"/>
        <pt x="593" y="220" on="1"/>
      </contour>
      <contour>
        <pt x="2067" y="-70" on="1"/>
        <pt x="2067" y="105" on="1"/>
        <pt x="2109" y="105" on="1"/>
        <pt x="2109" y="-108" on="1"/>
        <pt x="1269" y="-108" on="1"/>
        <pt x="1269" y="-70" on="1"/>
      </contour>
      <contour>
        <pt x="784" y="-70" on="1"/>
        <pt x="784" y="105" on="1"/>
        <pt x="824" y="105" on="1"/>
        <pt x="824" y="-108" on="1"/>
        <pt x="44" y="-108" on="1"/>
        <pt x="44" y="-70" on="1"/>
      </contour>
    </TTGlyph>
    <TTGlyph name="B" xMin="144" yMin="-108" xMax="1827" yMax="1245">
      <contour>
        <pt x="159" y="160" on="1"/>
        <pt x="420" y="160" on="1"/>
        <pt x="420" y="1085" on="1"/>
        <pt x="144" y="1085" on="1"/>
        <pt x="144" y="1245" on="1"/>
        <pt x="862" y="1245" on="1"/>
        <pt x="968" y="1245" on="0"/>
        <pt x="1135" y="1241" on="0"/>
        <pt x="1262" y="1235" on="0"/>
        <pt x="1356" y="1225" on="0"/>
        <pt x="1390" y="1219" on="1"/>
        <pt x="1472" y="1204" on="0"/>
        <pt x="1587" y="1148" on="0"/>
        <pt x="1659" y="1070" on="0"/>
        <pt x="1692" y="973" on="0"/>
        <pt x="1692" y="917" on="1"/>
        <pt x="1692" y="877" on="0"/>
        <pt x="1658" y="794" on="0"/>
        <pt x="1587" y="719" on="0"/>
        <pt x="1480" y="657" on="0"/>
        <pt x="1408" y="638" on="1"/>
        <pt x="1481" y="629" on="0"/>
        <pt x="1596" y="576" on="0"/>
        <pt x="1675" y="499" on="0"/>
        <pt x="1716" y="403" on="0"/>
        <pt x="1716" y="351" on="1"/>
        <pt x="1716" y="290" on="0"/>
        <pt x="1682" y="187" on="0"/>
        <pt x="1605" y="105" on="0"/>
        <pt x="1481" y="46" on="0"/>
        <pt x="1391" y="29" on="1"/>
        <pt x="1294" y="11" on="0"/>
        <pt x="1043" y="0" on="0"/>
        <pt x="879" y="0" on="1"/>
        <pt x="159" y="0" on="1"/>
      </contour>
      <contour>
        <pt x="879" y="-70" on="1"/>
        <pt x="1038" y="-70" on="0"/>
        <pt x="1305" y="-63" on="0"/>
        <pt x="1405" y="-43" on="1"/>
        <pt x="1517" y="-21" on="0"/>
        <pt x="1665" y="62" on="0"/>
        <pt x="1752" y="168" on="0"/>
        <pt x="1787" y="292" on="0"/>
        <pt x="1787" y="355" on="1"/>
        <pt x="1787" y="399" on="0"/>
        <pt x="1761" y="484" on="0"/>
        <pt x="1707" y="558" on="0"/>
        <pt x="1623" y="619" on="0"/>
        <pt x="1565" y="639" on="1"/>
        <pt x="1668" y="690" on="0"/>
        <pt x="1764" y="829" on="0"/>
        <pt x="1764" y="917" on="1"/>
        <pt x="1764" y="1004" on="0"/>
        <pt x="1670" y="1161" on="0"/>
        <pt x="1563" y="1215" on="1"/>
        <pt x="1623" y="1200" on="0"/>
        <pt x="1713" y="1143" on="0"/>
        <pt x="1774" y="1067" on="0"/>
        <pt x="1804" y="975" on="0"/>
        <pt x="1804" y="925" on="1"/>
        <pt x="1804" y="834" on="0"/>
        <pt x="1730" y="699" on="0"/>
        <pt x="1648" y="641" on="1"/>
        <pt x="1744" y="590" on="0"/>
        <pt x="1827" y="443" on="0"/>
        <pt x="1827" y="355" on="1"/>
        <pt x="1827" y="277" on="0"/>
        <pt x="1783" y="138" on="0"/>
        <pt x="1684" y="25" on="0"/>
        <pt x="1527" y="-58" on="0"/>
        <pt x="1413" y="-80" on="1"/>
        <pt x="1312" y="-100" on="0"/>
        <pt x="1051" y="-108" on="0"/>
        <pt x="879" y="-108" on="1"/>
        <pt x="223" y="-108" on="1"/>
        <pt x="223" y="-70" on="1"/>
      </contour>
      <contour>
        <pt x="1019" y="695" on="1"/>
        <pt x="1142" y="695" on="0"/>
        <pt x="1303" y="719" on="0"/>
        <pt x="1399" y="770" on="0"/>
        <pt x="1438" y="847" on="0"/>
        <pt x="1438" y="901" on="1"/>
        <pt x="1438" y="955" on="0"/>
        <pt x="1370" y="1041" on="0"/>
        <pt x="1295" y="1064" on="1"/>
        <pt x="1244" y="1079" on="0"/>
        <pt x="1110" y="1085" on="0"/>
        <pt x="1019" y="1085" on="1"/>
        <pt x="648" y="1085" on="1"/>
        <pt x="648" y="695" on="1"/>
      </contour>
      <contour>
        <pt x="720" y="1015" on="1"/>
        <pt x="1019" y="1015" on="1"/>
        <pt x="1095" y="1015" on="0"/>
        <pt x="1205" y="1008" on="0"/>
        <pt x="1283" y="990" on="0"/>
        <pt x="1337" y="961" on="0"/>
        <pt x="1358" y="939" on="1"/>
        <pt x="1338" y="948" on="0"/>
        <pt x="1283" y="962" on="0"/>
        <pt x="1203" y="972" on="0"/>
        <pt x="1094" y="977" on="0"/>
        <pt x="1019" y="977" on="1"/>
        <pt x="760" y="977" on="1"/>
        <pt x="760" y="755" on="1"/>
        <pt x="720" y="755" on="1"/>
      </contour>
      <contour>
        <pt x="204" y="1015" on="1"/>
        <pt x="378" y="1015" on="1"/>
        <pt x="378" y="975" on="1"/>
        <pt x="204" y="975" on="1"/>
      </contour>
      <contour>
        <pt x="1038" y="160" on="1"/>
        <pt x="1141" y="160" on="0"/>
        <pt x="1289" y="171" on="0"/>
        <pt x="1343" y="191" on="1"/>
        <pt x="1377" y="204" on="0"/>
        <pt x="1422" y="240" on="0"/>
        <pt x="1448" y="283" on="0"/>
        <pt x="1458" y="333" on="0"/>
        <pt x="1458" y="360" on="1"/>
        <pt x="1458" y="426" on="0"/>
        <pt x="1377" y="523" on="0"/>
        <pt x="1292" y="548" on="1"/>
        <pt x="1240" y="563" on="0"/>
        <pt x="1106" y="570" on="0"/>
        <pt x="1021" y="570" on="1"/>
        <pt x="648" y="570" on="1"/>
        <pt x="648" y="160" on="1"/>
      </contour>
      <contour>
        <pt x="720" y="500" on="1"/>
        <pt x="1019" y="500" on="1"/>
        <pt x="1095" y="500" on="0"/>
        <pt x="1211" y="490" on="0"/>
        <pt x="1296" y="469" on="0"/>
        <pt x="1356" y="438" on="0"/>
        <pt x="1377" y="416" on="1"/>
        <pt x="1351" y="428" on="0"/>
        <pt x="1292" y="445" on="0"/>
        <pt x="1210" y="457" on="0"/>
        <pt x="1098" y="462" on="0"/>
        <pt x="1019" y="462" on="1"/>
        <pt x="760" y="462" on="1"/>
        <pt x="760" y="220" on="1"/>
        <pt x="720" y="220" on="1"/>
      </contour>
    </TTGlyph>
    <TTGlyph name="C" xMin="100" yMin="-138" xMax="1715" yMax="1280">
      <contour>
        <pt x="100" y="622" on="1"/>
        <pt x="100" y="705" on="0"/>
        <pt x="143" y="867" on="0"/>
        <pt x="230" y="1013" on="0"/>
        <pt x="360" y="1138" on="0"/>
        <pt x="534" y="1229" on="0"/>
        <pt x="753" y="1280" on="0"/>
        <pt x="884" y="1280" on="1"/>
        <pt x="954" y="1280" on="0"/>
        <pt x="1092" y="1258" on="0"/>
        <pt x="1219" y="1219" on="0"/>
        <pt x="1332" y="1163" on="0"/>
        <pt x="1376" y="1129" on="1"/>
        <pt x="1376" y="1245" on="1"/>
        <pt x="1603" y="1245" on="1"/>
        <pt x="1603" y="885" on="1"/>
        <pt x="1376" y="885" on="1"/>
        <pt x="1344" y="936" on="0"/>
        <pt x="1240" y="1023" on="0"/>
        <pt x="1108" y="1085" on="0"/>
        <pt x="952" y="1120" on="0"/>
        <pt x="868" y="1120" on="1"/>
        <pt x="736" y="1120" on="0"/>
        <pt x="541" y="1036" on="0"/>
        <pt x="413" y="897" on="0"/>
        <pt x="350" y="718" on="0"/>
        <pt x="350" y="622" on="1"/>
        <pt x="350" y="514" on="0"/>
        <pt x="430" y="333" on="0"/>
        <pt x="573" y="203" on="0"/>
        <pt x="771" y="130" on="0"/>
        <pt x="890" y="130" on="1"/>
        <pt x="998" y="130" on="0"/>
        <pt x="1174" y="172" on="0"/>
        <pt x="1312" y="251" on="0"/>
        <pt x="1413" y="365" on="0"/>
        <pt x="1447" y="436" on="1"/>
        <pt x="1601" y="332" on="1"/>
        <pt x="1508" y="154" on="0"/>
        <pt x="1151" y="-30" on="0"/>
        <pt x="881" y="-30" on="1"/>
        <pt x="711" y="-30" on="0"/>
        <pt x="425" y="70" on="0"/>
        <pt x="217" y="246" on="0"/>
        <pt x="100" y="484" on="0"/>
      </contour>
      <contour>
        <pt x="1436" y="815" on="1"/>
        <pt x="1675" y="815" on="1"/>
        <pt x="1675" y="1194" on="1"/>
        <pt x="1715" y="1194" on="1"/>
        <pt x="1715" y="777" on="1"/>
        <pt x="1436" y="777" on="1"/>
      </contour>
      <contour>
        <pt x="422" y="623" on="1"/>
        <pt x="422" y="716" on="0"/>
        <pt x="488" y="872" on="0"/>
        <pt x="607" y="986" on="0"/>
        <pt x="772" y="1050" on="0"/>
        <pt x="872" y="1050" on="1"/>
        <pt x="1003" y="1050" on="0"/>
        <pt x="1202" y="969" on="0"/>
        <pt x="1262" y="894" on="1"/>
        <pt x="1175" y="955" on="0"/>
        <pt x="980" y="1012" on="0"/>
        <pt x="868" y="1012" on="1"/>
        <pt x="773" y="1012" on="0"/>
        <pt x="622" y="950" on="0"/>
        <pt x="517" y="845" on="0"/>
        <pt x="462" y="706" on="0"/>
        <pt x="462" y="629" on="1"/>
        <pt x="462" y="554" on="0"/>
        <pt x="503" y="425" on="0"/>
        <pt x="592" y="317" on="0"/>
        <pt x="734" y="229" on="0"/>
        <pt x="836" y="196" on="1"/>
        <pt x="742" y="209" on="0"/>
        <pt x="589" y="281" on="0"/>
        <pt x="481" y="391" on="0"/>
        <pt x="422" y="536" on="0"/>
      </contour>
      <contour>
        <pt x="344" y="48" on="1"/>
        <pt x="392" y="15" on="0"/>
        <pt x="519" y="-40" on="0"/>
        <pt x="660" y="-79" on="0"/>
        <pt x="811" y="-100" on="0"/>
        <pt x="883" y="-100" on="1"/>
        <pt x="1011" y="-100" on="0"/>
        <pt x="1242" y="-56" on="0"/>
        <pt x="1435" y="29" on="0"/>
        <pt x="1583" y="154" on="0"/>
        <pt x="1628" y="234" on="1"/>
        <pt x="1663" y="213" on="1"/>
        <pt x="1617" y="130" on="0"/>
        <pt x="1465" y="-1" on="0"/>
        <pt x="1264" y="-91" on="0"/>
        <pt x="1019" y="-138" on="0"/>
        <pt x="881" y="-138" on="1"/>
        <pt x="802" y="-138" on="0"/>
        <pt x="646" y="-115" on="0"/>
        <pt x="505" y="-68" on="0"/>
        <pt x="386" y="1" on="0"/>
      </contour>
    </TTGlyph>
    <TTGlyph name="Ccedilla" xMin="110" yMin="-607" xMax="1703" yMax="1280">
      <contour>
        <pt x="110" y="622" on="1"/>
        <pt x="110" y="705" on="0"/>
        <pt x="152" y="867" on="0"/>
        <pt x="236" y="1013" on="0"/>
        <pt x="364" y="1138" on="0"/>
        <pt x="536" y="1229" on="0"/>
        <pt x="753" y="1280" on="0"/>
        <pt x="884" y="1280" on="1"/>
        <pt x="954" y="1280" on="0"/>
        <pt x="1089" y="1258" on="0"/>
        <pt x="1213" y="1219" on="0"/>
        <pt x="1322" y="1164" on="0"/>
        <pt x="1366" y="1131" on="1"/>
        <pt x="1366" y="1245" on="1"/>
        <pt x="1593" y="1245" on="1"/>
        <pt x="1593" y="885" on="1"/>
        <pt x="1366" y="885" on="1"/>
        <pt x="1334" y="936" on="0"/>
        <pt x="1233" y="1023" on="0"/>
        <pt x="1105" y="1085" on="0"/>
        <pt x="952" y="1120" on="0"/>
        <pt x="868" y="1120" on="1"/>
        <pt x="736" y="1120" on="0"/>
        <pt x="544" y="1036" on="0"/>
        <pt x="419" y="897" on="0"/>
        <pt x="360" y="718" on="0"/>
        <pt x="360" y="622" on="1"/>
        <pt x="360" y="514" on="0"/>
        <pt x="437" y="333" on="0"/>
        <pt x="576" y="203" on="0"/>
        <pt x="771" y="130" on="0"/>
        <pt x="890" y="130" on="1"/>
        <pt x="998" y="130" on="0"/>
        <pt x="1171" y="172" on="0"/>
        <pt x="1305" y="251" on="0"/>
        <pt x="1403" y="365" on="0"/>
        <pt x="1437" y="436" on="1"/>
        <pt x="1591" y="332" on="1"/>
        <pt x="1501" y="159" on="0"/>
        <pt x="1164" y="-26" on="0"/>
        <pt x="906" y="-30" on="1"/>
        <pt x="878" y="-135" on="1"/>
        <pt x="954" y="-140" on="0"/>
        <pt x="1056" y="-172" on="0"/>
        <pt x="1117" y="-219" on="0"/>
        <pt x="1142" y="-275" on="0"/>
        <pt x="1142" y="-304" on="1"/>
        <pt x="1142" y="-395" on="0"/>
        <pt x="965" y="-499" on="0"/>
        <pt x="786" y="-499" on="1"/>
        <pt x="757" y="-499" on="0"/>
        <pt x="697" y="-494" on="0"/>
        <pt x="643" y="-487" on="0"/>
        <pt x="600" y="-478" on="0"/>
        <pt x="589" y="-474" on="1"/>
        <pt x="589" y="-347" on="1"/>
        <pt x="628" y="-359" on="0"/>
        <pt x="716" y="-375" on="0"/>
        <pt x="764" y="-375" on="1"/>
        <pt x="809" y="-375" on="0"/>
        <pt x="868" y="-364" on="0"/>
        <pt x="903" y="-345" on="0"/>
        <pt x="917" y="-319" on="0"/>
        <pt x="917" y="-305" on="1"/>
        <pt x="917" y="-289" on="0"/>
        <pt x="896" y="-260" on="0"/>
        <pt x="846" y="-239" on="0"/>
        <pt x="763" y="-227" on="0"/>
        <pt x="701" y="-227" on="1"/>
        <pt x="756" y="-22" on="1"/>
        <pt x="612" y="-4" on="0"/>
        <pt x="374" y="108" on="0"/>
        <pt x="204" y="278" on="0"/>
        <pt x="110" y="497" on="0"/>
      </contour>
      <contour>
        <pt x="1426" y="815" on="1"/>
        <pt x="1663" y="815" on="1"/>
        <pt x="1663" y="1194" on="1"/>
        <pt x="1703" y="1194" on="1"/>
        <pt x="1703" y="777" on="1"/>
        <pt x="1426" y="777" on="1"/>
      </contour>
      <contour>
        <pt x="432" y="623" on="1"/>
        <pt x="432" y="716" on="0"/>
        <pt x="495" y="872" on="0"/>
        <pt x="610" y="986" on="0"/>
        <pt x="772" y="1050" on="0"/>
        <pt x="872" y="1050" on="1"/>
        <pt x="1003" y="1050" on="0"/>
        <pt x="1192" y="969" on="0"/>
        <pt x="1252" y="894" on="1"/>
        <pt x="1165" y="955" on="0"/>
        <pt x="980" y="1012" on="0"/>
        <pt x="868" y="1012" on="1"/>
        <pt x="773" y="1012" on="0"/>
        <pt x="625" y="950" on="0"/>
        <pt x="524" y="845" on="0"/>
        <pt x="472" y="706" on="0"/>
        <pt x="472" y="629" on="1"/>
        <pt x="472" y="554" on="0"/>
        <pt x="510" y="425" on="0"/>
        <pt x="595" y="317" on="0"/>
        <pt x="734" y="229" on="0"/>
        <pt x="836" y="196" on="1"/>
        <pt x="742" y="209" on="0"/>
        <pt x="592" y="281" on="0"/>
        <pt x="488" y="391" on="0"/>
        <pt x="432" y="536" on="0"/>
      </contour>
      <contour>
        <pt x="648" y="-560" on="1"/>
        <pt x="676" y="-565" on="0"/>
        <pt x="744" y="-569" on="0"/>
        <pt x="774" y="-569" on="1"/>
        <pt x="878" y="-569" on="0"/>
        <pt x="1039" y="-532" on="0"/>
        <pt x="1148" y="-463" on="0"/>
        <pt x="1204" y="-365" on="0"/>
        <pt x="1204" y="-305" on="1"/>
        <pt x="1204" y="-219" on="0"/>
        <pt x="1110" y="-116" on="0"/>
        <pt x="1032" y="-92" on="1"/>
        <pt x="1131" y="-81" on="0"/>
        <pt x="1310" y="-29" on="0"/>
        <pt x="1460" y="53" on="0"/>
        <pt x="1579" y="164" on="0"/>
        <pt x="1618" y="234" on="1"/>
        <pt x="1653" y="213" on="1"/>
        <pt x="1584" y="87" on="0"/>
        <pt x="1325" y="-76" on="0"/>
        <pt x="1145" y="-111" on="1"/>
        <pt x="1196" y="-143" on="0"/>
        <pt x="1244" y="-245" on="0"/>
        <pt x="1244" y="-305" on="1"/>
        <pt x="1244" y="-382" on="0"/>
        <pt x="1175" y="-495" on="0"/>
        <pt x="1050" y="-570" on="0"/>
        <pt x="875" y="-607" on="0"/>
        <pt x="770" y="-607" on="1"/>
        <pt x="759" y="-607" on="0"/>
        <pt x="727" y="-606" on="0"/>
        <pt x="692" y="-603" on="0"/>
        <pt x="659" y="-600" on="0"/>
        <pt x="648" y="-598" on="1"/>
      </contour>
      <contour>
        <pt x="354" y="48" on="1"/>
        <pt x="418" y="3" on="0"/>
        <pt x="586" y="-63" on="0"/>
        <pt x="683" y="-81" on="1"/>
        <pt x="664" y="-116" on="1"/>
        <pt x="570" y="-96" on="0"/>
        <pt x="411" y="-16" on="0"/>
      </contour>
    </TTGlyph>
    <TTGlyph name="D" xMin="150" yMin="-108" xMax="1857" yMax="1245">
      <contour>
        <pt x="150" y="160" on="1"/>
        <pt x="421" y="160" on="1"/>
        <pt x="421" y="1085" on="1"/>
        <pt x="150" y="1085" on="1"/>
        <pt x="150" y="1245" on="1"/>
        <pt x="898" y="1245" on="1"/>
        <pt x="1031" y="1245" on="0"/>
        <pt x="1233" y="1232" on="0"/>
        <pt x="1315" y="1210" on="1"/>
        <pt x="1530" y="1151" on="0"/>
        <pt x="1744" y="863" on="0"/>
        <pt x="1744" y="623" on="1"/>
        <pt x="1744" y="513" on="0"/>
        <pt x="1693" y="326" on="0"/>
        <pt x="1588" y="177" on="0"/>
        <pt x="1429" y="71" on="0"/>
        <pt x="1321" y="42" on="1"/>
        <pt x="1240" y="20" on="0"/>
        <pt x="1035" y="0" on="0"/>
        <pt x="908" y="0" on="1"/>
        <pt x="150" y="0" on="1"/>
      </contour>
      <contour>
        <pt x="876" y="-70" on="1"/>
        <pt x="946" y="-70" on="0"/>
        <pt x="1082" y="-63" on="0"/>
        <pt x="1204" y="-51" on="0"/>
        <pt x="1307" y="-34" on="0"/>
        <pt x="1345" y="-24" on="1"/>
        <pt x="1453" y="4" on="0"/>
        <pt x="1628" y="119" on="0"/>
        <pt x="1750" y="284" on="0"/>
        <pt x="1816" y="497" on="0"/>
        <pt x="1816" y="623" on="1"/>
        <pt x="1816" y="716" on="0"/>
        <pt x="1782" y="867" on="0"/>
        <pt x="1716" y="992" on="0"/>
        <pt x="1619" y="1096" on="0"/>
        <pt x="1556" y="1142" on="1"/>
        <pt x="1629" y="1105" on="0"/>
        <pt x="1741" y="1007" on="0"/>
        <pt x="1817" y="879" on="0"/>
        <pt x="1857" y="720" on="0"/>
        <pt x="1857" y="623" on="1"/>
        <pt x="1857" y="494" on="0"/>
        <pt x="1790" y="271" on="0"/>
        <pt x="1662" y="94" on="0"/>
        <pt x="1474" y="-30" on="0"/>
        <pt x="1353" y="-61" on="1"/>
        <pt x="1268" y="-82" on="0"/>
        <pt x="1032" y="-108" on="0"/>
        <pt x="876" y="-108" on="1"/>
        <pt x="214" y="-108" on="1"/>
        <pt x="214" y="-70" on="1"/>
      </contour>
      <contour>
        <pt x="956" y="160" on="1"/>
        <pt x="1104" y="160" on="0"/>
        <pt x="1308" y="212" on="0"/>
        <pt x="1434" y="320" on="0"/>
        <pt x="1490" y="488" on="0"/>
        <pt x="1490" y="605" on="1"/>
        <pt x="1490" y="642" on="1"/>
        <pt x="1490" y="756" on="0"/>
        <pt x="1433" y="922" on="0"/>
        <pt x="1305" y="1032" on="0"/>
        <pt x="1098" y="1085" on="0"/>
        <pt x="947" y="1085" on="1"/>
        <pt x="646" y="1085" on="1"/>
        <pt x="646" y="160" on="1"/>
      </contour>
      <contour>
        <pt x="716" y="1015" on="1"/>
        <pt x="928" y="1015" on="1"/>
        <pt x="1028" y="1015" on="0"/>
        <pt x="1166" y="1000" on="0"/>
        <pt x="1263" y="969" on="0"/>
        <pt x="1334" y="919" on="0"/>
        <pt x="1368" y="884" on="1"/>
        <pt x="1331" y="907" on="0"/>
        <pt x="1250" y="942" on="0"/>
        <pt x="1148" y="965" on="0"/>
        <pt x="1016" y="977" on="0"/>
        <pt x="928" y="977" on="1"/>
        <pt x="756" y="977" on="1"/>
        <pt x="756" y="220" on="1"/>
        <pt x="716" y="220" on="1"/>
      </contour>
      <contour>
        <pt x="210" y="1015" on="1"/>
        <pt x="379" y="1015" on="1"/>
        <pt x="379" y="977" on="1"/>
        <pt x="210" y="977" on="1"/>
      </contour>
    </TTGlyph>
    <TTGlyph name="E" xMin="150" yMin="-108" xMax="1749" yMax="1245">
      <contour>
        <pt x="150" y="160" on="1"/>
        <pt x="420" y="160" on="1"/>
        <pt x="420" y="1085" on="1"/>
        <pt x="150" y="1085" on="1"/>
        <pt x="150" y="1245" on="1"/>
        <pt x="1637" y="1245" on="1"/>
        <pt x="1637" y="855" on="1"/>
        <pt x="1412" y="855" on="1"/>
        <pt x="1412" y="1085" on="1"/>
        <pt x="655" y="1085" on="1"/>
        <pt x="655" y="691" on="1"/>
        <pt x="1157" y="691" on="1"/>
        <pt x="1157" y="566" on="1"/>
        <pt x="655" y="566" on="1"/>
        <pt x="655" y="160" on="1"/>
        <pt x="1412" y="160" on="1"/>
        <pt x="1412" y="390" on="1"/>
        <pt x="1637" y="390" on="1"/>
        <pt x="1637" y="0" on="1"/>
        <pt x="150" y="0" on="1"/>
      </contour>
      <contour>
        <pt x="1472" y="785" on="1"/>
        <pt x="1709" y="785" on="1"/>
        <pt x="1709" y="1195" on="1"/>
        <pt x="1749" y="1195" on="1"/>
        <pt x="1749" y="747" on="1"/>
        <pt x="1472" y="747" on="1"/>
      </contour>
      <contour>
        <pt x="727" y="1015" on="1"/>
        <pt x="1370" y="1015" on="1"/>
        <pt x="1370" y="977" on="1"/>
        <pt x="767" y="977" on="1"/>
        <pt x="767" y="751" on="1"/>
        <pt x="727" y="751" on="1"/>
      </contour>
      <contour>
        <pt x="210" y="1015" on="1"/>
        <pt x="378" y="1015" on="1"/>
        <pt x="378" y="977" on="1"/>
        <pt x="210" y="977" on="1"/>
      </contour>
      <contour>
        <pt x="727" y="496" on="1"/>
        <pt x="1228" y="496" on="1"/>
        <pt x="1228" y="641" on="1"/>
        <pt x="1268" y="641" on="1"/>
        <pt x="1268" y="458" on="1"/>
        <pt x="767" y="458" on="1"/>
        <pt x="767" y="220" on="1"/>
        <pt x="727" y="220" on="1"/>
      </contour>
      <contour>
        <pt x="1709" y="-70" on="1"/>
        <pt x="1709" y="334" on="1"/>
        <pt x="1749" y="334" on="1"/>
        <pt x="1749" y="-108" on="1"/>
        <pt x="210" y="-108" on="1"/>
        <pt x="210" y="-70" on="1"/>
      </contour>
    </TTGlyph>
    <TTGlyph name="Eacute" xMin="150" yMin="-108" xMax="1749" yMax="1800">
      <contour>
        <pt x="1014" y="1800" on="1"/>
        <pt x="1269" y="1800" on="1"/>
        <pt x="959" y="1460" on="1"/>
        <pt x="764" y="1460" on="1"/>
      </contour>
      <contour>
        <pt x="824" y="1390" on="1"/>
        <pt x="991" y="1390" on="1"/>
        <pt x="1315" y="1744" on="1"/>
        <pt x="1368" y="1744" on="1"/>
        <pt x="1010" y="1352" on="1"/>
        <pt x="796" y="1352" on="1"/>
      </contour>
      <contour>
        <pt x="150" y="160" on="1"/>
        <pt x="420" y="160" on="1"/>
        <pt x="420" y="1085" on="1"/>
        <pt x="150" y="1085" on="1"/>
        <pt x="150" y="1245" on="1"/>
        <pt x="1637" y="1245" on="1"/>
        <pt x="1637" y="855" on="1"/>
        <pt x="1412" y="855" on="1"/>
        <pt x="1412" y="1085" on="1"/>
        <pt x="655" y="1085" on="1"/>
        <pt x="655" y="691" on="1"/>
        <pt x="1157" y="691" on="1"/>
        <pt x="1157" y="566" on="1"/>
        <pt x="655" y="566" on="1"/>
        <pt x="655" y="160" on="1"/>
        <pt x="1412" y="160" on="1"/>
        <pt x="1412" y="390" on="1"/>
        <pt x="1637" y="390" on="1"/>
        <pt x="1637" y="0" on="1"/>
        <pt x="150" y="0" on="1"/>
      </contour>
      <contour>
        <pt x="1472" y="785" on="1"/>
        <pt x="1709" y="785" on="1"/>
        <pt x="1709" y="1195" on="1"/>
        <pt x="1749" y="1195" on="1"/>
        <pt x="1749" y="747" on="1"/>
        <pt x="1472" y="747" on="1"/>
      </contour>
      <contour>
        <pt x="727" y="1015" on="1"/>
        <pt x="1370" y="1015" on="1"/>
        <pt x="1370" y="977" on="1"/>
        <pt x="767" y="977" on="1"/>
        <pt x="767" y="751" on="1"/>
        <pt x="727" y="751" on="1"/>
      </contour>
      <contour>
        <pt x="210" y="1015" on="1"/>
        <pt x="378" y="1015" on="1"/>
        <pt x="378" y="977" on="1"/>
        <pt x="210" y="977" on="1"/>
      </contour>
      <contour>
        <pt x="727" y="496" on="1"/>
        <pt x="1228" y="496" on="1"/>
        <pt x="1228" y="641" on="1"/>
        <pt x="1268" y="641" on="1"/>
        <pt x="1268" y="458" on="1"/>
        <pt x="767" y="458" on="1"/>
        <pt x="767" y="220" on="1"/>
        <pt x="727" y="220" on="1"/>
      </contour>
      <contour>
        <pt x="1709" y="-70" on="1"/>
        <pt x="1709" y="334" on="1"/>
        <pt x="1749" y="334" on="1"/>
        <pt x="1749" y="-108" on="1"/>
        <pt x="210" y="-108" on="1"/>
        <pt x="210" y="-70" on="1"/>
      </contour>
    </TTGlyph>
    <TTGlyph name="Ecircumflex" xMin="150" yMin="-108" xMax="1749" yMax="1800">
      <contour>
        <pt x="781" y="1800" on="1"/>
        <pt x="1035" y="1800" on="1"/>
        <pt x="1306" y="1460" on="1"/>
        <pt x="1111" y="1460" on="1"/>
        <pt x="900" y="1677" on="1"/>
        <pt x="696" y="1460" on="1"/>
        <pt x="501" y="1460" on="1"/>
      </contour>
      <contour>
        <pt x="1221" y="1390" on="1"/>
        <pt x="1453" y="1390" on="1"/>
        <pt x="1162" y="1754" on="1"/>
        <pt x="1212" y="1754" on="1"/>
        <pt x="1533" y="1352" on="1"/>
        <pt x="1251" y="1352" on="1"/>
      </contour>
      <contour>
        <pt x="561" y="1390" on="1"/>
        <pt x="724" y="1390" on="1"/>
        <pt x="920" y="1592" on="1"/>
        <pt x="947" y="1563" on="1"/>
        <pt x="744" y="1352" on="1"/>
        <pt x="533" y="1352" on="1"/>
      </contour>
      <contour>
        <pt x="150" y="160" on="1"/>
        <pt x="420" y="160" on="1"/>
        <pt x="420" y="1085" on="1"/>
        <pt x="150" y="1085" on="1"/>
        <pt x="150" y="1245" on="1"/>
        <pt x="1637" y="1245" on="1"/>
        <pt x="1637" y="855" on="1"/>
        <pt x="1412" y="855" on="1"/>
        <pt x="1412" y="1085" on="1"/>
        <pt x="655" y="1085" on="1"/>
        <pt x="655" y="691" on="1"/>
        <pt x="1157" y="691" on="1"/>
        <pt x="1157" y="566" on="1"/>
        <pt x="655" y="566" on="1"/>
        <pt x="655" y="160" on="1"/>
        <pt x="1412" y="160" on="1"/>
        <pt x="1412" y="390" on="1"/>
        <pt x="1637" y="390" on="1"/>
        <pt x="1637" y="0" on="1"/>
        <pt x="150" y="0" on="1"/>
      </contour>
      <contour>
        <pt x="1472" y="785" on="1"/>
        <pt x="1709" y="785" on="1"/>
        <pt x="1709" y="1195" on="1"/>
        <pt x="1749" y="1195" on="1"/>
        <pt x="1749" y="747" on="1"/>
        <pt x="1472" y="747" on="1"/>
      </contour>
      <contour>
        <pt x="727" y="1015" on="1"/>
        <pt x="1370" y="1015" on="1"/>
        <pt x="1370" y="977" on="1"/>
        <pt x="767" y="977" on="1"/>
        <pt x="767" y="751" on="1"/>
        <pt x="727" y="751" on="1"/>
      </contour>
      <contour>
        <pt x="210" y="1015" on="1"/>
        <pt x="378" y="1015" on="1"/>
        <pt x="378" y="977" on="1"/>
        <pt x="210" y="977" on="1"/>
      </contour>
      <contour>
        <pt x="727" y="496" on="1"/>
        <pt x="1228" y="496" on="1"/>
        <pt x="1228" y="641" on="1"/>
        <pt x="1268" y="641" on="1"/>
        <pt x="1268" y="458" on="1"/>
        <pt x="767" y="458" on="1"/>
        <pt x="767" y="220" on="1"/>
        <pt x="727" y="220" on="1"/>
      </contour>
      <contour>
        <pt x="1709" y="-70" on="1"/>
        <pt x="1709" y="334" on="1"/>
        <pt x="1749" y="334" on="1"/>
        <pt x="1749" y="-108" on="1"/>
        <pt x="210" y="-108" on="1"/>
        <pt x="210" y="-70" on="1"/>
      </contour>
    </TTGlyph>
    <TTGlyph name="Edieresis" xMin="150" yMin="-108" xMax="1749" yMax="1660">
      <contour>
        <pt x="1072" y="1660" on="1"/>
        <pt x="1317" y="1660" on="1"/>
        <pt x="1317" y="1460" on="1"/>
        <pt x="1072" y="1460" on="1"/>
      </contour>
      <contour>
        <pt x="462" y="1660" on="1"/>
        <pt x="707" y="1660" on="1"/>
        <pt x="707" y="1460" on="1"/>
        <pt x="462" y="1460" on="1"/>
      </contour>
      <contour>
        <pt x="1132" y="1390" on="1"/>
        <pt x="1389" y="1390" on="1"/>
        <pt x="1389" y="1604" on="1"/>
        <pt x="1429" y="1604" on="1"/>
        <pt x="1429" y="1352" on="1"/>
        <pt x="1132" y="1352" on="1"/>
      </contour>
      <contour>
        <pt x="522" y="1390" on="1"/>
        <pt x="779" y="1390" on="1"/>
        <pt x="779" y="1604" on="1"/>
        <pt x="819" y="1604" on="1"/>
        <pt x="819" y="1352" on="1"/>
        <pt x="522" y="1352" on="1"/>
      </contour>
      <contour>
        <pt x="150" y="160" on="1"/>
        <pt x="420" y="160" on="1"/>
        <pt x="420" y="1085" on="1"/>
        <pt x="150" y="1085" on="1"/>
        <pt x="150" y="1245" on="1"/>
        <pt x="1637" y="1245" on="1"/>
        <pt x="1637" y="855" on="1"/>
        <pt x="1412" y="855" on="1"/>
        <pt x="1412" y="1085" on="1"/>
        <pt x="655" y="1085" on="1"/>
        <pt x="655" y="691" on="1"/>
        <pt x="1157" y="691" on="1"/>
        <pt x="1157" y="566" on="1"/>
        <pt x="655" y="566" on="1"/>
        <pt x="655" y="160" on="1"/>
        <pt x="1412" y="160" on="1"/>
        <pt x="1412" y="390" on="1"/>
        <pt x="1637" y="390" on="1"/>
        <pt x="1637" y="0" on="1"/>
        <pt x="150" y="0" on="1"/>
      </contour>
      <contour>
        <pt x="1472" y="785" on="1"/>
        <pt x="1709" y="785" on="1"/>
        <pt x="1709" y="1195" on="1"/>
        <pt x="1749" y="1195" on="1"/>
        <pt x="1749" y="747" on="1"/>
        <pt x="1472" y="747" on="1"/>
      </contour>
      <contour>
        <pt x="727" y="1015" on="1"/>
        <pt x="1370" y="1015" on="1"/>
        <pt x="1370" y="977" on="1"/>
        <pt x="767" y="977" on="1"/>
        <pt x="767" y="751" on="1"/>
        <pt x="727" y="751" on="1"/>
      </contour>
      <contour>
        <pt x="210" y="1015" on="1"/>
        <pt x="378" y="1015" on="1"/>
        <pt x="378" y="977" on="1"/>
        <pt x="210" y="977" on="1"/>
      </contour>
      <contour>
        <pt x="727" y="496" on="1"/>
        <pt x="1228" y="496" on="1"/>
        <pt x="1228" y="641" on="1"/>
        <pt x="1268" y="641" on="1"/>
        <pt x="1268" y="458" on="1"/>
        <pt x="767" y="458" on="1"/>
        <pt x="767" y="220" on="1"/>
        <pt x="727" y="220" on="1"/>
      </contour>
      <contour>
        <pt x="1709" y="-70" on="1"/>
        <pt x="1709" y="334" on="1"/>
        <pt x="1749" y="334" on="1"/>
        <pt x="1749" y="-108" on="1"/>
        <pt x="210" y="-108" on="1"/>
        <pt x="210" y="-70" on="1"/>
      </contour>
    </TTGlyph>
    <TTGlyph name="Egrave" xMin="150" yMin="-108" xMax="1749" yMax="1800">
      <contour>
        <pt x="539" y="1800" on="1"/>
        <pt x="794" y="1800" on="1"/>
        <pt x="1034" y="1460" on="1"/>
        <pt x="839" y="1460" on="1"/>
      </contour>
      <contour>
        <pt x="968" y="1390" on="1"/>
        <pt x="1170" y="1390" on="1"/>
        <pt x="913" y="1754" on="1"/>
        <pt x="962" y="1754" on="1"/>
        <pt x="1246" y="1352" on="1"/>
        <pt x="998" y="1352" on="1"/>
      </contour>
      <contour>
        <pt x="150" y="160" on="1"/>
        <pt x="420" y="160" on="1"/>
        <pt x="420" y="1085" on="1"/>
        <pt x="150" y="1085" on="1"/>
        <pt x="150" y="1245" on="1"/>
        <pt x="1637" y="1245" on="1"/>
        <pt x="1637" y="855" on="1"/>
        <pt x="1412" y="855" on="1"/>
        <pt x="1412" y="1085" on="1"/>
        <pt x="655" y="1085" on="1"/>
        <pt x="655" y="691" on="1"/>
        <pt x="1157" y="691" on="1"/>
        <pt x="1157" y="566" on="1"/>
        <pt x="655" y="566" on="1"/>
        <pt x="655" y="160" on="1"/>
        <pt x="1412" y="160" on="1"/>
        <pt x="1412" y="390" on="1"/>
        <pt x="1637" y="390" on="1"/>
        <pt x="1637" y="0" on="1"/>
        <pt x="150" y="0" on="1"/>
      </contour>
      <contour>
        <pt x="1472" y="785" on="1"/>
        <pt x="1709" y="785" on="1"/>
        <pt x="1709" y="1195" on="1"/>
        <pt x="1749" y="1195" on="1"/>
        <pt x="1749" y="747" on="1"/>
        <pt x="1472" y="747" on="1"/>
      </contour>
      <contour>
        <pt x="727" y="1015" on="1"/>
        <pt x="1370" y="1015" on="1"/>
        <pt x="1370" y="977" on="1"/>
        <pt x="767" y="977" on="1"/>
        <pt x="767" y="751" on="1"/>
        <pt x="727" y="751" on="1"/>
      </contour>
      <contour>
        <pt x="210" y="1015" on="1"/>
        <pt x="378" y="1015" on="1"/>
        <pt x="378" y="977" on="1"/>
        <pt x="210" y="977" on="1"/>
      </contour>
      <contour>
        <pt x="727" y="496" on="1"/>
        <pt x="1228" y="496" on="1"/>
        <pt x="1228" y="641" on="1"/>
        <pt x="1268" y="641" on="1"/>
        <pt x="1268" y="458" on="1"/>
        <pt x="767" y="458" on="1"/>
        <pt x="767" y="220" on="1"/>
        <pt x="727" y="220" on="1"/>
      </contour>
      <contour>
        <pt x="1709" y="-70" on="1"/>
        <pt x="1709" y="334" on="1"/>
        <pt x="1749" y="334" on="1"/>
        <pt x="1749" y="-108" on="1"/>
        <pt x="210" y="-108" on="1"/>
        <pt x="210" y="-70" on="1"/>
      </contour>
    </TTGlyph>
    <TTGlyph name="Eth" xMin="150" yMin="-108" xMax="1845" yMax="1245">
      <contour>
        <pt x="150" y="160" on="1"/>
        <pt x="421" y="160" on="1"/>
        <pt x="421" y="543" on="1"/>
        <pt x="234" y="543" on="1"/>
        <pt x="234" y="668" on="1"/>
        <pt x="421" y="668" on="1"/>
        <pt x="421" y="1085" on="1"/>
        <pt x="150" y="1085" on="1"/>
        <pt x="150" y="1245" on="1"/>
        <pt x="878" y="1245" on="1"/>
        <pt x="1011" y="1245" on="0"/>
        <pt x="1213" y="1229" on="0"/>
        <pt x="1295" y="1207" on="1"/>
        <pt x="1510" y="1148" on="0"/>
        <pt x="1733" y="860" on="0"/>
        <pt x="1733" y="620" on="1"/>
        <pt x="1733" y="397" on="0"/>
        <pt x="1509" y="102" on="0"/>
        <pt x="1291" y="42" on="1"/>
        <pt x="1210" y="20" on="0"/>
        <pt x="1005" y="0" on="0"/>
        <pt x="878" y="0" on="1"/>
        <pt x="150" y="0" on="1"/>
      </contour>
      <contour>
        <pt x="846" y="-70" on="1"/>
        <pt x="916" y="-70" on="0"/>
        <pt x="1052" y="-63" on="0"/>
        <pt x="1174" y="-51" on="0"/>
        <pt x="1277" y="-34" on="0"/>
        <pt x="1315" y="-24" on="1"/>
        <pt x="1423" y="4" on="0"/>
        <pt x="1604" y="118" on="0"/>
        <pt x="1733" y="282" on="0"/>
        <pt x="1805" y="494" on="0"/>
        <pt x="1805" y="620" on="1"/>
        <pt x="1805" y="713" on="0"/>
        <pt x="1774" y="865" on="0"/>
        <pt x="1712" y="991" on="0"/>
        <pt x="1619" y="1096" on="0"/>
        <pt x="1556" y="1142" on="1"/>
        <pt x="1702" y="1068" on="0"/>
        <pt x="1845" y="815" on="0"/>
        <pt x="1845" y="620" on="1"/>
        <pt x="1845" y="491" on="0"/>
        <pt x="1773" y="269" on="0"/>
        <pt x="1638" y="93" on="0"/>
        <pt x="1444" y="-30" on="0"/>
        <pt x="1323" y="-61" on="1"/>
        <pt x="1238" y="-82" on="0"/>
        <pt x="1002" y="-108" on="0"/>
        <pt x="846" y="-108" on="1"/>
        <pt x="214" y="-108" on="1"/>
        <pt x="214" y="-70" on="1"/>
      </contour>
      <contour>
        <pt x="926" y="160" on="1"/>
        <pt x="1074" y="160" on="0"/>
        <pt x="1288" y="211" on="0"/>
        <pt x="1424" y="318" on="0"/>
        <pt x="1489" y="485" on="0"/>
        <pt x="1489" y="602" on="1"/>
        <pt x="1489" y="639" on="1"/>
        <pt x="1489" y="753" on="0"/>
        <pt x="1426" y="920" on="0"/>
        <pt x="1291" y="1031" on="0"/>
        <pt x="1078" y="1085" on="0"/>
        <pt x="927" y="1085" on="1"/>
        <pt x="646" y="1085" on="1"/>
        <pt x="646" y="668" on="1"/>
        <pt x="978" y="668" on="1"/>
        <pt x="978" y="543" on="1"/>
        <pt x="646" y="543" on="1"/>
        <pt x="646" y="160" on="1"/>
      </contour>
      <contour>
        <pt x="716" y="1015" on="1"/>
        <pt x="908" y="1015" on="1"/>
        <pt x="1008" y="1015" on="0"/>
        <pt x="1152" y="1000" on="0"/>
        <pt x="1257" y="969" on="0"/>
        <pt x="1334" y="919" on="0"/>
        <pt x="1368" y="884" on="1"/>
        <pt x="1331" y="907" on="0"/>
        <pt x="1244" y="942" on="0"/>
        <pt x="1134" y="965" on="0"/>
        <pt x="996" y="977" on="0"/>
        <pt x="908" y="977" on="1"/>
        <pt x="756" y="977" on="1"/>
        <pt x="756" y="728" on="1"/>
        <pt x="716" y="728" on="1"/>
      </contour>
      <contour>
        <pt x="210" y="1015" on="1"/>
        <pt x="379" y="1015" on="1"/>
        <pt x="379" y="977" on="1"/>
        <pt x="210" y="977" on="1"/>
      </contour>
      <contour>
        <pt x="716" y="473" on="1"/>
        <pt x="1050" y="473" on="1"/>
        <pt x="1050" y="612" on="1"/>
        <pt x="1090" y="612" on="1"/>
        <pt x="1090" y="435" on="1"/>
        <pt x="756" y="435" on="1"/>
        <pt x="756" y="220" on="1"/>
        <pt x="716" y="220" on="1"/>
      </contour>
      <contour>
        <pt x="294" y="473" on="1"/>
        <pt x="379" y="473" on="1"/>
        <pt x="379" y="435" on="1"/>
        <pt x="294" y="435" on="1"/>
      </contour>
    </TTGlyph>
    <TTGlyph name="Euro" xMin="120" yMin="-138" xMax="1918" yMax="1280">
      <contour>
        <pt x="180" y="585" on="1"/>
        <pt x="326" y="585" on="1"/>
        <pt x="325" y="594" on="0"/>
        <pt x="325" y="612" on="0"/>
        <pt x="325" y="622" on="1"/>
        <pt x="325" y="656" on="0"/>
        <pt x="328" y="689" on="1"/>
        <pt x="130" y="689" on="1"/>
        <pt x="190" y="810" on="1"/>
        <pt x="355" y="810" on="1"/>
        <pt x="386" y="906" on="0"/>
        <pt x="513" y="1077" on="0"/>
        <pt x="701" y="1205" on="0"/>
        <pt x="948" y="1280" on="0"/>
        <pt x="1099" y="1280" on="1"/>
        <pt x="1248" y="1280" on="0"/>
        <pt x="1496" y="1211" on="0"/>
        <pt x="1680" y="1086" on="0"/>
        <pt x="1792" y="913" on="0"/>
        <pt x="1806" y="810" on="1"/>
        <pt x="1581" y="810" on="1"/>
        <pt x="1565" y="879" on="0"/>
        <pt x="1484" y="994" on="0"/>
        <pt x="1358" y="1075" on="0"/>
        <pt x="1189" y="1120" on="0"/>
        <pt x="1084" y="1120" on="1"/>
        <pt x="990" y="1120" on="0"/>
        <pt x="837" y="1072" on="0"/>
        <pt x="718" y="988" on="0"/>
        <pt x="633" y="875" on="0"/>
        <pt x="608" y="810" on="1"/>
        <pt x="1246" y="810" on="1"/>
        <pt x="1186" y="689" on="1"/>
        <pt x="579" y="689" on="1"/>
        <pt x="577" y="672" on="0"/>
        <pt x="575" y="639" on="0"/>
        <pt x="575" y="622" on="1"/>
        <pt x="575" y="612" on="0"/>
        <pt x="575" y="594" on="0"/>
        <pt x="576" y="585" on="1"/>
        <pt x="1106" y="585" on="1"/>
        <pt x="1046" y="465" on="1"/>
        <pt x="598" y="465" on="1"/>
        <pt x="622" y="389" on="0"/>
        <pt x="715" y="265" on="0"/>
        <pt x="845" y="178" on="0"/>
        <pt x="1009" y="130" on="0"/>
        <pt x="1105" y="130" on="1"/>
        <pt x="1206" y="130" on="0"/>
        <pt x="1369" y="176" on="0"/>
        <pt x="1489" y="258" on="0"/>
        <pt x="1566" y="372" on="0"/>
        <pt x="1581" y="440" on="1"/>
        <pt x="1806" y="440" on="1"/>
        <pt x="1782" y="331" on="0"/>
        <pt x="1666" y="157" on="0"/>
        <pt x="1486" y="35" on="0"/>
        <pt x="1245" y="-30" on="0"/>
        <pt x="1096" y="-30" on="1"/>
        <pt x="951" y="-30" on="0"/>
        <pt x="702" y="44" on="0"/>
        <pt x="507" y="175" on="0"/>
        <pt x="374" y="357" on="0"/>
        <pt x="345" y="465" on="1"/>
        <pt x="120" y="465" on="1"/>
      </contour>
      <contour>
        <pt x="1641" y="740" on="1"/>
        <pt x="1878" y="740" on="1"/>
        <pt x="1878" y="761" on="1"/>
        <pt x="1878" y="899" on="0"/>
        <pt x="1770" y="1112" on="0"/>
        <pt x="1658" y="1184" on="1"/>
        <pt x="1719" y="1161" on="0"/>
        <pt x="1816" y="1077" on="0"/>
        <pt x="1882" y="967" on="0"/>
        <pt x="1917" y="839" on="0"/>
        <pt x="1917" y="773" on="1"/>
        <pt x="1917" y="702" on="1"/>
        <pt x="1641" y="702" on="1"/>
      </contour>
      <contour>
        <pt x="720" y="870" on="1"/>
        <pt x="746" y="909" on="0"/>
        <pt x="821" y="975" on="0"/>
        <pt x="914" y="1023" on="0"/>
        <pt x="1024" y="1050" on="0"/>
        <pt x="1084" y="1050" on="1"/>
        <pt x="1208" y="1050" on="0"/>
        <pt x="1389" y="983" on="0"/>
        <pt x="1443" y="917" on="1"/>
        <pt x="1377" y="965" on="0"/>
        <pt x="1196" y="1012" on="0"/>
        <pt x="1084" y="1012" on="1"/>
        <pt x="981" y="1012" on="0"/>
        <pt x="828" y="939" on="0"/>
        <pt x="771" y="870" on="1"/>
      </contour>
      <contour>
        <pt x="1092" y="395" on="1"/>
        <pt x="1184" y="585" on="1"/>
        <pt x="1232" y="585" on="1"/>
        <pt x="1311" y="744" on="1"/>
        <pt x="1356" y="744" on="1"/>
        <pt x="1260" y="547" on="1"/>
        <pt x="1210" y="547" on="1"/>
        <pt x="1119" y="357" on="1"/>
        <pt x="783" y="357" on="1"/>
        <pt x="825" y="311" on="0"/>
        <pt x="957" y="228" on="0"/>
        <pt x="1051" y="196" on="1"/>
        <pt x="993" y="201" on="0"/>
        <pt x="890" y="235" on="0"/>
        <pt x="803" y="288" on="0"/>
        <pt x="733" y="356" on="0"/>
        <pt x="708" y="395" on="1"/>
      </contour>
      <contour>
        <pt x="569" y="48" on="1"/>
        <pt x="617" y="15" on="0"/>
        <pt x="737" y="-40" on="0"/>
        <pt x="874" y="-79" on="0"/>
        <pt x="1022" y="-100" on="0"/>
        <pt x="1098" y="-100" on="1"/>
        <pt x="1258" y="-100" on="0"/>
        <pt x="1523" y="-28" on="0"/>
        <pt x="1723" y="110" on="0"/>
        <pt x="1853" y="311" on="0"/>
        <pt x="1878" y="440" on="1"/>
        <pt x="1918" y="440" on="1"/>
        <pt x="1895" y="303" on="0"/>
        <pt x="1760" y="88" on="0"/>
        <pt x="1549" y="-60" on="0"/>
        <pt x="1267" y="-138" on="0"/>
        <pt x="1096" y="-138" on="1"/>
        <pt x="1018" y="-138" on="0"/>
        <pt x="867" y="-117" on="0"/>
        <pt x="730" y="-72" on="0"/>
        <pt x="613" y="-2" on="0"/>
      </contour>
      <contour>
        <pt x="206" y="395" on="1"/>
        <pt x="324" y="395" on="1"/>
        <pt x="341" y="357" on="1"/>
        <pt x="186" y="357" on="1"/>
      </contour>
    </TTGlyph>
    <TTGlyph name="F" xMin="150" yMin="-108" xMax="1733" yMax="1245">
      <contour>
        <pt x="151" y="160" on="1"/>
        <pt x="420" y="160" on="1"/>
        <pt x="420" y="1085" on="1"/>
        <pt x="150" y="1085" on="1"/>
        <pt x="150" y="1245" on="1"/>
        <pt x="1621" y="1245" on="1"/>
        <pt x="1621" y="885" on="1"/>
        <pt x="1396" y="885" on="1"/>
        <pt x="1396" y="1085" on="1"/>
        <pt x="655" y="1085" on="1"/>
        <pt x="655" y="681" on="1"/>
        <pt x="1261" y="681" on="1"/>
        <pt x="1261" y="556" on="1"/>
        <pt x="655" y="556" on="1"/>
        <pt x="655" y="160" on="1"/>
        <pt x="1069" y="160" on="1"/>
        <pt x="1069" y="0" on="1"/>
        <pt x="151" y="0" on="1"/>
      </contour>
      <contour>
        <pt x="1456" y="815" on="1"/>
        <pt x="1693" y="815" on="1"/>
        <pt x="1693" y="1195" on="1"/>
        <pt x="1733" y="1195" on="1"/>
        <pt x="1733" y="777" on="1"/>
        <pt x="1456" y="777" on="1"/>
      </contour>
      <contour>
        <pt x="727" y="1015" on="1"/>
        <pt x="1356" y="1015" on="1"/>
        <pt x="1356" y="977" on="1"/>
        <pt x="768" y="977" on="1"/>
        <pt x="768" y="741" on="1"/>
        <pt x="727" y="741" on="1"/>
      </contour>
      <contour>
        <pt x="210" y="1015" on="1"/>
        <pt x="378" y="1015" on="1"/>
        <pt x="378" y="977" on="1"/>
        <pt x="210" y="977" on="1"/>
      </contour>
      <contour>
        <pt x="727" y="486" on="1"/>
        <pt x="1334" y="486" on="1"/>
        <pt x="1334" y="631" on="1"/>
        <pt x="1374" y="631" on="1"/>
        <pt x="1374" y="448" on="1"/>
        <pt x="767" y="448" on="1"/>
        <pt x="767" y="220" on="1"/>
        <pt x="727" y="220" on="1"/>
      </contour>
      <contour>
        <pt x="1141" y="-70" on="1"/>
        <pt x="1141" y="104" on="1"/>
        <pt x="1181" y="104" on="1"/>
        <pt x="1181" y="-108" on="1"/>
        <pt x="210" y="-108" on="1"/>
        <pt x="210" y="-70" on="1"/>
      </contour>
    </TTGlyph>
    <TTGlyph name="G" xMin="108" yMin="-138" xMax="1764" yMax="1280">
      <contour>
        <pt x="108" y="623" on="1"/>
        <pt x="108" y="706" on="0"/>
        <pt x="154" y="867" on="0"/>
        <pt x="244" y="1013" on="0"/>
        <pt x="377" y="1138" on="0"/>
        <pt x="551" y="1229" on="0"/>
        <pt x="764" y="1280" on="0"/>
        <pt x="889" y="1280" on="1"/>
        <pt x="1055" y="1280" on="0"/>
        <pt x="1295" y="1194" on="0"/>
        <pt x="1386" y="1119" on="1"/>
        <pt x="1386" y="1245" on="1"/>
        <pt x="1622" y="1245" on="1"/>
        <pt x="1622" y="885" on="1"/>
        <pt x="1386" y="885" on="1"/>
        <pt x="1339" y="942" on="0"/>
        <pt x="1234" y="1029" on="0"/>
        <pt x="1113" y="1089" on="0"/>
        <pt x="970" y="1120" on="0"/>
        <pt x="886" y="1120" on="1"/>
        <pt x="762" y="1120" on="0"/>
        <pt x="570" y="1042" on="0"/>
        <pt x="438" y="907" on="0"/>
        <pt x="370" y="725" on="0"/>
        <pt x="370" y="622" on="1"/>
        <pt x="370" y="515" on="0"/>
        <pt x="438" y="335" on="0"/>
        <pt x="572" y="204" on="0"/>
        <pt x="770" y="130" on="0"/>
        <pt x="901" y="130" on="1"/>
        <pt x="1018" y="130" on="0"/>
        <pt x="1204" y="185" on="0"/>
        <pt x="1337" y="284" on="0"/>
        <pt x="1414" y="422" on="0"/>
        <pt x="1423" y="506" on="1"/>
        <pt x="1003" y="506" on="1"/>
        <pt x="1003" y="631" on="1"/>
        <pt x="1652" y="631" on="1"/>
        <pt x="1652" y="0" on="1"/>
        <pt x="1424" y="0" on="1"/>
        <pt x="1424" y="159" on="1"/>
        <pt x="1381" y="117" on="0"/>
        <pt x="1274" y="48" on="0"/>
        <pt x="1143" y="-2" on="0"/>
        <pt x="985" y="-30" on="0"/>
        <pt x="892" y="-30" on="1"/>
        <pt x="705" y="-30" on="0"/>
        <pt x="413" y="71" on="0"/>
        <pt x="213" y="247" on="0"/>
        <pt x="108" y="485" on="0"/>
      </contour>
      <contour>
        <pt x="1446" y="815" on="1"/>
        <pt x="1694" y="815" on="1"/>
        <pt x="1694" y="1194" on="1"/>
        <pt x="1734" y="1194" on="1"/>
        <pt x="1734" y="777" on="1"/>
        <pt x="1446" y="777" on="1"/>
      </contour>
      <contour>
        <pt x="442" y="623" on="1"/>
        <pt x="442" y="714" on="0"/>
        <pt x="503" y="870" on="0"/>
        <pt x="617" y="985" on="0"/>
        <pt x="782" y="1050" on="0"/>
        <pt x="886" y="1050" on="1"/>
        <pt x="958" y="1050" on="0"/>
        <pt x="1075" y="1029" on="0"/>
        <pt x="1168" y="989" on="0"/>
        <pt x="1242" y="930" on="0"/>
        <pt x="1272" y="892" on="1"/>
        <pt x="1226" y="925" on="0"/>
        <pt x="1138" y="970" on="0"/>
        <pt x="1046" y="999" on="0"/>
        <pt x="945" y="1012" on="0"/>
        <pt x="886" y="1012" on="1"/>
        <pt x="791" y="1012" on="0"/>
        <pt x="641" y="951" on="0"/>
        <pt x="537" y="846" on="0"/>
        <pt x="482" y="704" on="0"/>
        <pt x="482" y="623" on="1"/>
        <pt x="482" y="553" on="0"/>
        <pt x="522" y="429" on="0"/>
        <pt x="608" y="323" on="0"/>
        <pt x="742" y="236" on="0"/>
        <pt x="836" y="203" on="1"/>
        <pt x="743" y="218" on="0"/>
        <pt x="597" y="288" on="0"/>
        <pt x="496" y="395" on="0"/>
        <pt x="442" y="536" on="0"/>
      </contour>
      <contour>
        <pt x="1724" y="-70" on="1"/>
        <pt x="1724" y="581" on="1"/>
        <pt x="1764" y="581" on="1"/>
        <pt x="1764" y="-108" on="1"/>
        <pt x="1484" y="-108" on="1"/>
        <pt x="1484" y="-70" on="1"/>
      </contour>
      <contour>
        <pt x="1059" y="436" on="1"/>
        <pt x="1367" y="436" on="1"/>
        <pt x="1365" y="430" on="0"/>
        <pt x="1358" y="407" on="0"/>
        <pt x="1354" y="398" on="1"/>
        <pt x="1059" y="398" on="1"/>
      </contour>
      <contour>
        <pt x="364" y="48" on="1"/>
        <pt x="421" y="9" on="0"/>
        <pt x="536" y="-47" on="0"/>
        <pt x="663" y="-83" on="0"/>
        <pt x="808" y="-100" on="0"/>
        <pt x="894" y="-100" on="1"/>
        <pt x="968" y="-100" on="0"/>
        <pt x="1097" y="-86" on="0"/>
        <pt x="1212" y="-56" on="0"/>
        <pt x="1315" y="-10" on="0"/>
        <pt x="1364" y="22" on="1"/>
        <pt x="1364" y="-24" on="1"/>
        <pt x="1261" y="-87" on="0"/>
        <pt x="1030" y="-138" on="0"/>
        <pt x="892" y="-138" on="1"/>
        <pt x="708" y="-138" on="0"/>
        <pt x="449" y="-47" on="0"/>
      </contour>
    </TTGlyph>
    <TTGlyph name="H" xMin="150" yMin="-108" xMax="2148" yMax="1245">
      <contour>
        <pt x="150" y="160" on="1"/>
        <pt x="420" y="160" on="1"/>
        <pt x="420" y="1085" on="1"/>
        <pt x="150" y="1085" on="1"/>
        <pt x="150" y="1245" on="1"/>
        <pt x="915" y="1245" on="1"/>
        <pt x="915" y="1085" on="1"/>
        <pt x="647" y="1085" on="1"/>
        <pt x="647" y="691" on="1"/>
        <pt x="1540" y="691" on="1"/>
        <pt x="1540" y="1085" on="1"/>
        <pt x="1272" y="1085" on="1"/>
        <pt x="1272" y="1245" on="1"/>
        <pt x="2037" y="1245" on="1"/>
        <pt x="2037" y="1085" on="1"/>
        <pt x="1767" y="1085" on="1"/>
        <pt x="1767" y="160" on="1"/>
        <pt x="2037" y="160" on="1"/>
        <pt x="2037" y="0" on="1"/>
        <pt x="1272" y="0" on="1"/>
        <pt x="1272" y="160" on="1"/>
        <pt x="1540" y="160" on="1"/>
        <pt x="1540" y="566" on="1"/>
        <pt x="647" y="566" on="1"/>
        <pt x="647" y="160" on="1"/>
        <pt x="915" y="160" on="1"/>
        <pt x="915" y="0" on="1"/>
        <pt x="150" y="0" on="1"/>
      </contour>
      <contour>
        <pt x="1839" y="1015" on="1"/>
        <pt x="2108" y="1015" on="1"/>
        <pt x="2108" y="1194" on="1"/>
        <pt x="2148" y="1194" on="1"/>
        <pt x="2148" y="977" on="1"/>
        <pt x="1879" y="977" on="1"/>
        <pt x="1879" y="220" on="1"/>
        <pt x="1839" y="220" on="1"/>
      </contour>
      <contour>
        <pt x="719" y="1015" on="1"/>
        <pt x="986" y="1015" on="1"/>
        <pt x="986" y="1194" on="1"/>
        <pt x="1026" y="1194" on="1"/>
        <pt x="1026" y="977" on="1"/>
        <pt x="759" y="977" on="1"/>
        <pt x="759" y="751" on="1"/>
        <pt x="719" y="751" on="1"/>
      </contour>
      <contour>
        <pt x="1332" y="1015" on="1"/>
        <pt x="1498" y="1015" on="1"/>
        <pt x="1498" y="977" on="1"/>
        <pt x="1332" y="977" on="1"/>
      </contour>
      <contour>
        <pt x="210" y="1015" on="1"/>
        <pt x="378" y="977" on="1"/>
        <pt x="378" y="977" on="1"/>
        <pt x="210" y="977" on="1"/>
      </contour>
      <contour>
        <pt x="719" y="496" on="1"/>
        <pt x="1500" y="496" on="1"/>
        <pt x="1500" y="458" on="1"/>
        <pt x="759" y="458" on="1"/>
        <pt x="759" y="220" on="1"/>
        <pt x="719" y="220" on="1"/>
      </contour>
      <contour>
        <pt x="2109" y="-70" on="1"/>
        <pt x="2109" y="104" on="1"/>
        <pt x="2147" y="104" on="1"/>
        <pt x="2147" y="-108" on="1"/>
        <pt x="1332" y="-108" on="1"/>
        <pt x="1332" y="-70" on="1"/>
      </contour>
      <contour>
        <pt x="987" y="-70" on="1"/>
        <pt x="987" y="104" on="1"/>
        <pt x="1027" y="104" on="1"/>
        <pt x="1027" y="-108" on="1"/>
        <pt x="210" y="-108" on="1"/>
        <pt x="210" y="-70" on="1"/>
      </contour>
    </TTGlyph>
    <TTGlyph name="I" xMin="140" yMin="-108" xMax="1036" yMax="1245">
      <contour>
        <pt x="140" y="160" on="1"/>
        <pt x="420" y="160" on="1"/>
        <pt x="420" y="1085" on="1"/>
        <pt x="150" y="1085" on="1"/>
        <pt x="150" y="1245" on="1"/>
        <pt x="925" y="1245" on="1"/>
        <pt x="925" y="1085" on="1"/>
        <pt x="647" y="1085" on="1"/>
        <pt x="647" y="160" on="1"/>
        <pt x="915" y="160" on="1"/>
        <pt x="915" y="0" on="1"/>
        <pt x="140" y="0" on="1"/>
      </contour>
      <contour>
        <pt x="719" y="1015" on="1"/>
        <pt x="996" y="1015" on="1"/>
        <pt x="996" y="1195" on="1"/>
        <pt x="1036" y="1195" on="1"/>
        <pt x="1036" y="977" on="1"/>
        <pt x="759" y="977" on="1"/>
        <pt x="759" y="220" on="1"/>
        <pt x="719" y="220" on="1"/>
      </contour>
      <contour>
        <pt x="210" y="1015" on="1"/>
        <pt x="378" y="1015" on="1"/>
        <pt x="378" y="977" on="1"/>
        <pt x="210" y="977" on="1"/>
      </contour>
      <contour>
        <pt x="987" y="-70" on="1"/>
        <pt x="987" y="104" on="1"/>
        <pt x="1027" y="104" on="1"/>
        <pt x="1027" y="-108" on="1"/>
        <pt x="200" y="-108" on="1"/>
        <pt x="200" y="-70" on="1"/>
      </contour>
    </TTGlyph>
    <TTGlyph name="IJ" xMin="140" yMin="-133" xMax="2681" yMax="1245">
      <contour>
        <pt x="1431" y="382" on="1"/>
        <pt x="1465" y="255" on="0"/>
        <pt x="1658" y="135" on="0"/>
        <pt x="1810" y="135" on="1"/>
        <pt x="1859" y="135" on="0"/>
        <pt x="1945" y="154" on="0"/>
        <pt x="2014" y="193" on="0"/>
        <pt x="2063" y="253" on="0"/>
        <pt x="2075" y="294" on="1"/>
        <pt x="2084" y="328" on="0"/>
        <pt x="2092" y="436" on="0"/>
        <pt x="2092" y="526" on="1"/>
        <pt x="2092" y="1085" on="1"/>
        <pt x="1615" y="1085" on="1"/>
        <pt x="1615" y="1245" on="1"/>
        <pt x="2569" y="1245" on="1"/>
        <pt x="2569" y="1085" on="1"/>
        <pt x="2319" y="1085" on="1"/>
        <pt x="2319" y="518" on="1"/>
        <pt x="2319" y="428" on="0"/>
        <pt x="2305" y="297" on="0"/>
        <pt x="2291" y="255" on="1"/>
        <pt x="2267" y="181" on="0"/>
        <pt x="2179" y="74" on="0"/>
        <pt x="2054" y="4" on="0"/>
        <pt x="1895" y="-30" on="0"/>
        <pt x="1801" y="-30" on="1"/>
        <pt x="1673" y="-30" on="0"/>
        <pt x="1483" y="14" on="0"/>
        <pt x="1347" y="100" on="0"/>
        <pt x="1259" y="226" on="0"/>
        <pt x="1234" y="307" on="1"/>
      </contour>
      <contour>
        <pt x="140" y="160" on="1"/>
        <pt x="420" y="160" on="1"/>
        <pt x="420" y="1085" on="1"/>
        <pt x="150" y="1085" on="1"/>
        <pt x="150" y="1245" on="1"/>
        <pt x="925" y="1245" on="1"/>
        <pt x="925" y="1085" on="1"/>
        <pt x="647" y="1085" on="1"/>
        <pt x="647" y="160" on="1"/>
        <pt x="915" y="160" on="1"/>
        <pt x="915" y="0" on="1"/>
        <pt x="140" y="0" on="1"/>
      </contour>
      <contour>
        <pt x="1351" y="23" on="1"/>
        <pt x="1445" y="-37" on="0"/>
        <pt x="1663" y="-95" on="0"/>
        <pt x="1803" y="-95" on="1"/>
        <pt x="1902" y="-95" on="0"/>
        <pt x="2081" y="-57" on="0"/>
        <pt x="2227" y="24" on="0"/>
        <pt x="2335" y="151" on="0"/>
        <pt x="2364" y="240" on="1"/>
        <pt x="2377" y="285" on="0"/>
        <pt x="2391" y="416" on="0"/>
        <pt x="2391" y="518" on="1"/>
        <pt x="2391" y="1015" on="1"/>
        <pt x="2641" y="1015" on="1"/>
        <pt x="2641" y="1195" on="1"/>
        <pt x="2681" y="1195" on="1"/>
        <pt x="2681" y="977" on="1"/>
        <pt x="2431" y="977" on="1"/>
        <pt x="2431" y="515" on="1"/>
        <pt x="2431" y="410" on="0"/>
        <pt x="2417" y="273" on="0"/>
        <pt x="2401" y="222" on="1"/>
        <pt x="2371" y="133" on="0"/>
        <pt x="2259" y="-1" on="0"/>
        <pt x="2107" y="-89" on="0"/>
        <pt x="1921" y="-133" on="0"/>
        <pt x="1817" y="-133" on="1"/>
        <pt x="1734" y="-133" on="0"/>
        <pt x="1597" y="-114" on="0"/>
        <pt x="1483" y="-76" on="0"/>
        <pt x="1390" y="-17" on="0"/>
      </contour>
      <contour>
        <pt x="719" y="1015" on="1"/>
        <pt x="996" y="1015" on="1"/>
        <pt x="996" y="1195" on="1"/>
        <pt x="1036" y="1195" on="1"/>
        <pt x="1036" y="977" on="1"/>
        <pt x="759" y="977" on="1"/>
        <pt x="759" y="220" on="1"/>
        <pt x="719" y="220" on="1"/>
      </contour>
      <contour>
        <pt x="1675" y="1015" on="1"/>
        <pt x="2050" y="1015" on="1"/>
        <pt x="2050" y="977" on="1"/>
        <pt x="1675" y="977" on="1"/>
      </contour>
      <contour>
        <pt x="210" y="1015" on="1"/>
        <pt x="378" y="977" on="1"/>
        <pt x="210" y="977" on="1"/>
      </contour>
      <contour>
        <pt x="1564" y="353" on="1"/>
        <pt x="1577" y="325" on="0"/>
        <pt x="1617" y="278" on="0"/>
        <pt x="1664" y="240" on="0"/>
        <pt x="1714" y="213" on="0"/>
        <pt x="1738" y="205" on="1"/>
        <pt x="1659" y="214" on="0"/>
        <pt x="1553" y="285" on="0"/>
        <pt x="1526" y="339" on="1"/>
      </contour>
      <contour>
        <pt x="987" y="-70" on="1"/>
        <pt x="987" y="104" on="1"/>
        <pt x="1027" y="104" on="1"/>
        <pt x="1027" y="-108" on="1"/>
        <pt x="200" y="-108" on="1"/>
        <pt x="200" y="-70" on="1"/>
      </contour>
    </TTGlyph>
    <TTGlyph name="Iacute" xMin="140" yMin="-108" xMax="1036" yMax="1800">
      <contour>
        <pt x="581" y="1800" on="1"/>
        <pt x="836" y="1800" on="1"/>
        <pt x="526" y="1460" on="1"/>
        <pt x="331" y="1460" on="1"/>
      </contour>
      <contour>
        <pt x="391" y="1390" on="1"/>
        <pt x="558" y="1390" on="1"/>
        <pt x="882" y="1744" on="1"/>
        <pt x="935" y="1744" on="1"/>
        <pt x="577" y="1352" on="1"/>
        <pt x="363" y="1352" on="1"/>
      </contour>
      <contour>
        <pt x="140" y="160" on="1"/>
        <pt x="420" y="160" on="1"/>
        <pt x="420" y="1085" on="1"/>
        <pt x="150" y="1085" on="1"/>
        <pt x="150" y="1245" on="1"/>
        <pt x="925" y="1245" on="1"/>
        <pt x="925" y="1085" on="1"/>
        <pt x="647" y="1085" on="1"/>
        <pt x="647" y="160" on="1"/>
        <pt x="915" y="160" on="1"/>
        <pt x="915" y="0" on="1"/>
        <pt x="140" y="0" on="1"/>
      </contour>
      <contour>
        <pt x="719" y="1015" on="1"/>
        <pt x="996" y="1015" on="1"/>
        <pt x="996" y="1195" on="1"/>
        <pt x="1036" y="1195" on="1"/>
        <pt x="1036" y="977" on="1"/>
        <pt x="759" y="977" on="1"/>
        <pt x="759" y="220" on="1"/>
        <pt x="719" y="220" on="1"/>
      </contour>
      <contour>
        <pt x="210" y="1015" on="1"/>
        <pt x="378" y="1015" on="1"/>
        <pt x="378" y="977" on="1"/>
        <pt x="210" y="977" on="1"/>
      </contour>
      <contour>
        <pt x="987" y="-70" on="1"/>
        <pt x="987" y="104" on="1"/>
        <pt x="1027" y="104" on="1"/>
        <pt x="1027" y="-108" on="1"/>
        <pt x="200" y="-108" on="1"/>
        <pt x="200" y="-70" on="1"/>
      </contour>
    </TTGlyph>
    <TTGlyph name="Icircumflex" xMin="129" yMin="-108" xMax="1161" yMax="1800">
      <contour>
        <pt x="409" y="1800" on="1"/>
        <pt x="663" y="1800" on="1"/>
        <pt x="934" y="1460" on="1"/>
        <pt x="739" y="1460" on="1"/>
        <pt x="528" y="1677" on="1"/>
        <pt x="324" y="1460" on="1"/>
        <pt x="129" y="1460" on="1"/>
      </contour>
      <contour>
        <pt x="849" y="1390" on="1"/>
        <pt x="1081" y="1390" on="1"/>
        <pt x="790" y="1754" on="1"/>
        <pt x="840" y="1754" on="1"/>
        <pt x="1161" y="1352" on="1"/>
        <pt x="879" y="1352" on="1"/>
      </contour>
      <contour>
        <pt x="189" y="1390" on="1"/>
        <pt x="352" y="1390" on="1"/>
        <pt x="548" y="1592" on="1"/>
        <pt x="575" y="1563" on="1"/>
        <pt x="372" y="1352" on="1"/>
        <pt x="161" y="1352" on="1"/>
      </contour>
      <contour>
        <pt x="140" y="160" on="1"/>
        <pt x="420" y="160" on="1"/>
        <pt x="420" y="1085" on="1"/>
        <pt x="150" y="1085" on="1"/>
        <pt x="150" y="1245" on="1"/>
        <pt x="925" y="1245" on="1"/>
        <pt x="925" y="1085" on="1"/>
        <pt x="647" y="1085" on="1"/>
        <pt x="647" y="160" on="1"/>
        <pt x="915" y="160" on="1"/>
        <pt x="915" y="0" on="1"/>
        <pt x="140" y="0" on="1"/>
      </contour>
      <contour>
        <pt x="719" y="1015" on="1"/>
        <pt x="996" y="1015" on="1"/>
        <pt x="996" y="1195" on="1"/>
        <pt x="1036" y="1195" on="1"/>
        <pt x="1036" y="977" on="1"/>
        <pt x="759" y="977" on="1"/>
        <pt x="759" y="220" on="1"/>
        <pt x="719" y="220" on="1"/>
      </contour>
      <contour>
        <pt x="210" y="1015" on="1"/>
        <pt x="378" y="1015" on="1"/>
        <pt x="378" y="977" on="1"/>
        <pt x="210" y="977" on="1"/>
      </contour>
      <contour>
        <pt x="987" y="-70" on="1"/>
        <pt x="987" y="104" on="1"/>
        <pt x="1027" y="104" on="1"/>
        <pt x="1027" y="-108" on="1"/>
        <pt x="200" y="-108" on="1"/>
        <pt x="200" y="-70" on="1"/>
      </contour>
    </TTGlyph>
    <TTGlyph name="Idieresis" xMin="128" yMin="-108" xMax="1036" yMax="1660">
      <contour>
        <pt x="678" y="1660" on="1"/>
        <pt x="923" y="1660" on="1"/>
        <pt x="923" y="1460" on="1"/>
        <pt x="678" y="1460" on="1"/>
      </contour>
      <contour>
        <pt x="128" y="1660" on="1"/>
        <pt x="373" y="1660" on="1"/>
        <pt x="373" y="1460" on="1"/>
        <pt x="128" y="1460" on="1"/>
      </contour>
      <contour>
        <pt x="738" y="1390" on="1"/>
        <pt x="995" y="1390" on="1"/>
        <pt x="995" y="1604" on="1"/>
        <pt x="1035" y="1604" on="1"/>
        <pt x="1035" y="1352" on="1"/>
        <pt x="738" y="1352" on="1"/>
      </contour>
      <contour>
        <pt x="188" y="1390" on="1"/>
        <pt x="445" y="1390" on="1"/>
        <pt x="445" y="1604" on="1"/>
        <pt x="485" y="1604" on="1"/>
        <pt x="485" y="1352" on="1"/>
        <pt x="188" y="1352" on="1"/>
      </contour>
      <contour>
        <pt x="140" y="160" on="1"/>
        <pt x="420" y="160" on="1"/>
        <pt x="420" y="1085" on="1"/>
        <pt x="150" y="1085" on="1"/>
        <pt x="150" y="1245" on="1"/>
        <pt x="925" y="1245" on="1"/>
        <pt x="925" y="1085" on="1"/>
        <pt x="647" y="1085" on="1"/>
        <pt x="647" y="160" on="1"/>
        <pt x="915" y="160" on="1"/>
        <pt x="915" y="0" on="1"/>
        <pt x="140" y="0" on="1"/>
      </contour>
      <contour>
        <pt x="719" y="1015" on="1"/>
        <pt x="996" y="1015" on="1"/>
        <pt x="996" y="1195" on="1"/>
        <pt x="1036" y="1195" on="1"/>
        <pt x="1036" y="977" on="1"/>
        <pt x="759" y="977" on="1"/>
        <pt x="759" y="220" on="1"/>
        <pt x="719" y="220" on="1"/>
      </contour>
      <contour>
        <pt x="210" y="1015" on="1"/>
        <pt x="378" y="1015" on="1"/>
        <pt x="378" y="977" on="1"/>
        <pt x="210" y="977" on="1"/>
      </contour>
      <contour>
        <pt x="987" y="-70" on="1"/>
        <pt x="987" y="104" on="1"/>
        <pt x="1027" y="104" on="1"/>
        <pt x="1027" y="-108" on="1"/>
        <pt x="200" y="-108" on="1"/>
        <pt x="200" y="-70" on="1"/>
      </contour>
    </TTGlyph>
    <TTGlyph name="Igrave" xMin="140" yMin="-108" xMax="1036" yMax="1800">
      <contour>
        <pt x="194" y="1800" on="1"/>
        <pt x="449" y="1800" on="1"/>
        <pt x="689" y="1460" on="1"/>
        <pt x="494" y="1460" on="1"/>
      </contour>
      <contour>
        <pt x="623" y="1390" on="1"/>
        <pt x="825" y="1390" on="1"/>
        <pt x="568" y="1754" on="1"/>
        <pt x="617" y="1754" on="1"/>
        <pt x="901" y="1352" on="1"/>
        <pt x="653" y="1352" on="1"/>
      </contour>
      <contour>
        <pt x="140" y="160" on="1"/>
        <pt x="420" y="160" on="1"/>
        <pt x="420" y="1085" on="1"/>
        <pt x="150" y="1085" on="1"/>
        <pt x="150" y="1245" on="1"/>
        <pt x="925" y="1245" on="1"/>
        <pt x="925" y="1085" on="1"/>
        <pt x="647" y="1085" on="1"/>
        <pt x="647" y="160" on="1"/>
        <pt x="915" y="160" on="1"/>
        <pt x="915" y="0" on="1"/>
        <pt x="140" y="0" on="1"/>
      </contour>
      <contour>
        <pt x="719" y="1015" on="1"/>
        <pt x="996" y="1015" on="1"/>
        <pt x="996" y="1195" on="1"/>
        <pt x="1036" y="1195" on="1"/>
        <pt x="1036" y="977" on="1"/>
        <pt x="759" y="977" on="1"/>
        <pt x="759" y="220" on="1"/>
        <pt x="719" y="220" on="1"/>
      </contour>
      <contour>
        <pt x="210" y="1015" on="1"/>
        <pt x="378" y="1015" on="1"/>
        <pt x="378" y="977" on="1"/>
        <pt x="210" y="977" on="1"/>
      </contour>
      <contour>
        <pt x="987" y="-70" on="1"/>
        <pt x="987" y="104" on="1"/>
        <pt x="1027" y="104" on="1"/>
        <pt x="1027" y="-108" on="1"/>
        <pt x="200" y="-108" on="1"/>
        <pt x="200" y="-70" on="1"/>
      </contour>
    </TTGlyph>
    <TTGlyph name="Itilde" xMin="68" yMin="-108" xMax="1101" yMax="1730">
      <contour>
        <pt x="68" y="1460" on="1"/>
        <pt x="84" y="1528" on="0"/>
        <pt x="153" y="1630" on="0"/>
        <pt x="244" y="1697" on="0"/>
        <pt x="349" y="1730" on="0"/>
        <pt x="402" y="1730" on="1"/>
        <pt x="423" y="1730" on="0"/>
        <pt x="464" y="1724" on="0"/>
        <pt x="510" y="1709" on="0"/>
        <pt x="567" y="1682" on="0"/>
        <pt x="604" y="1661" on="1"/>
        <pt x="640" y="1637" on="0"/>
        <pt x="689" y="1613" on="0"/>
        <pt x="720" y="1613" on="1"/>
        <pt x="754" y="1613" on="0"/>
        <pt x="812" y="1669" on="0"/>
        <pt x="826" y="1723" on="1"/>
        <pt x="998" y="1723" on="1"/>
        <pt x="983" y="1655" on="0"/>
        <pt x="922" y="1553" on="0"/>
        <pt x="844" y="1486" on="0"/>
        <pt x="753" y="1453" on="0"/>
        <pt x="708" y="1453" on="1"/>
        <pt x="691" y="1453" on="0"/>
        <pt x="658" y="1458" on="0"/>
        <pt x="621" y="1471" on="0"/>
        <pt x="574" y="1495" on="0"/>
        <pt x="544" y="1514" on="1"/>
        <pt x="513" y="1531" on="0"/>
        <pt x="470" y="1553" on="0"/>
        <pt x="436" y="1565" on="0"/>
        <pt x="407" y="1570" on="0"/>
        <pt x="389" y="1570" on="1"/>
        <pt x="340" y="1570" on="0"/>
        <pt x="259" y="1511" on="0"/>
        <pt x="240" y="1460" on="1"/>
      </contour>
      <contour>
        <pt x="111" y="1390" on="1"/>
        <pt x="286" y="1390" on="1"/>
        <pt x="293" y="1452" on="0"/>
        <pt x="354" y="1500" on="0"/>
        <pt x="396" y="1500" on="1"/>
        <pt x="419" y="1500" on="0"/>
        <pt x="480" y="1471" on="0"/>
        <pt x="507" y="1456" on="1"/>
        <pt x="550" y="1432" on="0"/>
        <pt x="611" y="1404" on="0"/>
        <pt x="657" y="1388" on="0"/>
        <pt x="694" y="1383" on="0"/>
        <pt x="714" y="1383" on="1"/>
        <pt x="774" y="1383" on="0"/>
        <pt x="883" y="1423" on="0"/>
        <pt x="973" y="1498" on="0"/>
        <pt x="1041" y="1607" on="0"/>
        <pt x="1059" y="1675" on="1"/>
        <pt x="1101" y="1675" on="1"/>
        <pt x="1079" y="1595" on="0"/>
        <pt x="1002" y="1472" on="0"/>
        <pt x="901" y="1388" on="0"/>
        <pt x="780" y="1345" on="0"/>
        <pt x="714" y="1345" on="1"/>
        <pt x="692" y="1345" on="0"/>
        <pt x="646" y="1352" on="0"/>
        <pt x="592" y="1369" on="0"/>
        <pt x="527" y="1400" on="0"/>
        <pt x="485" y="1424" on="1"/>
        <pt x="449" y="1444" on="0"/>
        <pt x="408" y="1462" on="0"/>
        <pt x="394" y="1462" on="1"/>
        <pt x="378" y="1462" on="0"/>
        <pt x="353" y="1454" on="0"/>
        <pt x="335" y="1430" on="0"/>
        <pt x="325" y="1387" on="0"/>
        <pt x="323" y="1352" on="1"/>
        <pt x="105" y="1352" on="1"/>
      </contour>
      <contour>
        <pt x="140" y="160" on="1"/>
        <pt x="420" y="160" on="1"/>
        <pt x="420" y="1085" on="1"/>
        <pt x="150" y="1085" on="1"/>
        <pt x="150" y="1245" on="1"/>
        <pt x="925" y="1245" on="1"/>
        <pt x="925" y="1085" on="1"/>
        <pt x="647" y="1085" on="1"/>
        <pt x="647" y="160" on="1"/>
        <pt x="915" y="160" on="1"/>
        <pt x="915" y="0" on="1"/>
        <pt x="140" y="0" on="1"/>
      </contour>
      <contour>
        <pt x="719" y="1015" on="1"/>
        <pt x="996" y="1015" on="1"/>
        <pt x="996" y="1195" on="1"/>
        <pt x="1036" y="1195" on="1"/>
        <pt x="1036" y="977" on="1"/>
        <pt x="759" y="977" on="1"/>
        <pt x="759" y="220" on="1"/>
        <pt x="719" y="220" on="1"/>
      </contour>
      <contour>
        <pt x="210" y="1015" on="1"/>
        <pt x="378" y="1015" on="1"/>
        <pt x="378" y="977" on="1"/>
        <pt x="210" y="977" on="1"/>
      </contour>
      <contour>
        <pt x="987" y="-70" on="1"/>
        <pt x="987" y="104" on="1"/>
        <pt x="1027" y="104" on="1"/>
        <pt x="1027" y="-108" on="1"/>
        <pt x="200" y="-108" on="1"/>
        <pt x="200" y="-70" on="1"/>
      </contour>
    </TTGlyph>
    <TTGlyph name="J" xMin="86" yMin="-133" xMax="1533" yMax="1245">
      <contour>
        <pt x="283" y="382" on="1"/>
        <pt x="317" y="255" on="0"/>
        <pt x="510" y="135" on="0"/>
        <pt x="662" y="135" on="1"/>
        <pt x="711" y="135" on="0"/>
        <pt x="797" y="154" on="0"/>
        <pt x="866" y="193" on="0"/>
        <pt x="915" y="253" on="0"/>
        <pt x="927" y="294" on="1"/>
        <pt x="936" y="328" on="0"/>
        <pt x="944" y="436" on="0"/>
        <pt x="944" y="526" on="1"/>
        <pt x="944" y="1085" on="1"/>
        <pt x="467" y="1085" on="1"/>
        <pt x="467" y="1245" on="1"/>
        <pt x="1421" y="1245" on="1"/>
        <pt x="1421" y="1085" on="1"/>
        <pt x="1171" y="1085" on="1"/>
        <pt x="1171" y="518" on="1"/>
        <pt x="1171" y="428" on="0"/>
        <pt x="1157" y="297" on="0"/>
        <pt x="1143" y="255" on="1"/>
        <pt x="1119" y="181" on="0"/>
        <pt x="1031" y="74" on="0"/>
        <pt x="906" y="4" on="0"/>
        <pt x="747" y="-30" on="0"/>
        <pt x="653" y="-30" on="1"/>
        <pt x="525" y="-30" on="0"/>
        <pt x="335" y="14" on="0"/>
        <pt x="199" y="100" on="0"/>
        <pt x="111" y="226" on="0"/>
        <pt x="86" y="307" on="1"/>
      </contour>
      <contour>
        <pt x="203" y="23" on="1"/>
        <pt x="297" y="-37" on="0"/>
        <pt x="515" y="-95" on="0"/>
        <pt x="655" y="-95" on="1"/>
        <pt x="754" y="-95" on="0"/>
        <pt x="933" y="-57" on="0"/>
        <pt x="1079" y="24" on="0"/>
        <pt x="1187" y="151" on="0"/>
        <pt x="1216" y="240" on="1"/>
        <pt x="1229" y="285" on="0"/>
        <pt x="1243" y="416" on="0"/>
        <pt x="1243" y="518" on="1"/>
        <pt x="1243" y="1015" on="1"/>
        <pt x="1493" y="1015" on="1"/>
        <pt x="1493" y="1195" on="1"/>
        <pt x="1533" y="1195" on="1"/>
        <pt x="1533" y="977" on="1"/>
        <pt x="1283" y="977" on="1"/>
        <pt x="1283" y="515" on="1"/>
        <pt x="1283" y="410" on="0"/>
        <pt x="1269" y="273" on="0"/>
        <pt x="1253" y="222" on="1"/>
        <pt x="1223" y="133" on="0"/>
        <pt x="1111" y="-1" on="0"/>
        <pt x="959" y="-89" on="0"/>
        <pt x="773" y="-133" on="0"/>
        <pt x="669" y="-133" on="1"/>
        <pt x="586" y="-133" on="0"/>
        <pt x="449" y="-114" on="0"/>
        <pt x="335" y="-76" on="0"/>
        <pt x="242" y="-17" on="0"/>
      </contour>
      <contour>
        <pt x="527" y="1015" on="1"/>
        <pt x="902" y="1015" on="1"/>
        <pt x="902" y="977" on="1"/>
        <pt x="527" y="977" on="1"/>
      </contour>
      <contour>
        <pt x="416" y="353" on="1"/>
        <pt x="429" y="325" on="0"/>
        <pt x="469" y="278" on="0"/>
        <pt x="516" y="240" on="0"/>
        <pt x="566" y="213" on="0"/>
        <pt x="590" y="205" on="1"/>
        <pt x="511" y="214" on="0"/>
        <pt x="405" y="285" on="0"/>
        <pt x="378" y="339" on="1"/>
      </contour>
    </TTGlyph>
    <TTGlyph name="Jcircumflex" xMin="86" yMin="-133" xMax="1540" yMax="1800">
      <contour>
        <pt x="631" y="1800" on="1"/>
        <pt x="826" y="1800" on="1"/>
        <pt x="1037" y="1589" on="1"/>
        <pt x="1241" y="1800" on="1"/>
        <pt x="1436" y="1800" on="1"/>
        <pt x="1165" y="1460" on="1"/>
        <pt x="911" y="1460" on="1"/>
      </contour>
      <contour>
        <pt x="1014" y="1390" on="1"/>
        <pt x="1199" y="1390" on="1"/>
        <pt x="1489" y="1753" on="1"/>
        <pt x="1540" y="1753" on="1"/>
        <pt x="1220" y="1352" on="1"/>
        <pt x="1045" y="1352" on="1"/>
      </contour>
      <contour>
        <pt x="970" y="1753" on="1"/>
        <pt x="1025" y="1753" on="1"/>
        <pt x="1083" y="1695" on="1"/>
        <pt x="1056" y="1667" on="1"/>
      </contour>
      <contour>
        <pt x="283" y="382" on="1"/>
        <pt x="317" y="255" on="0"/>
        <pt x="510" y="135" on="0"/>
        <pt x="662" y="135" on="1"/>
        <pt x="711" y="135" on="0"/>
        <pt x="797" y="154" on="0"/>
        <pt x="866" y="193" on="0"/>
        <pt x="915" y="253" on="0"/>
        <pt x="927" y="294" on="1"/>
        <pt x="936" y="328" on="0"/>
        <pt x="944" y="436" on="0"/>
        <pt x="944" y="526" on="1"/>
        <pt x="944" y="1085" on="1"/>
        <pt x="467" y="1085" on="1"/>
        <pt x="467" y="1245" on="1"/>
        <pt x="1421" y="1245" on="1"/>
        <pt x="1421" y="1085" on="1"/>
        <pt x="1171" y="1085" on="1"/>
        <pt x="1171" y="518" on="1"/>
        <pt x="1171" y="428" on="0"/>
        <pt x="1157" y="297" on="0"/>
        <pt x="1143" y="255" on="1"/>
        <pt x="1119" y="181" on="0"/>
        <pt x="1031" y="74" on="0"/>
        <pt x="906" y="4" on="0"/>
        <pt x="747" y="-30" on="0"/>
        <pt x="653" y="-30" on="1"/>
        <pt x="525" y="-30" on="0"/>
        <pt x="335" y="14" on="0"/>
        <pt x="199" y="100" on="0"/>
        <pt x="111" y="226" on="0"/>
        <pt x="86" y="307" on="1"/>
      </contour>
      <contour>
        <pt x="203" y="23" on="1"/>
        <pt x="297" y="-37" on="0"/>
        <pt x="515" y="-95" on="0"/>
        <pt x="655" y="-95" on="1"/>
        <pt x="754" y="-95" on="0"/>
        <pt x="933" y="-57" on="0"/>
        <pt x="1079" y="24" on="0"/>
        <pt x="1187" y="151" on="0"/>
        <pt x="1216" y="240" on="1"/>
        <pt x="1229" y="285" on="0"/>
        <pt x="1243" y="416" on="0"/>
        <pt x="1243" y="518" on="1"/>
        <pt x="1243" y="1015" on="1"/>
        <pt x="1493" y="1015" on="1"/>
        <pt x="1493" y="1195" on="1"/>
        <pt x="1533" y="1195" on="1"/>
        <pt x="1533" y="977" on="1"/>
        <pt x="1283" y="977" on="1"/>
        <pt x="1283" y="515" on="1"/>
        <pt x="1283" y="410" on="0"/>
        <pt x="1269" y="273" on="0"/>
        <pt x="1253" y="222" on="1"/>
        <pt x="1223" y="133" on="0"/>
        <pt x="1111" y="-1" on="0"/>
        <pt x="959" y="-89" on="0"/>
        <pt x="773" y="-133" on="0"/>
        <pt x="669" y="-133" on="1"/>
        <pt x="586" y="-133" on="0"/>
        <pt x="449" y="-114" on="0"/>
        <pt x="335" y="-76" on="0"/>
        <pt x="242" y="-17" on="0"/>
      </contour>
      <contour>
        <pt x="527" y="1015" on="1"/>
        <pt x="902" y="1015" on="1"/>
        <pt x="902" y="977" on="1"/>
        <pt x="527" y="977" on="1"/>
      </contour>
      <contour>
        <pt x="416" y="353" on="1"/>
        <pt x="429" y="325" on="0"/>
        <pt x="469" y="278" on="0"/>
        <pt x="516" y="240" on="0"/>
        <pt x="566" y="213" on="0"/>
        <pt x="590" y="205" on="1"/>
        <pt x="511" y="214" on="0"/>
        <pt x="405" y="285" on="0"/>
        <pt x="378" y="339" on="1"/>
      </contour>
    </TTGlyph>
    <TTGlyph name="K" xMin="150" yMin="-108" xMax="2071" yMax="1245">
      <contour>
        <pt x="150" y="160" on="1"/>
        <pt x="420" y="160" on="1"/>
        <pt x="420" y="1085" on="1"/>
        <pt x="150" y="1085" on="1"/>
        <pt x="150" y="1245" on="1"/>
        <pt x="915" y="1245" on="1"/>
        <pt x="915" y="1085" on="1"/>
        <pt x="647" y="1085" on="1"/>
        <pt x="647" y="549" on="1"/>
        <pt x="1476" y="1085" on="1"/>
        <pt x="1199" y="1085" on="1"/>
        <pt x="1199" y="1245" on="1"/>
        <pt x="1929" y="1245" on="1"/>
        <pt x="1929" y="1085" on="1"/>
        <pt x="1705" y="1085" on="1"/>
        <pt x="1101" y="692" on="1"/>
        <pt x="1690" y="160" on="1"/>
        <pt x="1959" y="160" on="1"/>
        <pt x="1959" y="0" on="1"/>
        <pt x="1209" y="0" on="1"/>
        <pt x="1209" y="160" on="1"/>
        <pt x="1384" y="160" on="1"/>
        <pt x="924" y="577" on="1"/>
        <pt x="647" y="396" on="1"/>
        <pt x="647" y="160" on="1"/>
        <pt x="915" y="160" on="1"/>
        <pt x="915" y="0" on="1"/>
        <pt x="150" y="0" on="1"/>
      </contour>
      <contour>
        <pt x="1728" y="1015" on="1"/>
        <pt x="2001" y="1015" on="1"/>
        <pt x="2001" y="1194" on="1"/>
        <pt x="2041" y="1194" on="1"/>
        <pt x="2041" y="977" on="1"/>
        <pt x="1741" y="977" on="1"/>
        <pt x="1284" y="679" on="1"/>
        <pt x="1787" y="220" on="1"/>
        <pt x="1728" y="220" on="1"/>
        <pt x="1216" y="682" on="1"/>
      </contour>
      <contour>
        <pt x="719" y="1015" on="1"/>
        <pt x="956" y="1015" on="1"/>
        <pt x="956" y="1194" on="1"/>
        <pt x="996" y="1194" on="1"/>
        <pt x="996" y="977" on="1"/>
        <pt x="759" y="977" on="1"/>
        <pt x="759" y="669" on="1"/>
        <pt x="719" y="643" on="1"/>
      </contour>
      <contour>
        <pt x="210" y="1015" on="1"/>
        <pt x="378" y="1015" on="1"/>
        <pt x="378" y="977" on="1"/>
        <pt x="210" y="977" on="1"/>
      </contour>
      <contour>
        <pt x="719" y="358" on="1"/>
        <pt x="941" y="504" on="1"/>
        <pt x="970" y="477" on="1"/>
        <pt x="759" y="338" on="1"/>
        <pt x="759" y="220" on="1"/>
        <pt x="719" y="220" on="1"/>
      </contour>
      <contour>
        <pt x="2029" y="-70" on="1"/>
        <pt x="2029" y="104" on="1"/>
        <pt x="2071" y="104" on="1"/>
        <pt x="2071" y="-108" on="1"/>
        <pt x="1252" y="-108" on="1"/>
        <pt x="1252" y="-70" on="1"/>
      </contour>
      <contour>
        <pt x="987" y="-70" on="1"/>
        <pt x="987" y="104" on="1"/>
        <pt x="1027" y="104" on="1"/>
        <pt x="1027" y="-108" on="1"/>
        <pt x="210" y="-108" on="1"/>
        <pt x="210" y="-70" on="1"/>
      </contour>
    </TTGlyph>
    <TTGlyph name="L" xMin="143" yMin="-108" xMax="1679" yMax="1245">
      <contour>
        <pt x="160" y="160" on="1"/>
        <pt x="420" y="160" on="1"/>
        <pt x="420" y="1085" on="1"/>
        <pt x="143" y="1085" on="1"/>
        <pt x="143" y="1245" on="1"/>
        <pt x="927" y="1245" on="1"/>
        <pt x="927" y="1085" on="1"/>
        <pt x="647" y="1085" on="1"/>
        <pt x="647" y="160" on="1"/>
        <pt x="1342" y="160" on="1"/>
        <pt x="1342" y="450" on="1"/>
        <pt x="1567" y="450" on="1"/>
        <pt x="1567" y="0" on="1"/>
        <pt x="160" y="0" on="1"/>
      </contour>
      <contour>
        <pt x="719" y="1005" on="1"/>
        <pt x="998" y="1005" on="1"/>
        <pt x="998" y="1195" on="1"/>
        <pt x="1038" y="1195" on="1"/>
        <pt x="1038" y="967" on="1"/>
        <pt x="759" y="967" on="1"/>
        <pt x="759" y="220" on="1"/>
        <pt x="719" y="220" on="1"/>
      </contour>
      <contour>
        <pt x="203" y="1005" on="1"/>
        <pt x="378" y="1005" on="1"/>
        <pt x="378" y="967" on="1"/>
        <pt x="203" y="967" on="1"/>
      </contour>
      <contour>
        <pt x="1639" y="-70" on="1"/>
        <pt x="1639" y="394" on="1"/>
        <pt x="1679" y="394" on="1"/>
        <pt x="1679" y="-108" on="1"/>
        <pt x="220" y="-108" on="1"/>
        <pt x="220" y="-70" on="1"/>
      </contour>
    </TTGlyph>
    <TTGlyph name="Lslash" xMin="143" yMin="-108" xMax="1679" yMax="1245">
      <contour>
        <pt x="167" y="160" on="1"/>
        <pt x="421" y="160" on="1"/>
        <pt x="421" y="493" on="1"/>
        <pt x="194" y="414" on="1"/>
        <pt x="194" y="569" on="1"/>
        <pt x="421" y="648" on="1"/>
        <pt x="421" y="1085" on="1"/>
        <pt x="143" y="1085" on="1"/>
        <pt x="143" y="1245" on="1"/>
        <pt x="927" y="1245" on="1"/>
        <pt x="927" y="1085" on="1"/>
        <pt x="647" y="1085" on="1"/>
        <pt x="647" y="726" on="1"/>
        <pt x="1062" y="871" on="1"/>
        <pt x="1062" y="716" on="1"/>
        <pt x="647" y="571" on="1"/>
        <pt x="647" y="160" on="1"/>
        <pt x="1342" y="160" on="1"/>
        <pt x="1342" y="450" on="1"/>
        <pt x="1567" y="450" on="1"/>
        <pt x="1567" y="0" on="1"/>
        <pt x="167" y="0" on="1"/>
      </contour>
      <contour>
        <pt x="719" y="1005" on="1"/>
        <pt x="998" y="1005" on="1"/>
        <pt x="998" y="1195" on="1"/>
        <pt x="1038" y="1195" on="1"/>
        <pt x="1038" y="967" on="1"/>
        <pt x="759" y="967" on="1"/>
        <pt x="759" y="821" on="1"/>
        <pt x="719" y="808" on="1"/>
      </contour>
      <contour>
        <pt x="203" y="1005" on="1"/>
        <pt x="378" y="1005" on="1"/>
        <pt x="378" y="967" on="1"/>
        <pt x="203" y="967" on="1"/>
      </contour>
      <contour>
        <pt x="719" y="517" on="1"/>
        <pt x="1134" y="664" on="1"/>
        <pt x="1134" y="835" on="1"/>
        <pt x="1174" y="846" on="1"/>
        <pt x="1174" y="636" on="1"/>
        <pt x="759" y="489" on="1"/>
        <pt x="759" y="220" on="1"/>
        <pt x="719" y="220" on="1"/>
      </contour>
      <contour>
        <pt x="254" y="359" on="1"/>
        <pt x="385" y="405" on="1"/>
        <pt x="385" y="364" on="1"/>
        <pt x="254" y="318" on="1"/>
      </contour>
      <contour>
        <pt x="1639" y="-70" on="1"/>
        <pt x="1639" y="394" on="1"/>
        <pt x="1679" y="394" on="1"/>
        <pt x="1679" y="-108" on="1"/>
        <pt x="227" y="-108" on="1"/>
        <pt x="227" y="-70" on="1"/>
      </contour>
    </TTGlyph>
    <TTGlyph name="M" xMin="150" yMin="-108" xMax="2467" yMax="1245">
      <contour>
        <pt x="150" y="160" on="1"/>
        <pt x="420" y="160" on="1"/>
        <pt x="420" y="1085" on="1"/>
        <pt x="150" y="1085" on="1"/>
        <pt x="150" y="1245" on="1"/>
        <pt x="800" y="1245" on="1"/>
        <pt x="1269" y="415" on="1"/>
        <pt x="1705" y="1245" on="1"/>
        <pt x="2355" y="1245" on="1"/>
        <pt x="2355" y="1085" on="1"/>
        <pt x="2087" y="1085" on="1"/>
        <pt x="2087" y="160" on="1"/>
        <pt x="2355" y="160" on="1"/>
        <pt x="2355" y="0" on="1"/>
        <pt x="1630" y="0" on="1"/>
        <pt x="1630" y="160" on="1"/>
        <pt x="1860" y="160" on="1"/>
        <pt x="1860" y="1094" on="1"/>
        <pt x="1323" y="71" on="1"/>
        <pt x="1202" y="71" on="1"/>
        <pt x="647" y="1062" on="1"/>
        <pt x="647" y="160" on="1"/>
        <pt x="875" y="160" on="1"/>
        <pt x="875" y="0" on="1"/>
        <pt x="150" y="0" on="1"/>
      </contour>
      <contour>
        <pt x="2157" y="1015" on="1"/>
        <pt x="2427" y="1015" on="1"/>
        <pt x="2427" y="1195" on="1"/>
        <pt x="2467" y="1195" on="1"/>
        <pt x="2467" y="977" on="1"/>
        <pt x="2197" y="977" on="1"/>
        <pt x="2197" y="220" on="1"/>
        <pt x="2157" y="220" on="1"/>
      </contour>
      <contour>
        <pt x="913" y="1194" on="1"/>
        <pt x="957" y="1194" on="1"/>
        <pt x="1306" y="582" on="1"/>
        <pt x="1283" y="540" on="1"/>
      </contour>
      <contour>
        <pt x="210" y="1015" on="1"/>
        <pt x="378" y="1015" on="1"/>
        <pt x="378" y="977" on="1"/>
        <pt x="210" y="977" on="1"/>
      </contour>
      <contour>
        <pt x="1370" y="0" on="1"/>
        <pt x="1812" y="844" on="1"/>
        <pt x="1812" y="761" on="1"/>
        <pt x="1396" y="-38" on="1"/>
        <pt x="1293" y="-38" on="1"/>
        <pt x="1272" y="0" on="1"/>
      </contour>
      <contour>
        <pt x="717" y="832" on="1"/>
        <pt x="757" y="761" on="1"/>
        <pt x="757" y="220" on="1"/>
        <pt x="717" y="220" on="1"/>
      </contour>
      <contour>
        <pt x="2427" y="-70" on="1"/>
        <pt x="2427" y="104" on="1"/>
        <pt x="2467" y="104" on="1"/>
        <pt x="2467" y="-108" on="1"/>
        <pt x="1690" y="-108" on="1"/>
        <pt x="1690" y="-70" on="1"/>
      </contour>
      <contour>
        <pt x="947" y="-70" on="1"/>
        <pt x="947" y="104" on="1"/>
        <pt x="987" y="104" on="1"/>
        <pt x="987" y="-108" on="1"/>
        <pt x="210" y="-108" on="1"/>
        <pt x="210" y="-70" on="1"/>
      </contour>
    </TTGlyph>
    <TTGlyph name="N" xMin="150" yMin="-108" xMax="2217" yMax="1245">
      <contour>
        <pt x="170" y="160" on="1"/>
        <pt x="420" y="160" on="1"/>
        <pt x="420" y="1085" on="1"/>
        <pt x="150" y="1085" on="1"/>
        <pt x="150" y="1245" on="1"/>
        <pt x="735" y="1245" on="1"/>
        <pt x="1610" y="338" on="1"/>
        <pt x="1610" y="1085" on="1"/>
        <pt x="1340" y="1085" on="1"/>
        <pt x="1340" y="1245" on="1"/>
        <pt x="2105" y="1245" on="1"/>
        <pt x="2105" y="1085" on="1"/>
        <pt x="1835" y="1085" on="1"/>
        <pt x="1835" y="0" on="1"/>
        <pt x="1620" y="0" on="1"/>
        <pt x="645" y="1032" on="1"/>
        <pt x="645" y="160" on="1"/>
        <pt x="915" y="160" on="1"/>
        <pt x="915" y="0" on="1"/>
        <pt x="170" y="0" on="1"/>
      </contour>
      <contour>
        <pt x="1907" y="-70" on="1"/>
        <pt x="1907" y="1015" on="1"/>
        <pt x="2177" y="1015" on="1"/>
        <pt x="2177" y="1195" on="1"/>
        <pt x="2217" y="1195" on="1"/>
        <pt x="2217" y="977" on="1"/>
        <pt x="1947" y="977" on="1"/>
        <pt x="1947" y="-108" on="1"/>
        <pt x="1680" y="-108" on="1"/>
        <pt x="1680" y="-70" on="1"/>
      </contour>
      <contour>
        <pt x="928" y="1195" on="1"/>
        <pt x="1571" y="547" on="1"/>
        <pt x="1571" y="489" on="1"/>
        <pt x="875" y="1195" on="1"/>
      </contour>
      <contour>
        <pt x="1400" y="1015" on="1"/>
        <pt x="1568" y="1015" on="1"/>
        <pt x="1568" y="977" on="1"/>
        <pt x="1400" y="977" on="1"/>
      </contour>
      <contour>
        <pt x="210" y="1015" on="1"/>
        <pt x="378" y="977" on="1"/>
        <pt x="378" y="977" on="1"/>
        <pt x="210" y="977" on="1"/>
      </contour>
      <contour>
        <pt x="717" y="896" on="1"/>
        <pt x="757" y="852" on="1"/>
        <pt x="757" y="220" on="1"/>
        <pt x="717" y="220" on="1"/>
      </contour>
      <contour>
        <pt x="987" y="-70" on="1"/>
        <pt x="987" y="104" on="1"/>
        <pt x="1027" y="104" on="1"/>
        <pt x="1027" y="-108" on="1"/>
        <pt x="230" y="-108" on="1"/>
        <pt x="230" y="-70" on="1"/>
      </contour>
    </TTGlyph>
    <TTGlyph name="Nacute" xMin="150" yMin="-108" xMax="2217" yMax="1800">
      <contour>
        <pt x="1161" y="1800" on="1"/>
        <pt x="1416" y="1800" on="1"/>
        <pt x="1106" y="1460" on="1"/>
        <pt x="911" y="1460" on="1"/>
      </contour>
      <contour>
        <pt x="971" y="1390" on="1"/>
        <pt x="1138" y="1390" on="1"/>
        <pt x="1462" y="1744" on="1"/>
        <pt x="1515" y="1744" on="1"/>
        <pt x="1157" y="1352" on="1"/>
        <pt x="943" y="1352" on="1"/>
      </contour>
      <contour>
        <pt x="170" y="160" on="1"/>
        <pt x="420" y="160" on="1"/>
        <pt x="420" y="1085" on="1"/>
        <pt x="150" y="1085" on="1"/>
        <pt x="150" y="1245" on="1"/>
        <pt x="735" y="1245" on="1"/>
        <pt x="1610" y="338" on="1"/>
        <pt x="1610" y="1085" on="1"/>
        <pt x="1340" y="1085" on="1"/>
        <pt x="1340" y="1245" on="1"/>
        <pt x="2105" y="1245" on="1"/>
        <pt x="2105" y="1085" on="1"/>
        <pt x="1835" y="1085" on="1"/>
        <pt x="1835" y="0" on="1"/>
        <pt x="1620" y="0" on="1"/>
        <pt x="645" y="1032" on="1"/>
        <pt x="645" y="160" on="1"/>
        <pt x="915" y="160" on="1"/>
        <pt x="915" y="0" on="1"/>
        <pt x="170" y="0" on="1"/>
      </contour>
      <contour>
        <pt x="1907" y="-70" on="1"/>
        <pt x="1907" y="1015" on="1"/>
        <pt x="2177" y="1015" on="1"/>
        <pt x="2177" y="1195" on="1"/>
        <pt x="2217" y="1195" on="1"/>
        <pt x="2217" y="977" on="1"/>
        <pt x="1947" y="977" on="1"/>
        <pt x="1947" y="-108" on="1"/>
        <pt x="1680" y="-108" on="1"/>
        <pt x="1680" y="-70" on="1"/>
      </contour>
      <contour>
        <pt x="928" y="1195" on="1"/>
        <pt x="1571" y="547" on="1"/>
        <pt x="1571" y="489" on="1"/>
        <pt x="875" y="1195" on="1"/>
      </contour>
      <contour>
        <pt x="1400" y="1015" on="1"/>
        <pt x="1568" y="1015" on="1"/>
        <pt x="1568" y="977" on="1"/>
        <pt x="1400" y="977" on="1"/>
      </contour>
      <contour>
        <pt x="210" y="1015" on="1"/>
        <pt x="378" y="977" on="1"/>
        <pt x="378" y="977" on="1"/>
        <pt x="210" y="977" on="1"/>
      </contour>
      <contour>
        <pt x="717" y="896" on="1"/>
        <pt x="757" y="852" on="1"/>
        <pt x="757" y="220" on="1"/>
        <pt x="717" y="220" on="1"/>
      </contour>
      <contour>
        <pt x="987" y="-70" on="1"/>
        <pt x="987" y="104" on="1"/>
        <pt x="1027" y="104" on="1"/>
        <pt x="1027" y="-108" on="1"/>
        <pt x="230" y="-108" on="1"/>
        <pt x="230" y="-70" on="1"/>
      </contour>
    </TTGlyph>
    <TTGlyph name="Ntilde" xMin="150" yMin="-108" xMax="2217" yMax="1730">
      <contour>
        <pt x="639" y="1460" on="1"/>
        <pt x="655" y="1528" on="0"/>
        <pt x="724" y="1630" on="0"/>
        <pt x="815" y="1697" on="0"/>
        <pt x="920" y="1730" on="0"/>
        <pt x="973" y="1730" on="1"/>
        <pt x="994" y="1730" on="0"/>
        <pt x="1035" y="1724" on="0"/>
        <pt x="1081" y="1709" on="0"/>
        <pt x="1138" y="1682" on="0"/>
        <pt x="1175" y="1661" on="1"/>
        <pt x="1211" y="1637" on="0"/>
        <pt x="1260" y="1613" on="0"/>
        <pt x="1291" y="1613" on="1"/>
        <pt x="1325" y="1613" on="0"/>
        <pt x="1383" y="1669" on="0"/>
        <pt x="1397" y="1723" on="1"/>
        <pt x="1569" y="1723" on="1"/>
        <pt x="1554" y="1655" on="0"/>
        <pt x="1493" y="1553" on="0"/>
        <pt x="1415" y="1486" on="0"/>
        <pt x="1324" y="1453" on="0"/>
        <pt x="1279" y="1453" on="1"/>
        <pt x="1262" y="1453" on="0"/>
        <pt x="1229" y="1458" on="0"/>
        <pt x="1192" y="1471" on="0"/>
        <pt x="1145" y="1495" on="0"/>
        <pt x="1115" y="1514" on="1"/>
        <pt x="1084" y="1531" on="0"/>
        <pt x="1041" y="1553" on="0"/>
        <pt x="1007" y="1565" on="0"/>
        <pt x="978" y="1570" on="0"/>
        <pt x="960" y="1570" on="1"/>
        <pt x="911" y="1570" on="0"/>
        <pt x="830" y="1511" on="0"/>
        <pt x="811" y="1460" on="1"/>
      </contour>
      <contour>
        <pt x="682" y="1390" on="1"/>
        <pt x="857" y="1390" on="1"/>
        <pt x="864" y="1452" on="0"/>
        <pt x="925" y="1500" on="0"/>
        <pt x="967" y="1500" on="1"/>
        <pt x="990" y="1500" on="0"/>
        <pt x="1051" y="1471" on="0"/>
        <pt x="1078" y="1456" on="1"/>
        <pt x="1121" y="1432" on="0"/>
        <pt x="1182" y="1404" on="0"/>
        <pt x="1228" y="1388" on="0"/>
        <pt x="1265" y="1383" on="0"/>
        <pt x="1285" y="1383" on="1"/>
        <pt x="1345" y="1383" on="0"/>
        <pt x="1454" y="1423" on="0"/>
        <pt x="1544" y="1498" on="0"/>
        <pt x="1612" y="1607" on="0"/>
        <pt x="1630" y="1675" on="1"/>
        <pt x="1672" y="1675" on="1"/>
        <pt x="1650" y="1595" on="0"/>
        <pt x="1573" y="1472" on="0"/>
        <pt x="1472" y="1388" on="0"/>
        <pt x="1351" y="1345" on="0"/>
        <pt x="1285" y="1345" on="1"/>
        <pt x="1263" y="1345" on="0"/>
        <pt x="1217" y="1352" on="0"/>
        <pt x="1163" y="1369" on="0"/>
        <pt x="1098" y="1400" on="0"/>
        <pt x="1056" y="1424" on="1"/>
        <pt x="1020" y="1444" on="0"/>
        <pt x="979" y="1462" on="0"/>
        <pt x="965" y="1462" on="1"/>
        <pt x="949" y="1462" on="0"/>
        <pt x="924" y="1454" on="0"/>
        <pt x="906" y="1430" on="0"/>
        <pt x="896" y="1387" on="0"/>
        <pt x="894" y="1352" on="1"/>
        <pt x="676" y="1352" on="1"/>
      </contour>
      <contour>
        <pt x="170" y="160" on="1"/>
        <pt x="420" y="160" on="1"/>
        <pt x="420" y="1085" on="1"/>
        <pt x="150" y="1085" on="1"/>
        <pt x="150" y="1245" on="1"/>
        <pt x="735" y="1245" on="1"/>
        <pt x="1610" y="338" on="1"/>
        <pt x="1610" y="1085" on="1"/>
        <pt x="1340" y="1085" on="1"/>
        <pt x="1340" y="1245" on="1"/>
        <pt x="2105" y="1245" on="1"/>
        <pt x="2105" y="1085" on="1"/>
        <pt x="1835" y="1085" on="1"/>
        <pt x="1835" y="0" on="1"/>
        <pt x="1620" y="0" on="1"/>
        <pt x="645" y="1032" on="1"/>
        <pt x="645" y="160" on="1"/>
        <pt x="915" y="160" on="1"/>
        <pt x="915" y="0" on="1"/>
        <pt x="170" y="0" on="1"/>
      </contour>
      <contour>
        <pt x="1907" y="-70" on="1"/>
        <pt x="1907" y="1015" on="1"/>
        <pt x="2177" y="1015" on="1"/>
        <pt x="2177" y="1195" on="1"/>
        <pt x="2217" y="1195" on="1"/>
        <pt x="2217" y="977" on="1"/>
        <pt x="1947" y="977" on="1"/>
        <pt x="1947" y="-108" on="1"/>
        <pt x="1680" y="-108" on="1"/>
        <pt x="1680" y="-70" on="1"/>
      </contour>
      <contour>
        <pt x="928" y="1195" on="1"/>
        <pt x="1571" y="547" on="1"/>
        <pt x="1571" y="489" on="1"/>
        <pt x="875" y="1195" on="1"/>
      </contour>
      <contour>
        <pt x="1400" y="1015" on="1"/>
        <pt x="1568" y="1015" on="1"/>
        <pt x="1568" y="977" on="1"/>
        <pt x="1400" y="977" on="1"/>
      </contour>
      <contour>
        <pt x="210" y="1015" on="1"/>
        <pt x="378" y="977" on="1"/>
        <pt x="210" y="977" on="1"/>
      </contour>
      <contour>
        <pt x="717" y="896" on="1"/>
        <pt x="757" y="852" on="1"/>
        <pt x="757" y="220" on="1"/>
        <pt x="717" y="220" on="1"/>
      </contour>
      <contour>
        <pt x="987" y="-70" on="1"/>
        <pt x="987" y="104" on="1"/>
        <pt x="1027" y="104" on="1"/>
        <pt x="1027" y="-108" on="1"/>
        <pt x="230" y="-108" on="1"/>
        <pt x="230" y="-70" on="1"/>
      </contour>
    </TTGlyph>
    <TTGlyph name="O" xMin="110" yMin="-138" xMax="1806" yMax="1280">
      <contour>
        <pt x="110" y="601" on="1"/>
        <pt x="110" y="738" on="0"/>
        <pt x="217" y="985" on="0"/>
        <pt x="421" y="1171" on="0"/>
        <pt x="720" y="1280" on="0"/>
        <pt x="912" y="1280" on="1"/>
        <pt x="1112" y="1280" on="0"/>
        <pt x="1407" y="1181" on="0"/>
        <pt x="1600" y="1005" on="0"/>
        <pt x="1694" y="765" on="0"/>
        <pt x="1694" y="624" on="1"/>
        <pt x="1694" y="487" on="0"/>
        <pt x="1589" y="249" on="0"/>
        <pt x="1389" y="72" on="0"/>
        <pt x="1096" y="-30" on="0"/>
        <pt x="909" y="-30" on="1"/>
        <pt x="748" y="-30" on="0"/>
        <pt x="459" y="50" on="0"/>
        <pt x="239" y="209" on="0"/>
        <pt x="110" y="445" on="0"/>
      </contour>
      <contour>
        <pt x="331" y="68" on="1"/>
        <pt x="382" y="31" on="0"/>
        <pt x="511" y="-30" on="0"/>
        <pt x="660" y="-75" on="0"/>
        <pt x="824" y="-100" on="0"/>
        <pt x="909" y="-100" on="1"/>
        <pt x="1095" y="-100" on="0"/>
        <pt x="1409" y="1" on="0"/>
        <pt x="1637" y="190" on="0"/>
        <pt x="1766" y="457" on="0"/>
        <pt x="1766" y="624" on="1"/>
        <pt x="1766" y="707" on="0"/>
        <pt x="1721" y="870" on="0"/>
        <pt x="1639" y="1018" on="0"/>
        <pt x="1521" y="1146" on="0"/>
        <pt x="1448" y="1194" on="1"/>
        <pt x="1533" y="1155" on="0"/>
        <pt x="1666" y="1036" on="0"/>
        <pt x="1758" y="888" on="0"/>
        <pt x="1806" y="716" on="0"/>
        <pt x="1806" y="624" on="1"/>
        <pt x="1806" y="451" on="0"/>
        <pt x="1679" y="169" on="0"/>
        <pt x="1444" y="-30" on="0"/>
        <pt x="1113" y="-138" on="0"/>
        <pt x="909" y="-138" on="1"/>
        <pt x="720" y="-138" on="0"/>
        <pt x="428" y="-37" on="0"/>
      </contour>
      <contour>
        <pt x="360" y="609" on="1"/>
        <pt x="360" y="495" on="0"/>
        <pt x="442" y="317" on="0"/>
        <pt x="587" y="194" on="0"/>
        <pt x="784" y="130" on="0"/>
        <pt x="900" y="130" on="1"/>
        <pt x="1033" y="130" on="0"/>
        <pt x="1236" y="211" on="0"/>
        <pt x="1374" y="347" on="0"/>
        <pt x="1444" y="526" on="0"/>
        <pt x="1444" y="624" on="1"/>
        <pt x="1444" y="737" on="0"/>
        <pt x="1369" y="921" on="0"/>
        <pt x="1230" y="1050" on="0"/>
        <pt x="1031" y="1120" on="0"/>
        <pt x="907" y="1120" on="1"/>
        <pt x="787" y="1120" on="0"/>
        <pt x="586" y="1047" on="0"/>
        <pt x="441" y="913" on="0"/>
        <pt x="360" y="724" on="0"/>
      </contour>
      <contour>
        <pt x="432" y="606" on="1"/>
        <pt x="432" y="698" on="0"/>
        <pt x="495" y="860" on="0"/>
        <pt x="617" y="980" on="0"/>
        <pt x="793" y="1050" on="0"/>
        <pt x="907" y="1050" on="1"/>
        <pt x="1032" y="1050" on="0"/>
        <pt x="1224" y="959" on="0"/>
        <pt x="1290" y="874" on="1"/>
        <pt x="1196" y="951" on="0"/>
        <pt x="1009" y="1012" on="0"/>
        <pt x="907" y="1012" on="1"/>
        <pt x="804" y="1012" on="0"/>
        <pt x="642" y="948" on="0"/>
        <pt x="531" y="837" on="0"/>
        <pt x="472" y="689" on="0"/>
        <pt x="472" y="606" on="1"/>
        <pt x="472" y="540" on="0"/>
        <pt x="518" y="419" on="0"/>
        <pt x="604" y="315" on="0"/>
        <pt x="726" y="233" on="0"/>
        <pt x="803" y="205" on="1"/>
        <pt x="714" y="219" on="0"/>
        <pt x="575" y="292" on="0"/>
        <pt x="481" y="398" on="0"/>
        <pt x="432" y="531" on="0"/>
      </contour>
    </TTGlyph>
    <TTGlyph name="OE" xMin="110" yMin="-138" xMax="2784" yMax="1280">
      <contour>
        <pt x="110" y="601" on="1"/>
        <pt x="110" y="744" on="0"/>
        <pt x="226" y="992" on="0"/>
        <pt x="437" y="1175" on="0"/>
        <pt x="732" y="1280" on="0"/>
        <pt x="911" y="1280" on="1"/>
        <pt x="986" y="1280" on="0"/>
        <pt x="1138" y="1257" on="0"/>
        <pt x="1279" y="1211" on="0"/>
        <pt x="1405" y="1142" on="0"/>
        <pt x="1455" y="1096" on="1"/>
        <pt x="1455" y="1245" on="1"/>
        <pt x="2672" y="1245" on="1"/>
        <pt x="2672" y="855" on="1"/>
        <pt x="2447" y="855" on="1"/>
        <pt x="2447" y="1085" on="1"/>
        <pt x="1680" y="1085" on="1"/>
        <pt x="1680" y="691" on="1"/>
        <pt x="2192" y="691" on="1"/>
        <pt x="2192" y="566" on="1"/>
        <pt x="1680" y="566" on="1"/>
        <pt x="1680" y="160" on="1"/>
        <pt x="2447" y="160" on="1"/>
        <pt x="2447" y="390" on="1"/>
        <pt x="2672" y="390" on="1"/>
        <pt x="2672" y="0" on="1"/>
        <pt x="1455" y="0" on="1"/>
        <pt x="1455" y="171" on="1"/>
        <pt x="1352" y="74" on="0"/>
        <pt x="1083" y="-30" on="0"/>
        <pt x="909" y="-30" on="1"/>
        <pt x="810" y="-30" on="0"/>
        <pt x="615" y="6" on="0"/>
        <pt x="438" y="77" on="0"/>
        <pt x="285" y="182" on="0"/>
        <pt x="174" y="323" on="0"/>
        <pt x="110" y="497" on="0"/>
      </contour>
      <contour>
        <pt x="2507" y="785" on="1"/>
        <pt x="2744" y="785" on="1"/>
        <pt x="2744" y="1195" on="1"/>
        <pt x="2784" y="1195" on="1"/>
        <pt x="2784" y="747" on="1"/>
        <pt x="2507" y="747" on="1"/>
      </contour>
      <contour>
        <pt x="350" y="609" on="1"/>
        <pt x="350" y="495" on="0"/>
        <pt x="441" y="317" on="0"/>
        <pt x="593" y="194" on="0"/>
        <pt x="792" y="130" on="0"/>
        <pt x="900" y="130" on="1"/>
        <pt x="1025" y="130" on="0"/>
        <pt x="1229" y="211" on="0"/>
        <pt x="1375" y="347" on="0"/>
        <pt x="1454" y="526" on="0"/>
        <pt x="1454" y="624" on="1"/>
        <pt x="1454" y="737" on="0"/>
        <pt x="1371" y="921" on="0"/>
        <pt x="1224" y="1050" on="0"/>
        <pt x="1024" y="1120" on="0"/>
        <pt x="907" y="1120" on="1"/>
        <pt x="794" y="1120" on="0"/>
        <pt x="592" y="1047" on="0"/>
        <pt x="439" y="913" on="0"/>
        <pt x="350" y="724" on="0"/>
      </contour>
      <contour>
        <pt x="422" y="606" on="1"/>
        <pt x="422" y="698" on="0"/>
        <pt x="493" y="860" on="0"/>
        <pt x="621" y="980" on="0"/>
        <pt x="800" y="1050" on="0"/>
        <pt x="907" y="1050" on="1"/>
        <pt x="965" y="1050" on="0"/>
        <pt x="1078" y="1026" on="0"/>
        <pt x="1180" y="981" on="0"/>
        <pt x="1267" y="916" on="0"/>
        <pt x="1300" y="874" on="1"/>
        <pt x="1203" y="951" on="0"/>
        <pt x="1003" y="1012" on="0"/>
        <pt x="907" y="1012" on="1"/>
        <pt x="809" y="1012" on="0"/>
        <pt x="646" y="948" on="0"/>
        <pt x="528" y="837" on="0"/>
        <pt x="462" y="689" on="0"/>
        <pt x="462" y="606" on="1"/>
        <pt x="462" y="540" on="0"/>
        <pt x="509" y="419" on="0"/>
        <pt x="598" y="316" on="0"/>
        <pt x="724" y="233" on="0"/>
        <pt x="803" y="205" on="1"/>
        <pt x="711" y="219" on="0"/>
        <pt x="570" y="292" on="0"/>
        <pt x="472" y="398" on="0"/>
        <pt x="422" y="531" on="0"/>
      </contour>
      <contour>
        <pt x="1752" y="1015" on="1"/>
        <pt x="2405" y="1015" on="1"/>
        <pt x="2405" y="977" on="1"/>
        <pt x="1792" y="977" on="1"/>
        <pt x="1792" y="751" on="1"/>
        <pt x="1752" y="751" on="1"/>
      </contour>
      <contour>
        <pt x="1752" y="496" on="1"/>
        <pt x="2263" y="496" on="1"/>
        <pt x="2263" y="641" on="1"/>
        <pt x="2303" y="641" on="1"/>
        <pt x="2303" y="458" on="1"/>
        <pt x="1792" y="458" on="1"/>
        <pt x="1792" y="220" on="1"/>
        <pt x="1752" y="220" on="1"/>
      </contour>
      <contour>
        <pt x="2744" y="-70" on="1"/>
        <pt x="2744" y="334" on="1"/>
        <pt x="2784" y="334" on="1"/>
        <pt x="2784" y="-108" on="1"/>
        <pt x="1515" y="-108" on="1"/>
        <pt x="1515" y="-70" on="1"/>
      </contour>
      <contour>
        <pt x="331" y="68" on="1"/>
        <pt x="382" y="31" on="0"/>
        <pt x="516" y="-30" on="0"/>
        <pt x="668" y="-75" on="0"/>
        <pt x="830" y="-100" on="0"/>
        <pt x="909" y="-100" on="1"/>
        <pt x="1043" y="-100" on="0"/>
        <pt x="1289" y="-40" on="0"/>
        <pt x="1395" y="36" on="1"/>
        <pt x="1395" y="-13" on="1"/>
        <pt x="1290" y="-81" on="0"/>
        <pt x="1052" y="-138" on="0"/>
        <pt x="909" y="-138" on="1"/>
        <pt x="823" y="-138" on="0"/>
        <pt x="657" y="-112" on="0"/>
        <pt x="507" y="-61" on="0"/>
        <pt x="379" y="16" on="0"/>
      </contour>
    </TTGlyph>
    <TTGlyph name="Oacute" xMin="110" yMin="-138" xMax="1806" yMax="1800">
      <contour>
        <pt x="984" y="1800" on="1"/>
        <pt x="1239" y="1800" on="1"/>
        <pt x="929" y="1460" on="1"/>
        <pt x="734" y="1460" on="1"/>
      </contour>
      <contour>
        <pt x="794" y="1390" on="1"/>
        <pt x="961" y="1390" on="1"/>
        <pt x="1285" y="1744" on="1"/>
        <pt x="1338" y="1744" on="1"/>
        <pt x="980" y="1352" on="1"/>
        <pt x="766" y="1352" on="1"/>
      </contour>
      <contour>
        <pt x="110" y="601" on="1"/>
        <pt x="110" y="738" on="0"/>
        <pt x="217" y="985" on="0"/>
        <pt x="421" y="1171" on="0"/>
        <pt x="720" y="1280" on="0"/>
        <pt x="912" y="1280" on="1"/>
        <pt x="1112" y="1280" on="0"/>
        <pt x="1407" y="1181" on="0"/>
        <pt x="1600" y="1005" on="0"/>
        <pt x="1694" y="765" on="0"/>
        <pt x="1694" y="624" on="1"/>
        <pt x="1694" y="487" on="0"/>
        <pt x="1589" y="249" on="0"/>
        <pt x="1389" y="72" on="0"/>
        <pt x="1096" y="-30" on="0"/>
        <pt x="909" y="-30" on="1"/>
        <pt x="748" y="-30" on="0"/>
        <pt x="459" y="50" on="0"/>
        <pt x="239" y="209" on="0"/>
        <pt x="110" y="445" on="0"/>
      </contour>
      <contour>
        <pt x="331" y="68" on="1"/>
        <pt x="382" y="31" on="0"/>
        <pt x="511" y="-30" on="0"/>
        <pt x="660" y="-75" on="0"/>
        <pt x="824" y="-100" on="0"/>
        <pt x="909" y="-100" on="1"/>
        <pt x="1095" y="-100" on="0"/>
        <pt x="1409" y="1" on="0"/>
        <pt x="1637" y="190" on="0"/>
        <pt x="1766" y="457" on="0"/>
        <pt x="1766" y="624" on="1"/>
        <pt x="1766" y="707" on="0"/>
        <pt x="1721" y="870" on="0"/>
        <pt x="1639" y="1018" on="0"/>
        <pt x="1521" y="1146" on="0"/>
        <pt x="1448" y="1194" on="1"/>
        <pt x="1533" y="1155" on="0"/>
        <pt x="1666" y="1036" on="0"/>
        <pt x="1758" y="888" on="0"/>
        <pt x="1806" y="716" on="0"/>
        <pt x="1806" y="624" on="1"/>
        <pt x="1806" y="451" on="0"/>
        <pt x="1679" y="169" on="0"/>
        <pt x="1444" y="-30" on="0"/>
        <pt x="1113" y="-138" on="0"/>
        <pt x="909" y="-138" on="1"/>
        <pt x="720" y="-138" on="0"/>
        <pt x="428" y="-37" on="0"/>
      </contour>
      <contour>
        <pt x="360" y="609" on="1"/>
        <pt x="360" y="495" on="0"/>
        <pt x="442" y="317" on="0"/>
        <pt x="587" y="194" on="0"/>
        <pt x="784" y="130" on="0"/>
        <pt x="900" y="130" on="1"/>
        <pt x="1033" y="130" on="0"/>
        <pt x="1236" y="211" on="0"/>
        <pt x="1374" y="347" on="0"/>
        <pt x="1444" y="526" on="0"/>
        <pt x="1444" y="624" on="1"/>
        <pt x="1444" y="737" on="0"/>
        <pt x="1369" y="921" on="0"/>
        <pt x="1230" y="1050" on="0"/>
        <pt x="1031" y="1120" on="0"/>
        <pt x="907" y="1120" on="1"/>
        <pt x="787" y="1120" on="0"/>
        <pt x="586" y="1047" on="0"/>
        <pt x="441" y="913" on="0"/>
        <pt x="360" y="724" on="0"/>
      </contour>
      <contour>
        <pt x="432" y="606" on="1"/>
        <pt x="432" y="698" on="0"/>
        <pt x="495" y="860" on="0"/>
        <pt x="617" y="980" on="0"/>
        <pt x="793" y="1050" on="0"/>
        <pt x="907" y="1050" on="1"/>
        <pt x="1032" y="1050" on="0"/>
        <pt x="1224" y="959" on="0"/>
        <pt x="1290" y="874" on="1"/>
        <pt x="1196" y="951" on="0"/>
        <pt x="1009" y="1012" on="0"/>
        <pt x="907" y="1012" on="1"/>
        <pt x="804" y="1012" on="0"/>
        <pt x="642" y="948" on="0"/>
        <pt x="531" y="837" on="0"/>
        <pt x="472" y="689" on="0"/>
        <pt x="472" y="606" on="1"/>
        <pt x="472" y="540" on="0"/>
        <pt x="518" y="419" on="0"/>
        <pt x="604" y="315" on="0"/>
        <pt x="726" y="233" on="0"/>
        <pt x="803" y="205" on="1"/>
        <pt x="714" y="219" on="0"/>
        <pt x="575" y="292" on="0"/>
        <pt x="481" y="398" on="0"/>
        <pt x="432" y="531" on="0"/>
      </contour>
    </TTGlyph>
    <TTGlyph name="Ocircumflex" xMin="110" yMin="-138" xMax="1806" yMax="1800">
      <contour>
        <pt x="771" y="1800" on="1"/>
        <pt x="1025" y="1800" on="1"/>
        <pt x="1296" y="1460" on="1"/>
        <pt x="1101" y="1460" on="1"/>
        <pt x="890" y="1677" on="1"/>
        <pt x="686" y="1460" on="1"/>
        <pt x="491" y="1460" on="1"/>
      </contour>
      <contour>
        <pt x="1211" y="1390" on="1"/>
        <pt x="1443" y="1390" on="1"/>
        <pt x="1152" y="1754" on="1"/>
        <pt x="1202" y="1754" on="1"/>
        <pt x="1523" y="1352" on="1"/>
        <pt x="1241" y="1352" on="1"/>
      </contour>
      <contour>
        <pt x="551" y="1390" on="1"/>
        <pt x="714" y="1390" on="1"/>
        <pt x="910" y="1592" on="1"/>
        <pt x="937" y="1563" on="1"/>
        <pt x="734" y="1352" on="1"/>
        <pt x="523" y="1352" on="1"/>
      </contour>
      <contour>
        <pt x="110" y="601" on="1"/>
        <pt x="110" y="738" on="0"/>
        <pt x="217" y="985" on="0"/>
        <pt x="421" y="1171" on="0"/>
        <pt x="720" y="1280" on="0"/>
        <pt x="912" y="1280" on="1"/>
        <pt x="1112" y="1280" on="0"/>
        <pt x="1407" y="1181" on="0"/>
        <pt x="1600" y="1005" on="0"/>
        <pt x="1694" y="765" on="0"/>
        <pt x="1694" y="624" on="1"/>
        <pt x="1694" y="487" on="0"/>
        <pt x="1589" y="249" on="0"/>
        <pt x="1389" y="72" on="0"/>
        <pt x="1096" y="-30" on="0"/>
        <pt x="909" y="-30" on="1"/>
        <pt x="748" y="-30" on="0"/>
        <pt x="459" y="50" on="0"/>
        <pt x="239" y="209" on="0"/>
        <pt x="110" y="445" on="0"/>
      </contour>
      <contour>
        <pt x="331" y="68" on="1"/>
        <pt x="382" y="31" on="0"/>
        <pt x="511" y="-30" on="0"/>
        <pt x="660" y="-75" on="0"/>
        <pt x="824" y="-100" on="0"/>
        <pt x="909" y="-100" on="1"/>
        <pt x="1095" y="-100" on="0"/>
        <pt x="1409" y="1" on="0"/>
        <pt x="1637" y="190" on="0"/>
        <pt x="1766" y="457" on="0"/>
        <pt x="1766" y="624" on="1"/>
        <pt x="1766" y="707" on="0"/>
        <pt x="1721" y="870" on="0"/>
        <pt x="1639" y="1018" on="0"/>
        <pt x="1521" y="1146" on="0"/>
        <pt x="1448" y="1194" on="1"/>
        <pt x="1533" y="1155" on="0"/>
        <pt x="1666" y="1036" on="0"/>
        <pt x="1758" y="888" on="0"/>
        <pt x="1806" y="716" on="0"/>
        <pt x="1806" y="624" on="1"/>
        <pt x="1806" y="451" on="0"/>
        <pt x="1679" y="169" on="0"/>
        <pt x="1444" y="-30" on="0"/>
        <pt x="1113" y="-138" on="0"/>
        <pt x="909" y="-138" on="1"/>
        <pt x="720" y="-138" on="0"/>
        <pt x="428" y="-37" on="0"/>
      </contour>
      <contour>
        <pt x="360" y="609" on="1"/>
        <pt x="360" y="495" on="0"/>
        <pt x="442" y="317" on="0"/>
        <pt x="587" y="194" on="0"/>
        <pt x="784" y="130" on="0"/>
        <pt x="900" y="130" on="1"/>
        <pt x="1033" y="130" on="0"/>
        <pt x="1236" y="211" on="0"/>
        <pt x="1374" y="347" on="0"/>
        <pt x="1444" y="526" on="0"/>
        <pt x="1444" y="624" on="1"/>
        <pt x="1444" y="737" on="0"/>
        <pt x="1369" y="921" on="0"/>
        <pt x="1230" y="1050" on="0"/>
        <pt x="1031" y="1120" on="0"/>
        <pt x="907" y="1120" on="1"/>
        <pt x="787" y="1120" on="0"/>
        <pt x="586" y="1047" on="0"/>
        <pt x="441" y="913" on="0"/>
        <pt x="360" y="724" on="0"/>
      </contour>
      <contour>
        <pt x="432" y="606" on="1"/>
        <pt x="432" y="698" on="0"/>
        <pt x="495" y="860" on="0"/>
        <pt x="617" y="980" on="0"/>
        <pt x="793" y="1050" on="0"/>
        <pt x="907" y="1050" on="1"/>
        <pt x="1032" y="1050" on="0"/>
        <pt x="1224" y="959" on="0"/>
        <pt x="1290" y="874" on="1"/>
        <pt x="1196" y="951" on="0"/>
        <pt x="1009" y="1012" on="0"/>
        <pt x="907" y="1012" on="1"/>
        <pt x="804" y="1012" on="0"/>
        <pt x="642" y="948" on="0"/>
        <pt x="531" y="837" on="0"/>
        <pt x="472" y="689" on="0"/>
        <pt x="472" y="606" on="1"/>
        <pt x="472" y="540" on="0"/>
        <pt x="518" y="419" on="0"/>
        <pt x="604" y="315" on="0"/>
        <pt x="726" y="233" on="0"/>
        <pt x="803" y="205" on="1"/>
        <pt x="714" y="219" on="0"/>
        <pt x="575" y="292" on="0"/>
        <pt x="481" y="398" on="0"/>
        <pt x="432" y="531" on="0"/>
      </contour>
    </TTGlyph>
    <TTGlyph name="Odieresis" xMin="110" yMin="-138" xMax="1806" yMax="1660">
      <contour>
        <pt x="1059" y="1660" on="1"/>
        <pt x="1304" y="1660" on="1"/>
        <pt x="1304" y="1460" on="1"/>
        <pt x="1059" y="1460" on="1"/>
      </contour>
      <contour>
        <pt x="449" y="1660" on="1"/>
        <pt x="694" y="1660" on="1"/>
        <pt x="694" y="1460" on="1"/>
        <pt x="449" y="1460" on="1"/>
      </contour>
      <contour>
        <pt x="1119" y="1390" on="1"/>
        <pt x="1376" y="1390" on="1"/>
        <pt x="1376" y="1604" on="1"/>
        <pt x="1416" y="1604" on="1"/>
        <pt x="1416" y="1352" on="1"/>
        <pt x="1119" y="1352" on="1"/>
      </contour>
      <contour>
        <pt x="509" y="1390" on="1"/>
        <pt x="766" y="1390" on="1"/>
        <pt x="766" y="1604" on="1"/>
        <pt x="806" y="1604" on="1"/>
        <pt x="806" y="1352" on="1"/>
        <pt x="509" y="1352" on="1"/>
      </contour>
      <contour>
        <pt x="110" y="601" on="1"/>
        <pt x="110" y="738" on="0"/>
        <pt x="217" y="985" on="0"/>
        <pt x="421" y="1171" on="0"/>
        <pt x="720" y="1280" on="0"/>
        <pt x="912" y="1280" on="1"/>
        <pt x="1112" y="1280" on="0"/>
        <pt x="1407" y="1181" on="0"/>
        <pt x="1600" y="1005" on="0"/>
        <pt x="1694" y="765" on="0"/>
        <pt x="1694" y="624" on="1"/>
        <pt x="1694" y="487" on="0"/>
        <pt x="1589" y="249" on="0"/>
        <pt x="1389" y="72" on="0"/>
        <pt x="1096" y="-30" on="0"/>
        <pt x="909" y="-30" on="1"/>
        <pt x="748" y="-30" on="0"/>
        <pt x="459" y="50" on="0"/>
        <pt x="239" y="209" on="0"/>
        <pt x="110" y="445" on="0"/>
      </contour>
      <contour>
        <pt x="331" y="68" on="1"/>
        <pt x="382" y="31" on="0"/>
        <pt x="511" y="-30" on="0"/>
        <pt x="660" y="-75" on="0"/>
        <pt x="824" y="-100" on="0"/>
        <pt x="909" y="-100" on="1"/>
        <pt x="1095" y="-100" on="0"/>
        <pt x="1409" y="1" on="0"/>
        <pt x="1637" y="190" on="0"/>
        <pt x="1766" y="457" on="0"/>
        <pt x="1766" y="624" on="1"/>
        <pt x="1766" y="707" on="0"/>
        <pt x="1721" y="870" on="0"/>
        <pt x="1639" y="1018" on="0"/>
        <pt x="1521" y="1146" on="0"/>
        <pt x="1448" y="1194" on="1"/>
        <pt x="1533" y="1155" on="0"/>
        <pt x="1666" y="1036" on="0"/>
        <pt x="1758" y="888" on="0"/>
        <pt x="1806" y="716" on="0"/>
        <pt x="1806" y="624" on="1"/>
        <pt x="1806" y="451" on="0"/>
        <pt x="1679" y="169" on="0"/>
        <pt x="1444" y="-30" on="0"/>
        <pt x="1113" y="-138" on="0"/>
        <pt x="909" y="-138" on="1"/>
        <pt x="720" y="-138" on="0"/>
        <pt x="428" y="-37" on="0"/>
      </contour>
      <contour>
        <pt x="360" y="609" on="1"/>
        <pt x="360" y="495" on="0"/>
        <pt x="442" y="317" on="0"/>
        <pt x="587" y="194" on="0"/>
        <pt x="784" y="130" on="0"/>
        <pt x="900" y="130" on="1"/>
        <pt x="1033" y="130" on="0"/>
        <pt x="1236" y="211" on="0"/>
        <pt x="1374" y="347" on="0"/>
        <pt x="1444" y="526" on="0"/>
        <pt x="1444" y="624" on="1"/>
        <pt x="1444" y="737" on="0"/>
        <pt x="1369" y="921" on="0"/>
        <pt x="1230" y="1050" on="0"/>
        <pt x="1031" y="1120" on="0"/>
        <pt x="907" y="1120" on="1"/>
        <pt x="787" y="1120" on="0"/>
        <pt x="586" y="1047" on="0"/>
        <pt x="441" y="913" on="0"/>
        <pt x="360" y="724" on="0"/>
      </contour>
      <contour>
        <pt x="432" y="606" on="1"/>
        <pt x="432" y="698" on="0"/>
        <pt x="495" y="860" on="0"/>
        <pt x="617" y="980" on="0"/>
        <pt x="793" y="1050" on="0"/>
        <pt x="907" y="1050" on="1"/>
        <pt x="1032" y="1050" on="0"/>
        <pt x="1224" y="959" on="0"/>
        <pt x="1290" y="874" on="1"/>
        <pt x="1196" y="951" on="0"/>
        <pt x="1009" y="1012" on="0"/>
        <pt x="907" y="1012" on="1"/>
        <pt x="804" y="1012" on="0"/>
        <pt x="642" y="948" on="0"/>
        <pt x="531" y="837" on="0"/>
        <pt x="472" y="689" on="0"/>
        <pt x="472" y="606" on="1"/>
        <pt x="472" y="540" on="0"/>
        <pt x="518" y="419" on="0"/>
        <pt x="604" y="315" on="0"/>
        <pt x="726" y="233" on="0"/>
        <pt x="803" y="205" on="1"/>
        <pt x="714" y="219" on="0"/>
        <pt x="575" y="292" on="0"/>
        <pt x="481" y="398" on="0"/>
        <pt x="432" y="531" on="0"/>
      </contour>
    </TTGlyph>
    <TTGlyph name="Ograve" xMin="110" yMin="-138" xMax="1806" yMax="1800">
      <contour>
        <pt x="553" y="1800" on="1"/>
        <pt x="808" y="1800" on="1"/>
        <pt x="1048" y="1460" on="1"/>
        <pt x="853" y="1460" on="1"/>
      </contour>
      <contour>
        <pt x="982" y="1390" on="1"/>
        <pt x="1184" y="1390" on="1"/>
        <pt x="927" y="1754" on="1"/>
        <pt x="976" y="1754" on="1"/>
        <pt x="1260" y="1352" on="1"/>
        <pt x="1012" y="1352" on="1"/>
      </contour>
      <contour>
        <pt x="110" y="601" on="1"/>
        <pt x="110" y="738" on="0"/>
        <pt x="217" y="985" on="0"/>
        <pt x="421" y="1171" on="0"/>
        <pt x="720" y="1280" on="0"/>
        <pt x="912" y="1280" on="1"/>
        <pt x="1112" y="1280" on="0"/>
        <pt x="1407" y="1181" on="0"/>
        <pt x="1600" y="1005" on="0"/>
        <pt x="1694" y="765" on="0"/>
        <pt x="1694" y="624" on="1"/>
        <pt x="1694" y="487" on="0"/>
        <pt x="1589" y="249" on="0"/>
        <pt x="1389" y="72" on="0"/>
        <pt x="1096" y="-30" on="0"/>
        <pt x="909" y="-30" on="1"/>
        <pt x="748" y="-30" on="0"/>
        <pt x="459" y="50" on="0"/>
        <pt x="239" y="209" on="0"/>
        <pt x="110" y="445" on="0"/>
      </contour>
      <contour>
        <pt x="331" y="68" on="1"/>
        <pt x="382" y="31" on="0"/>
        <pt x="511" y="-30" on="0"/>
        <pt x="660" y="-75" on="0"/>
        <pt x="824" y="-100" on="0"/>
        <pt x="909" y="-100" on="1"/>
        <pt x="1095" y="-100" on="0"/>
        <pt x="1409" y="1" on="0"/>
        <pt x="1637" y="190" on="0"/>
        <pt x="1766" y="457" on="0"/>
        <pt x="1766" y="624" on="1"/>
        <pt x="1766" y="707" on="0"/>
        <pt x="1721" y="870" on="0"/>
        <pt x="1639" y="1018" on="0"/>
        <pt x="1521" y="1146" on="0"/>
        <pt x="1448" y="1194" on="1"/>
        <pt x="1533" y="1155" on="0"/>
        <pt x="1666" y="1036" on="0"/>
        <pt x="1758" y="888" on="0"/>
        <pt x="1806" y="716" on="0"/>
        <pt x="1806" y="624" on="1"/>
        <pt x="1806" y="451" on="0"/>
        <pt x="1679" y="169" on="0"/>
        <pt x="1444" y="-30" on="0"/>
        <pt x="1113" y="-138" on="0"/>
        <pt x="909" y="-138" on="1"/>
        <pt x="720" y="-138" on="0"/>
        <pt x="428" y="-37" on="0"/>
      </contour>
      <contour>
        <pt x="360" y="609" on="1"/>
        <pt x="360" y="495" on="0"/>
        <pt x="442" y="317" on="0"/>
        <pt x="587" y="194" on="0"/>
        <pt x="784" y="130" on="0"/>
        <pt x="900" y="130" on="1"/>
        <pt x="1033" y="130" on="0"/>
        <pt x="1236" y="211" on="0"/>
        <pt x="1374" y="347" on="0"/>
        <pt x="1444" y="526" on="0"/>
        <pt x="1444" y="624" on="1"/>
        <pt x="1444" y="737" on="0"/>
        <pt x="1369" y="921" on="0"/>
        <pt x="1230" y="1050" on="0"/>
        <pt x="1031" y="1120" on="0"/>
        <pt x="907" y="1120" on="1"/>
        <pt x="787" y="1120" on="0"/>
        <pt x="586" y="1047" on="0"/>
        <pt x="441" y="913" on="0"/>
        <pt x="360" y="724" on="0"/>
      </contour>
      <contour>
        <pt x="432" y="606" on="1"/>
        <pt x="432" y="698" on="0"/>
        <pt x="495" y="860" on="0"/>
        <pt x="617" y="980" on="0"/>
        <pt x="793" y="1050" on="0"/>
        <pt x="907" y="1050" on="1"/>
        <pt x="1032" y="1050" on="0"/>
        <pt x="1224" y="959" on="0"/>
        <pt x="1290" y="874" on="1"/>
        <pt x="1196" y="951" on="0"/>
        <pt x="1009" y="1012" on="0"/>
        <pt x="907" y="1012" on="1"/>
        <pt x="804" y="1012" on="0"/>
        <pt x="642" y="948" on="0"/>
        <pt x="531" y="837" on="0"/>
        <pt x="472" y="689" on="0"/>
        <pt x="472" y="606" on="1"/>
        <pt x="472" y="540" on="0"/>
        <pt x="518" y="419" on="0"/>
        <pt x="604" y="315" on="0"/>
        <pt x="726" y="233" on="0"/>
        <pt x="803" y="205" on="1"/>
        <pt x="714" y="219" on="0"/>
        <pt x="575" y="292" on="0"/>
        <pt x="481" y="398" on="0"/>
        <pt x="432" y="531" on="0"/>
      </contour>
    </TTGlyph>
    <TTGlyph name="Oslash" xMin="110" yMin="-329" xMax="1806" yMax="1464">
      <contour>
        <pt x="464" y="69" on="1"/>
        <pt x="387" y="107" on="0"/>
        <pt x="257" y="211" on="0"/>
        <pt x="163" y="345" on="0"/>
        <pt x="110" y="506" on="0"/>
        <pt x="110" y="601" on="1"/>
        <pt x="110" y="692" on="0"/>
        <pt x="163" y="864" on="0"/>
        <pt x="262" y="1015" on="0"/>
        <pt x="405" y="1140" on="0"/>
        <pt x="583" y="1230" on="0"/>
        <pt x="793" y="1280" on="0"/>
        <pt x="911" y="1280" on="1"/>
        <pt x="1001" y="1280" on="0"/>
        <pt x="1159" y="1256" on="0"/>
        <pt x="1229" y="1234" on="1"/>
        <pt x="1380" y="1464" on="1"/>
        <pt x="1534" y="1464" on="1"/>
        <pt x="1351" y="1185" on="1"/>
        <pt x="1434" y="1143" on="0"/>
        <pt x="1562" y="1026" on="0"/>
        <pt x="1649" y="882" on="0"/>
        <pt x="1694" y="715" on="0"/>
        <pt x="1694" y="624" on="1"/>
        <pt x="1694" y="487" on="0"/>
        <pt x="1578" y="249" on="0"/>
        <pt x="1370" y="72" on="0"/>
        <pt x="1081" y="-30" on="0"/>
        <pt x="909" y="-30" on="1"/>
        <pt x="825" y="-30" on="0"/>
        <pt x="664" y="-5" on="0"/>
        <pt x="586" y="19" on="1"/>
        <pt x="428" y="-221" on="1"/>
        <pt x="274" y="-221" on="1"/>
      </contour>
      <contour>
        <pt x="470" y="-291" on="1"/>
        <pt x="612" y="-67" on="1"/>
        <pt x="642" y="-78" on="0"/>
        <pt x="719" y="-91" on="0"/>
        <pt x="800" y="-98" on="0"/>
        <pt x="878" y="-100" on="0"/>
        <pt x="909" y="-100" on="1"/>
        <pt x="1023" y="-100" on="0"/>
        <pt x="1239" y="-54" on="0"/>
        <pt x="1429" y="32" on="0"/>
        <pt x="1588" y="159" on="0"/>
        <pt x="1702" y="319" on="0"/>
        <pt x="1766" y="513" on="0"/>
        <pt x="1766" y="624" on="1"/>
        <pt x="1766" y="720" on="0"/>
        <pt x="1732" y="886" on="0"/>
        <pt x="1658" y="1029" on="0"/>
        <pt x="1541" y="1153" on="0"/>
        <pt x="1459" y="1207" on="1"/>
        <pt x="1593" y="1413" on="1"/>
        <pt x="1638" y="1413" on="1"/>
        <pt x="1511" y="1216" on="1"/>
        <pt x="1590" y="1162" on="0"/>
        <pt x="1703" y="1036" on="0"/>
        <pt x="1773" y="889" on="0"/>
        <pt x="1806" y="721" on="0"/>
        <pt x="1806" y="624" on="1"/>
        <pt x="1806" y="451" on="0"/>
        <pt x="1667" y="168" on="0"/>
        <pt x="1425" y="-33" on="0"/>
        <pt x="1097" y="-142" on="0"/>
        <pt x="909" y="-142" on="1"/>
        <pt x="880" y="-142" on="0"/>
        <pt x="807" y="-140" on="0"/>
        <pt x="731" y="-134" on="0"/>
        <pt x="658" y="-124" on="0"/>
        <pt x="628" y="-116" on="1"/>
        <pt x="491" y="-329" on="1"/>
        <pt x="310" y="-329" on="1"/>
        <pt x="329" y="-291" on="1"/>
      </contour>
      <contour>
        <pt x="1130" y="1082" on="1"/>
        <pt x="1025" y="1120" on="0"/>
        <pt x="907" y="1120" on="1"/>
        <pt x="794" y="1120" on="0"/>
        <pt x="592" y="1047" on="0"/>
        <pt x="439" y="913" on="0"/>
        <pt x="350" y="724" on="0"/>
        <pt x="350" y="609" on="1"/>
        <pt x="350" y="543" on="0"/>
        <pt x="381" y="428" on="0"/>
        <pt x="437" y="331" on="0"/>
        <pt x="516" y="251" on="0"/>
        <pt x="564" y="221" on="1"/>
      </contour>
      <contour>
        <pt x="565" y="321" on="1"/>
        <pt x="429" y="433" on="0"/>
        <pt x="429" y="608" on="1"/>
        <pt x="429" y="700" on="0"/>
        <pt x="498" y="861" on="0"/>
        <pt x="624" y="981" on="0"/>
        <pt x="800" y="1050" on="0"/>
        <pt x="907" y="1050" on="1"/>
        <pt x="930" y="1050" on="0"/>
        <pt x="978" y="1046" on="0"/>
        <pt x="1001" y="1042" on="1"/>
        <pt x="980" y="1007" on="1"/>
        <pt x="961" y="1010" on="0"/>
        <pt x="925" y="1012" on="0"/>
        <pt x="907" y="1012" on="1"/>
        <pt x="809" y="1012" on="0"/>
        <pt x="648" y="948" on="0"/>
        <pt x="533" y="838" on="0"/>
        <pt x="469" y="691" on="0"/>
        <pt x="469" y="608" on="1"/>
        <pt x="469" y="533" on="0"/>
        <pt x="528" y="410" on="0"/>
        <pt x="585" y="353" on="1"/>
      </contour>
      <contour>
        <pt x="682" y="165" on="1"/>
        <pt x="787" y="130" on="0"/>
        <pt x="900" y="130" on="1"/>
        <pt x="1025" y="130" on="0"/>
        <pt x="1229" y="211" on="0"/>
        <pt x="1375" y="347" on="0"/>
        <pt x="1454" y="526" on="0"/>
        <pt x="1454" y="624" on="1"/>
        <pt x="1454" y="758" on="0"/>
        <pt x="1342" y="960" on="0"/>
        <pt x="1245" y="1024" on="1"/>
      </contour>
      <contour>
        <pt x="1262" y="916" on="1"/>
        <pt x="1270" y="911" on="0"/>
        <pt x="1288" y="899" on="0"/>
        <pt x="1295" y="891" on="1"/>
        <pt x="836" y="190" on="1"/>
        <pt x="827" y="191" on="0"/>
        <pt x="801" y="194" on="0"/>
        <pt x="790" y="196" on="1"/>
      </contour>
    </TTGlyph>
    <TTGlyph name="Otilde" xMin="110" yMin="-138" xMax="1806" yMax="1730">
      <contour>
        <pt x="424" y="1460" on="1"/>
        <pt x="440" y="1528" on="0"/>
        <pt x="509" y="1630" on="0"/>
        <pt x="600" y="1697" on="0"/>
        <pt x="705" y="1730" on="0"/>
        <pt x="758" y="1730" on="1"/>
        <pt x="779" y="1730" on="0"/>
        <pt x="820" y="1724" on="0"/>
        <pt x="866" y="1709" on="0"/>
        <pt x="923" y="1682" on="0"/>
        <pt x="960" y="1661" on="1"/>
        <pt x="996" y="1637" on="0"/>
        <pt x="1045" y="1613" on="0"/>
        <pt x="1076" y="1613" on="1"/>
        <pt x="1110" y="1613" on="0"/>
        <pt x="1168" y="1669" on="0"/>
        <pt x="1182" y="1723" on="1"/>
        <pt x="1354" y="1723" on="1"/>
        <pt x="1339" y="1655" on="0"/>
        <pt x="1278" y="1553" on="0"/>
        <pt x="1200" y="1486" on="0"/>
        <pt x="1109" y="1453" on="0"/>
        <pt x="1064" y="1453" on="1"/>
        <pt x="1047" y="1453" on="0"/>
        <pt x="1014" y="1458" on="0"/>
        <pt x="977" y="1471" on="0"/>
        <pt x="930" y="1495" on="0"/>
        <pt x="900" y="1514" on="1"/>
        <pt x="869" y="1531" on="0"/>
        <pt x="826" y="1553" on="0"/>
        <pt x="792" y="1565" on="0"/>
        <pt x="763" y="1570" on="0"/>
        <pt x="745" y="1570" on="1"/>
        <pt x="696" y="1570" on="0"/>
        <pt x="615" y="1511" on="0"/>
        <pt x="596" y="1460" on="1"/>
      </contour>
      <contour>
        <pt x="467" y="1390" on="1"/>
        <pt x="642" y="1390" on="1"/>
        <pt x="649" y="1452" on="0"/>
        <pt x="710" y="1500" on="0"/>
        <pt x="752" y="1500" on="1"/>
        <pt x="775" y="1500" on="0"/>
        <pt x="836" y="1471" on="0"/>
        <pt x="863" y="1456" on="1"/>
        <pt x="906" y="1432" on="0"/>
        <pt x="967" y="1404" on="0"/>
        <pt x="1013" y="1388" on="0"/>
        <pt x="1050" y="1383" on="0"/>
        <pt x="1070" y="1383" on="1"/>
        <pt x="1130" y="1383" on="0"/>
        <pt x="1239" y="1423" on="0"/>
        <pt x="1329" y="1498" on="0"/>
        <pt x="1397" y="1607" on="0"/>
        <pt x="1415" y="1675" on="1"/>
        <pt x="1457" y="1675" on="1"/>
        <pt x="1435" y="1595" on="0"/>
        <pt x="1358" y="1472" on="0"/>
        <pt x="1257" y="1388" on="0"/>
        <pt x="1136" y="1345" on="0"/>
        <pt x="1070" y="1345" on="1"/>
        <pt x="1048" y="1345" on="0"/>
        <pt x="1002" y="1352" on="0"/>
        <pt x="948" y="1369" on="0"/>
        <pt x="883" y="1400" on="0"/>
        <pt x="841" y="1424" on="1"/>
        <pt x="805" y="1444" on="0"/>
        <pt x="764" y="1462" on="0"/>
        <pt x="750" y="1462" on="1"/>
        <pt x="734" y="1462" on="0"/>
        <pt x="709" y="1454" on="0"/>
        <pt x="691" y="1430" on="0"/>
        <pt x="681" y="1387" on="0"/>
        <pt x="679" y="1352" on="1"/>
        <pt x="461" y="1352" on="1"/>
      </contour>
      <contour>
        <pt x="110" y="601" on="1"/>
        <pt x="110" y="738" on="0"/>
        <pt x="217" y="985" on="0"/>
        <pt x="421" y="1171" on="0"/>
        <pt x="720" y="1280" on="0"/>
        <pt x="912" y="1280" on="1"/>
        <pt x="1112" y="1280" on="0"/>
        <pt x="1407" y="1181" on="0"/>
        <pt x="1600" y="1005" on="0"/>
        <pt x="1694" y="765" on="0"/>
        <pt x="1694" y="624" on="1"/>
        <pt x="1694" y="487" on="0"/>
        <pt x="1589" y="249" on="0"/>
        <pt x="1389" y="72" on="0"/>
        <pt x="1096" y="-30" on="0"/>
        <pt x="909" y="-30" on="1"/>
        <pt x="748" y="-30" on="0"/>
        <pt x="459" y="50" on="0"/>
        <pt x="239" y="209" on="0"/>
        <pt x="110" y="445" on="0"/>
      </contour>
      <contour>
        <pt x="331" y="68" on="1"/>
        <pt x="382" y="31" on="0"/>
        <pt x="511" y="-30" on="0"/>
        <pt x="660" y="-75" on="0"/>
        <pt x="824" y="-100" on="0"/>
        <pt x="909" y="-100" on="1"/>
        <pt x="1095" y="-100" on="0"/>
        <pt x="1409" y="1" on="0"/>
        <pt x="1637" y="190" on="0"/>
        <pt x="1766" y="457" on="0"/>
        <pt x="1766" y="624" on="1"/>
        <pt x="1766" y="707" on="0"/>
        <pt x="1721" y="870" on="0"/>
        <pt x="1639" y="1018" on="0"/>
        <pt x="1521" y="1146" on="0"/>
        <pt x="1448" y="1194" on="1"/>
        <pt x="1533" y="1155" on="0"/>
        <pt x="1666" y="1036" on="0"/>
        <pt x="1758" y="888" on="0"/>
        <pt x="1806" y="716" on="0"/>
        <pt x="1806" y="624" on="1"/>
        <pt x="1806" y="451" on="0"/>
        <pt x="1679" y="169" on="0"/>
        <pt x="1444" y="-30" on="0"/>
        <pt x="1113" y="-138" on="0"/>
        <pt x="909" y="-138" on="1"/>
        <pt x="720" y="-138" on="0"/>
        <pt x="428" y="-37" on="0"/>
      </contour>
      <contour>
        <pt x="360" y="609" on="1"/>
        <pt x="360" y="495" on="0"/>
        <pt x="442" y="317" on="0"/>
        <pt x="587" y="194" on="0"/>
        <pt x="784" y="130" on="0"/>
        <pt x="900" y="130" on="1"/>
        <pt x="1033" y="130" on="0"/>
        <pt x="1236" y="211" on="0"/>
        <pt x="1374" y="347" on="0"/>
        <pt x="1444" y="526" on="0"/>
        <pt x="1444" y="624" on="1"/>
        <pt x="1444" y="737" on="0"/>
        <pt x="1369" y="921" on="0"/>
        <pt x="1230" y="1050" on="0"/>
        <pt x="1031" y="1120" on="0"/>
        <pt x="907" y="1120" on="1"/>
        <pt x="787" y="1120" on="0"/>
        <pt x="586" y="1047" on="0"/>
        <pt x="441" y="913" on="0"/>
        <pt x="360" y="724" on="0"/>
      </contour>
      <contour>
        <pt x="432" y="606" on="1"/>
        <pt x="432" y="698" on="0"/>
        <pt x="495" y="860" on="0"/>
        <pt x="617" y="980" on="0"/>
        <pt x="793" y="1050" on="0"/>
        <pt x="907" y="1050" on="1"/>
        <pt x="1032" y="1050" on="0"/>
        <pt x="1224" y="959" on="0"/>
        <pt x="1290" y="874" on="1"/>
        <pt x="1196" y="951" on="0"/>
        <pt x="1009" y="1012" on="0"/>
        <pt x="907" y="1012" on="1"/>
        <pt x="804" y="1012" on="0"/>
        <pt x="642" y="948" on="0"/>
        <pt x="531" y="837" on="0"/>
        <pt x="472" y="689" on="0"/>
        <pt x="472" y="606" on="1"/>
        <pt x="472" y="540" on="0"/>
        <pt x="518" y="419" on="0"/>
        <pt x="604" y="315" on="0"/>
        <pt x="726" y="233" on="0"/>
        <pt x="803" y="205" on="1"/>
        <pt x="714" y="219" on="0"/>
        <pt x="575" y="292" on="0"/>
        <pt x="481" y="398" on="0"/>
        <pt x="432" y="531" on="0"/>
      </contour>
    </TTGlyph>
    <TTGlyph name="P" xMin="144" yMin="-108" xMax="1747" yMax="1245">
      <contour>
        <pt x="159" y="160" on="1"/>
        <pt x="420" y="160" on="1"/>
        <pt x="420" y="1085" on="1"/>
        <pt x="144" y="1085" on="1"/>
        <pt x="144" y="1245" on="1"/>
        <pt x="933" y="1245" on="1"/>
        <pt x="1048" y="1245" on="0"/>
        <pt x="1233" y="1237" on="0"/>
        <pt x="1308" y="1223" on="1"/>
        <pt x="1396" y="1206" on="0"/>
        <pt x="1520" y="1143" on="0"/>
        <pt x="1597" y="1053" on="0"/>
        <pt x="1632" y="939" on="0"/>
        <pt x="1632" y="871" on="1"/>
        <pt x="1632" y="815" on="0"/>
        <pt x="1593" y="707" on="0"/>
        <pt x="1517" y="612" on="0"/>
        <pt x="1402" y="536" on="0"/>
        <pt x="1326" y="512" on="1"/>
        <pt x="1245" y="488" on="0"/>
        <pt x="1048" y="475" on="0"/>
        <pt x="933" y="475" on="1"/>
        <pt x="647" y="475" on="1"/>
        <pt x="647" y="160" on="1"/>
        <pt x="1003" y="160" on="1"/>
        <pt x="1003" y="0" on="1"/>
        <pt x="159" y="0" on="1"/>
      </contour>
      <contour>
        <pt x="717" y="405" on="1"/>
        <pt x="877" y="405" on="1"/>
        <pt x="965" y="405" on="0"/>
        <pt x="1093" y="407" on="0"/>
        <pt x="1194" y="414" on="0"/>
        <pt x="1275" y="427" on="0"/>
        <pt x="1316" y="437" on="1"/>
        <pt x="1408" y="459" on="0"/>
        <pt x="1552" y="540" on="0"/>
        <pt x="1651" y="653" on="0"/>
        <pt x="1703" y="796" on="0"/>
        <pt x="1703" y="880" on="1"/>
        <pt x="1703" y="983" on="0"/>
        <pt x="1624" y="1132" on="0"/>
        <pt x="1540" y="1192" on="1"/>
        <pt x="1591" y="1170" on="0"/>
        <pt x="1669" y="1101" on="0"/>
        <pt x="1721" y="1017" on="0"/>
        <pt x="1747" y="925" on="0"/>
        <pt x="1747" y="880" on="1"/>
        <pt x="1747" y="791" on="0"/>
        <pt x="1689" y="635" on="0"/>
        <pt x="1578" y="509" on="0"/>
        <pt x="1415" y="418" on="0"/>
        <pt x="1309" y="395" on="1"/>
        <pt x="1277" y="388" on="0"/>
        <pt x="1197" y="377" on="0"/>
        <pt x="1093" y="370" on="0"/>
        <pt x="961" y="367" on="0"/>
        <pt x="877" y="367" on="1"/>
        <pt x="757" y="367" on="1"/>
        <pt x="757" y="220" on="1"/>
        <pt x="717" y="220" on="1"/>
      </contour>
      <contour>
        <pt x="976" y="635" on="1"/>
        <pt x="1061" y="635" on="0"/>
        <pt x="1187" y="643" on="0"/>
        <pt x="1235" y="657" on="1"/>
        <pt x="1321" y="681" on="0"/>
        <pt x="1388" y="785" on="0"/>
        <pt x="1388" y="863" on="1"/>
        <pt x="1388" y="923" on="0"/>
        <pt x="1344" y="1007" on="0"/>
        <pt x="1246" y="1061" on="0"/>
        <pt x="1089" y="1085" on="0"/>
        <pt x="976" y="1085" on="1"/>
        <pt x="647" y="1085" on="1"/>
        <pt x="647" y="635" on="1"/>
      </contour>
      <contour>
        <pt x="717" y="1015" on="1"/>
        <pt x="969" y="1015" on="1"/>
        <pt x="1122" y="1015" on="0"/>
        <pt x="1283" y="981" on="0"/>
        <pt x="1308" y="939" on="1"/>
        <pt x="1288" y="948" on="0"/>
        <pt x="1233" y="962" on="0"/>
        <pt x="1153" y="972" on="0"/>
        <pt x="1044" y="977" on="0"/>
        <pt x="969" y="977" on="1"/>
        <pt x="757" y="977" on="1"/>
        <pt x="757" y="695" on="1"/>
        <pt x="717" y="695" on="1"/>
      </contour>
      <contour>
        <pt x="198" y="1015" on="1"/>
        <pt x="357" y="1015" on="1"/>
        <pt x="357" y="977" on="1"/>
        <pt x="198" y="977" on="1"/>
      </contour>
      <contour>
        <pt x="1075" y="-70" on="1"/>
        <pt x="1075" y="104" on="1"/>
        <pt x="1115" y="104" on="1"/>
        <pt x="1115" y="-108" on="1"/>
        <pt x="223" y="-108" on="1"/>
        <pt x="223" y="-70" on="1"/>
      </contour>
    </TTGlyph>
    <TTGlyph name="Q" xMin="110" yMin="-349" xMax="1826" yMax="1280">
      <contour>
        <pt x="110" y="601" on="1"/>
        <pt x="110" y="738" on="0"/>
        <pt x="218" y="985" on="0"/>
        <pt x="425" y="1171" on="0"/>
        <pt x="728" y="1280" on="0"/>
        <pt x="922" y="1280" on="1"/>
        <pt x="1125" y="1280" on="0"/>
        <pt x="1423" y="1181" on="0"/>
        <pt x="1619" y="1005" on="0"/>
        <pt x="1714" y="765" on="0"/>
        <pt x="1714" y="624" on="1"/>
        <pt x="1714" y="528" on="0"/>
        <pt x="1662" y="354" on="0"/>
        <pt x="1561" y="204" on="0"/>
        <pt x="1412" y="84" on="0"/>
        <pt x="1316" y="43" on="1"/>
        <pt x="1496" y="-241" on="1"/>
        <pt x="1220" y="-241" on="1"/>
        <pt x="1080" y="-19" on="1"/>
        <pt x="1042" y="-24" on="0"/>
        <pt x="962" y="-30" on="0"/>
        <pt x="920" y="-30" on="1"/>
        <pt x="812" y="-30" on="0"/>
        <pt x="608" y="6" on="0"/>
        <pt x="428" y="77" on="0"/>
        <pt x="278" y="182" on="0"/>
        <pt x="170" y="323" on="0"/>
        <pt x="110" y="497" on="0"/>
      </contour>
      <contour>
        <pt x="1638" y="-311" on="1"/>
        <pt x="1422" y="29" on="1"/>
        <pt x="1502" y="71" on="0"/>
        <pt x="1636" y="193" on="0"/>
        <pt x="1732" y="346" on="0"/>
        <pt x="1786" y="525" on="0"/>
        <pt x="1786" y="624" on="1"/>
        <pt x="1786" y="707" on="0"/>
        <pt x="1740" y="870" on="0"/>
        <pt x="1655" y="1018" on="0"/>
        <pt x="1534" y="1146" on="0"/>
        <pt x="1458" y="1194" on="1"/>
        <pt x="1545" y="1153" on="0"/>
        <pt x="1682" y="1033" on="0"/>
        <pt x="1777" y="886" on="0"/>
        <pt x="1826" y="715" on="0"/>
        <pt x="1826" y="624" on="1"/>
        <pt x="1826" y="523" on="0"/>
        <pt x="1775" y="341" on="0"/>
        <pt x="1683" y="186" on="0"/>
        <pt x="1555" y="60" on="0"/>
        <pt x="1478" y="14" on="1"/>
        <pt x="1709" y="-349" on="1"/>
        <pt x="1284" y="-349" on="1"/>
        <pt x="1284" y="-311" on="1"/>
      </contour>
      <contour>
        <pt x="360" y="609" on="1"/>
        <pt x="360" y="495" on="0"/>
        <pt x="444" y="317" on="0"/>
        <pt x="592" y="194" on="0"/>
        <pt x="793" y="130" on="0"/>
        <pt x="911" y="130" on="1"/>
        <pt x="948" y="130" on="0"/>
        <pt x="984" y="133" on="1"/>
        <pt x="819" y="395" on="1"/>
        <pt x="1095" y="395" on="1"/>
        <pt x="1217" y="201" on="1"/>
        <pt x="1278" y="234" on="0"/>
        <pt x="1370" y="326" on="0"/>
        <pt x="1432" y="435" on="0"/>
        <pt x="1464" y="559" on="0"/>
        <pt x="1464" y="624" on="1"/>
        <pt x="1464" y="737" on="0"/>
        <pt x="1388" y="921" on="0"/>
        <pt x="1247" y="1050" on="0"/>
        <pt x="1044" y="1120" on="0"/>
        <pt x="918" y="1120" on="1"/>
        <pt x="796" y="1120" on="0"/>
        <pt x="591" y="1047" on="0"/>
        <pt x="443" y="913" on="0"/>
        <pt x="360" y="724" on="0"/>
      </contour>
      <contour>
        <pt x="432" y="606" on="1"/>
        <pt x="432" y="698" on="0"/>
        <pt x="497" y="860" on="0"/>
        <pt x="621" y="980" on="0"/>
        <pt x="802" y="1050" on="0"/>
        <pt x="918" y="1050" on="1"/>
        <pt x="1043" y="1050" on="0"/>
        <pt x="1234" y="959" on="0"/>
        <pt x="1300" y="874" on="1"/>
        <pt x="1206" y="951" on="0"/>
        <pt x="1020" y="1012" on="0"/>
        <pt x="918" y="1012" on="1"/>
        <pt x="812" y="1012" on="0"/>
        <pt x="646" y="948" on="0"/>
        <pt x="532" y="837" on="0"/>
        <pt x="472" y="689" on="0"/>
        <pt x="472" y="606" on="1"/>
        <pt x="472" y="540" on="0"/>
        <pt x="519" y="419" on="0"/>
        <pt x="608" y="316" on="0"/>
        <pt x="734" y="233" on="0"/>
        <pt x="813" y="205" on="1"/>
        <pt x="721" y="219" on="0"/>
        <pt x="580" y="292" on="0"/>
        <pt x="482" y="398" on="0"/>
        <pt x="432" y="531" on="0"/>
      </contour>
      <contour>
        <pt x="1261" y="358" on="1"/>
        <pt x="1288" y="316" on="1"/>
        <pt x="1256" y="292" on="1"/>
        <pt x="1214" y="358" on="1"/>
      </contour>
      <contour>
        <pt x="341" y="68" on="1"/>
        <pt x="392" y="31" on="0"/>
        <pt x="522" y="-30" on="0"/>
        <pt x="671" y="-75" on="0"/>
        <pt x="835" y="-100" on="0"/>
        <pt x="920" y="-100" on="1"/>
        <pt x="968" y="-100" on="0"/>
        <pt x="1036" y="-95" on="0"/>
        <pt x="1074" y="-89" on="1"/>
        <pt x="1097" y="-125" on="1"/>
        <pt x="1072" y="-130" on="0"/>
        <pt x="977" y="-138" on="0"/>
        <pt x="920" y="-138" on="1"/>
        <pt x="731" y="-138" on="0"/>
        <pt x="438" y="-37" on="0"/>
      </contour>
    </TTGlyph>
    <TTGlyph name="R" xMin="144" yMin="-108" xMax="1940" yMax="1245">
      <contour>
        <pt x="159" y="160" on="1"/>
        <pt x="420" y="160" on="1"/>
        <pt x="420" y="1085" on="1"/>
        <pt x="144" y="1085" on="1"/>
        <pt x="144" y="1245" on="1"/>
        <pt x="963" y="1245" on="1"/>
        <pt x="1078" y="1245" on="0"/>
        <pt x="1263" y="1237" on="0"/>
        <pt x="1338" y="1223" on="1"/>
        <pt x="1426" y="1206" on="0"/>
        <pt x="1549" y="1146" on="0"/>
        <pt x="1627" y="1061" on="0"/>
        <pt x="1662" y="954" on="0"/>
        <pt x="1662" y="891" on="1"/>
        <pt x="1662" y="776" on="0"/>
        <pt x="1518" y="606" on="0"/>
        <pt x="1373" y="561" on="1"/>
        <pt x="1355" y="555" on="0"/>
        <pt x="1316" y="546" on="0"/>
        <pt x="1296" y="541" on="1"/>
        <pt x="1349" y="513" on="0"/>
        <pt x="1455" y="427" on="0"/>
        <pt x="1545" y="325" on="0"/>
        <pt x="1612" y="214" on="0"/>
        <pt x="1626" y="160" on="1"/>
        <pt x="1828" y="160" on="1"/>
        <pt x="1828" y="0" on="1"/>
        <pt x="1122" y="0" on="1"/>
        <pt x="1122" y="160" on="1"/>
        <pt x="1360" y="160" on="1"/>
        <pt x="1343" y="214" on="0"/>
        <pt x="1271" y="328" on="0"/>
        <pt x="1169" y="428" on="0"/>
        <pt x="1040" y="502" on="0"/>
        <pt x="967" y="515" on="1"/>
        <pt x="645" y="515" on="1"/>
        <pt x="645" y="160" on="1"/>
        <pt x="889" y="160" on="1"/>
        <pt x="889" y="0" on="1"/>
        <pt x="159" y="0" on="1"/>
      </contour>
      <contour>
        <pt x="1449" y="523" on="1"/>
        <pt x="1516" y="543" on="0"/>
        <pt x="1622" y="615" on="0"/>
        <pt x="1695" y="711" on="0"/>
        <pt x="1734" y="827" on="0"/>
        <pt x="1734" y="890" on="1"/>
        <pt x="1734" y="934" on="0"/>
        <pt x="1716" y="1016" on="0"/>
        <pt x="1672" y="1091" on="0"/>
        <pt x="1598" y="1161" on="0"/>
        <pt x="1543" y="1194" on="1"/>
        <pt x="1605" y="1171" on="0"/>
        <pt x="1694" y="1106" on="0"/>
        <pt x="1751" y="1026" on="0"/>
        <pt x="1778" y="937" on="0"/>
        <pt x="1778" y="890" on="1"/>
        <pt x="1778" y="832" on="0"/>
        <pt x="1747" y="722" on="0"/>
        <pt x="1684" y="623" on="0"/>
        <pt x="1586" y="541" on="0"/>
        <pt x="1520" y="512" on="1"/>
        <pt x="1550" y="488" on="0"/>
        <pt x="1609" y="417" on="0"/>
        <pt x="1661" y="336" on="0"/>
        <pt x="1703" y="255" on="0"/>
        <pt x="1715" y="221" on="1"/>
        <pt x="1668" y="221" on="1"/>
        <pt x="1653" y="260" on="0"/>
        <pt x="1608" y="347" on="0"/>
        <pt x="1551" y="429" on="0"/>
        <pt x="1485" y="500" on="0"/>
      </contour>
      <contour>
        <pt x="1006" y="675" on="1"/>
        <pt x="1126" y="675" on="0"/>
        <pt x="1284" y="702" on="0"/>
        <pt x="1379" y="755" on="0"/>
        <pt x="1418" y="833" on="0"/>
        <pt x="1418" y="883" on="1"/>
        <pt x="1418" y="945" on="0"/>
        <pt x="1330" y="1044" on="0"/>
        <pt x="1234" y="1068" on="1"/>
        <pt x="1189" y="1079" on="0"/>
        <pt x="1075" y="1085" on="0"/>
        <pt x="1006" y="1085" on="1"/>
        <pt x="645" y="1085" on="1"/>
        <pt x="645" y="675" on="1"/>
      </contour>
      <contour>
        <pt x="717" y="1015" on="1"/>
        <pt x="1006" y="1015" on="1"/>
        <pt x="1088" y="1015" on="0"/>
        <pt x="1198" y="1008" on="0"/>
        <pt x="1274" y="990" on="0"/>
        <pt x="1324" y="961" on="0"/>
        <pt x="1345" y="939" on="1"/>
        <pt x="1325" y="948" on="0"/>
        <pt x="1270" y="962" on="0"/>
        <pt x="1190" y="972" on="0"/>
        <pt x="1081" y="977" on="0"/>
        <pt x="1006" y="977" on="1"/>
        <pt x="757" y="977" on="1"/>
        <pt x="757" y="735" on="1"/>
        <pt x="717" y="735" on="1"/>
      </contour>
      <contour>
        <pt x="198" y="1015" on="1"/>
        <pt x="357" y="1015" on="1"/>
        <pt x="357" y="977" on="1"/>
        <pt x="198" y="977" on="1"/>
      </contour>
      <contour>
        <pt x="717" y="445" on="1"/>
        <pt x="838" y="445" on="1"/>
        <pt x="934" y="445" on="0"/>
        <pt x="1083" y="414" on="0"/>
        <pt x="1117" y="376" on="1"/>
        <pt x="1089" y="384" on="0"/>
        <pt x="1034" y="396" on="0"/>
        <pt x="965" y="403" on="0"/>
        <pt x="874" y="407" on="0"/>
        <pt x="810" y="407" on="1"/>
        <pt x="757" y="407" on="1"/>
        <pt x="757" y="220" on="1"/>
        <pt x="717" y="220" on="1"/>
      </contour>
      <contour>
        <pt x="1900" y="-70" on="1"/>
        <pt x="1900" y="104" on="1"/>
        <pt x="1940" y="104" on="1"/>
        <pt x="1940" y="-108" on="1"/>
        <pt x="1165" y="-108" on="1"/>
        <pt x="1165" y="-70" on="1"/>
      </contour>
      <contour>
        <pt x="963" y="-70" on="1"/>
        <pt x="963" y="104" on="1"/>
        <pt x="1003" y="104" on="1"/>
        <pt x="1003" y="-108" on="1"/>
        <pt x="223" y="-108" on="1"/>
        <pt x="223" y="-70" on="1"/>
      </contour>
    </TTGlyph>
    <TTGlyph name="Racute" xMin="144" yMin="-108" xMax="1940" yMax="1800">
      <contour>
        <pt x="1014" y="1800" on="1"/>
        <pt x="1269" y="1800" on="1"/>
        <pt x="959" y="1460" on="1"/>
        <pt x="764" y="1460" on="1"/>
      </contour>
      <contour>
        <pt x="824" y="1390" on="1"/>
        <pt x="991" y="1390" on="1"/>
        <pt x="1315" y="1744" on="1"/>
        <pt x="1368" y="1744" on="1"/>
        <pt x="1010" y="1352" on="1"/>
        <pt x="796" y="1352" on="1"/>
      </contour>
      <contour>
        <pt x="159" y="160" on="1"/>
        <pt x="420" y="160" on="1"/>
        <pt x="420" y="1085" on="1"/>
        <pt x="144" y="1085" on="1"/>
        <pt x="144" y="1245" on="1"/>
        <pt x="963" y="1245" on="1"/>
        <pt x="1078" y="1245" on="0"/>
        <pt x="1263" y="1237" on="0"/>
        <pt x="1338" y="1223" on="1"/>
        <pt x="1426" y="1206" on="0"/>
        <pt x="1549" y="1146" on="0"/>
        <pt x="1627" y="1061" on="0"/>
        <pt x="1662" y="954" on="0"/>
        <pt x="1662" y="891" on="1"/>
        <pt x="1662" y="776" on="0"/>
        <pt x="1518" y="606" on="0"/>
        <pt x="1373" y="561" on="1"/>
        <pt x="1355" y="555" on="0"/>
        <pt x="1316" y="546" on="0"/>
        <pt x="1296" y="541" on="1"/>
        <pt x="1349" y="513" on="0"/>
        <pt x="1455" y="427" on="0"/>
        <pt x="1545" y="325" on="0"/>
        <pt x="1612" y="214" on="0"/>
        <pt x="1626" y="160" on="1"/>
        <pt x="1828" y="160" on="1"/>
        <pt x="1828" y="0" on="1"/>
        <pt x="1122" y="0" on="1"/>
        <pt x="1122" y="160" on="1"/>
        <pt x="1360" y="160" on="1"/>
        <pt x="1343" y="214" on="0"/>
        <pt x="1271" y="328" on="0"/>
        <pt x="1169" y="428" on="0"/>
        <pt x="1040" y="502" on="0"/>
        <pt x="967" y="515" on="1"/>
        <pt x="645" y="515" on="1"/>
        <pt x="645" y="160" on="1"/>
        <pt x="889" y="160" on="1"/>
        <pt x="889" y="0" on="1"/>
        <pt x="159" y="0" on="1"/>
      </contour>
      <contour>
        <pt x="1449" y="523" on="1"/>
        <pt x="1516" y="543" on="0"/>
        <pt x="1622" y="615" on="0"/>
        <pt x="1695" y="711" on="0"/>
        <pt x="1734" y="827" on="0"/>
        <pt x="1734" y="890" on="1"/>
        <pt x="1734" y="934" on="0"/>
        <pt x="1716" y="1016" on="0"/>
        <pt x="1672" y="1091" on="0"/>
        <pt x="1598" y="1161" on="0"/>
        <pt x="1543" y="1194" on="1"/>
        <pt x="1605" y="1171" on="0"/>
        <pt x="1694" y="1106" on="0"/>
        <pt x="1751" y="1026" on="0"/>
        <pt x="1778" y="937" on="0"/>
        <pt x="1778" y="890" on="1"/>
        <pt x="1778" y="832" on="0"/>
        <pt x="1747" y="722" on="0"/>
        <pt x="1684" y="623" on="0"/>
        <pt x="1586" y="541" on="0"/>
        <pt x="1520" y="512" on="1"/>
        <pt x="1550" y="488" on="0"/>
        <pt x="1609" y="417" on="0"/>
        <pt x="1661" y="336" on="0"/>
        <pt x="1703" y="255" on="0"/>
        <pt x="1715" y="221" on="1"/>
        <pt x="1668" y="221" on="1"/>
        <pt x="1653" y="260" on="0"/>
        <pt x="1608" y="347" on="0"/>
        <pt x="1551" y="429" on="0"/>
        <pt x="1485" y="500" on="0"/>
      </contour>
      <contour>
        <pt x="1006" y="675" on="1"/>
        <pt x="1126" y="675" on="0"/>
        <pt x="1284" y="702" on="0"/>
        <pt x="1379" y="755" on="0"/>
        <pt x="1418" y="833" on="0"/>
        <pt x="1418" y="883" on="1"/>
        <pt x="1418" y="945" on="0"/>
        <pt x="1330" y="1044" on="0"/>
        <pt x="1234" y="1068" on="1"/>
        <pt x="1189" y="1079" on="0"/>
        <pt x="1075" y="1085" on="0"/>
        <pt x="1006" y="1085" on="1"/>
        <pt x="645" y="1085" on="1"/>
        <pt x="645" y="675" on="1"/>
      </contour>
      <contour>
        <pt x="717" y="1015" on="1"/>
        <pt x="1006" y="1015" on="1"/>
        <pt x="1088" y="1015" on="0"/>
        <pt x="1198" y="1008" on="0"/>
        <pt x="1274" y="990" on="0"/>
        <pt x="1324" y="961" on="0"/>
        <pt x="1345" y="939" on="1"/>
        <pt x="1325" y="948" on="0"/>
        <pt x="1270" y="962" on="0"/>
        <pt x="1190" y="972" on="0"/>
        <pt x="1081" y="977" on="0"/>
        <pt x="1006" y="977" on="1"/>
        <pt x="757" y="977" on="1"/>
        <pt x="757" y="735" on="1"/>
        <pt x="717" y="735" on="1"/>
      </contour>
      <contour>
        <pt x="198" y="1015" on="1"/>
        <pt x="357" y="1015" on="1"/>
        <pt x="357" y="977" on="1"/>
        <pt x="198" y="977" on="1"/>
      </contour>
      <contour>
        <pt x="717" y="445" on="1"/>
        <pt x="838" y="445" on="1"/>
        <pt x="934" y="445" on="0"/>
        <pt x="1083" y="414" on="0"/>
        <pt x="1117" y="376" on="1"/>
        <pt x="1089" y="384" on="0"/>
        <pt x="1034" y="396" on="0"/>
        <pt x="965" y="403" on="0"/>
        <pt x="874" y="407" on="0"/>
        <pt x="810" y="407" on="1"/>
        <pt x="757" y="407" on="1"/>
        <pt x="757" y="220" on="1"/>
        <pt x="717" y="220" on="1"/>
      </contour>
      <contour>
        <pt x="1900" y="-70" on="1"/>
        <pt x="1900" y="104" on="1"/>
        <pt x="1940" y="104" on="1"/>
        <pt x="1940" y="-108" on="1"/>
        <pt x="1165" y="-108" on="1"/>
        <pt x="1165" y="-70" on="1"/>
      </contour>
      <contour>
        <pt x="963" y="-70" on="1"/>
        <pt x="963" y="104" on="1"/>
        <pt x="1003" y="104" on="1"/>
        <pt x="1003" y="-108" on="1"/>
        <pt x="223" y="-108" on="1"/>
        <pt x="223" y="-70" on="1"/>
      </contour>
    </TTGlyph>
    <TTGlyph name="Rcaron" xMin="144" yMin="-108" xMax="1940" yMax="1800">
      <contour>
        <pt x="504" y="1800" on="1"/>
        <pt x="699" y="1800" on="1"/>
        <pt x="910" y="1589" on="1"/>
        <pt x="1114" y="1800" on="1"/>
        <pt x="1309" y="1800" on="1"/>
        <pt x="1038" y="1460" on="1"/>
        <pt x="784" y="1460" on="1"/>
      </contour>
      <contour>
        <pt x="887" y="1390" on="1"/>
        <pt x="1072" y="1390" on="1"/>
        <pt x="1362" y="1753" on="1"/>
        <pt x="1413" y="1753" on="1"/>
        <pt x="1093" y="1352" on="1"/>
        <pt x="918" y="1352" on="1"/>
      </contour>
      <contour>
        <pt x="843" y="1753" on="1"/>
        <pt x="898" y="1753" on="1"/>
        <pt x="956" y="1695" on="1"/>
        <pt x="929" y="1667" on="1"/>
      </contour>
      <contour>
        <pt x="159" y="160" on="1"/>
        <pt x="420" y="160" on="1"/>
        <pt x="420" y="1085" on="1"/>
        <pt x="144" y="1085" on="1"/>
        <pt x="144" y="1245" on="1"/>
        <pt x="963" y="1245" on="1"/>
        <pt x="1078" y="1245" on="0"/>
        <pt x="1263" y="1237" on="0"/>
        <pt x="1338" y="1223" on="1"/>
        <pt x="1426" y="1206" on="0"/>
        <pt x="1549" y="1146" on="0"/>
        <pt x="1627" y="1061" on="0"/>
        <pt x="1662" y="954" on="0"/>
        <pt x="1662" y="891" on="1"/>
        <pt x="1662" y="776" on="0"/>
        <pt x="1518" y="606" on="0"/>
        <pt x="1373" y="561" on="1"/>
        <pt x="1355" y="555" on="0"/>
        <pt x="1316" y="546" on="0"/>
        <pt x="1296" y="541" on="1"/>
        <pt x="1349" y="513" on="0"/>
        <pt x="1455" y="427" on="0"/>
        <pt x="1545" y="325" on="0"/>
        <pt x="1612" y="214" on="0"/>
        <pt x="1626" y="160" on="1"/>
        <pt x="1828" y="160" on="1"/>
        <pt x="1828" y="0" on="1"/>
        <pt x="1122" y="0" on="1"/>
        <pt x="1122" y="160" on="1"/>
        <pt x="1360" y="160" on="1"/>
        <pt x="1343" y="214" on="0"/>
        <pt x="1271" y="328" on="0"/>
        <pt x="1169" y="428" on="0"/>
        <pt x="1040" y="502" on="0"/>
        <pt x="967" y="515" on="1"/>
        <pt x="645" y="515" on="1"/>
        <pt x="645" y="160" on="1"/>
        <pt x="889" y="160" on="1"/>
        <pt x="889" y="0" on="1"/>
        <pt x="159" y="0" on="1"/>
      </contour>
      <contour>
        <pt x="1449" y="523" on="1"/>
        <pt x="1516" y="543" on="0"/>
        <pt x="1622" y="615" on="0"/>
        <pt x="1695" y="711" on="0"/>
        <pt x="1734" y="827" on="0"/>
        <pt x="1734" y="890" on="1"/>
        <pt x="1734" y="934" on="0"/>
        <pt x="1716" y="1016" on="0"/>
        <pt x="1672" y="1091" on="0"/>
        <pt x="1598" y="1161" on="0"/>
        <pt x="1543" y="1194" on="1"/>
        <pt x="1605" y="1171" on="0"/>
        <pt x="1694" y="1106" on="0"/>
        <pt x="1751" y="1026" on="0"/>
        <pt x="1778" y="937" on="0"/>
        <pt x="1778" y="890" on="1"/>
        <pt x="1778" y="832" on="0"/>
        <pt x="1747" y="722" on="0"/>
        <pt x="1684" y="623" on="0"/>
        <pt x="1586" y="541" on="0"/>
        <pt x="1520" y="512" on="1"/>
        <pt x="1550" y="488" on="0"/>
        <pt x="1609" y="417" on="0"/>
        <pt x="1661" y="336" on="0"/>
        <pt x="1703" y="255" on="0"/>
        <pt x="1715" y="221" on="1"/>
        <pt x="1668" y="221" on="1"/>
        <pt x="1653" y="260" on="0"/>
        <pt x="1608" y="347" on="0"/>
        <pt x="1551" y="429" on="0"/>
        <pt x="1485" y="500" on="0"/>
      </contour>
      <contour>
        <pt x="1006" y="675" on="1"/>
        <pt x="1126" y="675" on="0"/>
        <pt x="1284" y="702" on="0"/>
        <pt x="1379" y="755" on="0"/>
        <pt x="1418" y="833" on="0"/>
        <pt x="1418" y="883" on="1"/>
        <pt x="1418" y="945" on="0"/>
        <pt x="1330" y="1044" on="0"/>
        <pt x="1234" y="1068" on="1"/>
        <pt x="1189" y="1079" on="0"/>
        <pt x="1075" y="1085" on="0"/>
        <pt x="1006" y="1085" on="1"/>
        <pt x="645" y="1085" on="1"/>
        <pt x="645" y="675" on="1"/>
      </contour>
      <contour>
        <pt x="717" y="1015" on="1"/>
        <pt x="1006" y="1015" on="1"/>
        <pt x="1088" y="1015" on="0"/>
        <pt x="1198" y="1008" on="0"/>
        <pt x="1274" y="990" on="0"/>
        <pt x="1324" y="961" on="0"/>
        <pt x="1345" y="939" on="1"/>
        <pt x="1325" y="948" on="0"/>
        <pt x="1270" y="962" on="0"/>
        <pt x="1190" y="972" on="0"/>
        <pt x="1081" y="977" on="0"/>
        <pt x="1006" y="977" on="1"/>
        <pt x="757" y="977" on="1"/>
        <pt x="757" y="735" on="1"/>
        <pt x="717" y="735" on="1"/>
      </contour>
      <contour>
        <pt x="198" y="1015" on="1"/>
        <pt x="357" y="1015" on="1"/>
        <pt x="357" y="977" on="1"/>
        <pt x="198" y="977" on="1"/>
      </contour>
      <contour>
        <pt x="717" y="445" on="1"/>
        <pt x="838" y="445" on="1"/>
        <pt x="934" y="445" on="0"/>
        <pt x="1083" y="414" on="0"/>
        <pt x="1117" y="376" on="1"/>
        <pt x="1089" y="384" on="0"/>
        <pt x="1034" y="396" on="0"/>
        <pt x="965" y="403" on="0"/>
        <pt x="874" y="407" on="0"/>
        <pt x="810" y="407" on="1"/>
        <pt x="757" y="407" on="1"/>
        <pt x="757" y="220" on="1"/>
        <pt x="717" y="220" on="1"/>
      </contour>
      <contour>
        <pt x="1900" y="-70" on="1"/>
        <pt x="1900" y="104" on="1"/>
        <pt x="1940" y="104" on="1"/>
        <pt x="1940" y="-108" on="1"/>
        <pt x="1165" y="-108" on="1"/>
        <pt x="1165" y="-70" on="1"/>
      </contour>
      <contour>
        <pt x="963" y="-70" on="1"/>
        <pt x="963" y="104" on="1"/>
        <pt x="1003" y="104" on="1"/>
        <pt x="1003" y="-108" on="1"/>
        <pt x="223" y="-108" on="1"/>
        <pt x="223" y="-70" on="1"/>
      </contour>
    </TTGlyph>
    <TTGlyph name="Rcommaaccent" xMin="144" yMin="-685" xMax="1940" yMax="1245">
      <contour>
        <pt x="159" y="160" on="1"/>
        <pt x="420" y="160" on="1"/>
        <pt x="420" y="1085" on="1"/>
        <pt x="144" y="1085" on="1"/>
        <pt x="144" y="1245" on="1"/>
        <pt x="963" y="1245" on="1"/>
        <pt x="1078" y="1245" on="0"/>
        <pt x="1263" y="1237" on="0"/>
        <pt x="1338" y="1223" on="1"/>
        <pt x="1426" y="1206" on="0"/>
        <pt x="1549" y="1146" on="0"/>
        <pt x="1627" y="1061" on="0"/>
        <pt x="1662" y="954" on="0"/>
        <pt x="1662" y="891" on="1"/>
        <pt x="1662" y="776" on="0"/>
        <pt x="1518" y="606" on="0"/>
        <pt x="1373" y="561" on="1"/>
        <pt x="1355" y="555" on="0"/>
        <pt x="1316" y="546" on="0"/>
        <pt x="1296" y="541" on="1"/>
        <pt x="1349" y="513" on="0"/>
        <pt x="1455" y="427" on="0"/>
        <pt x="1545" y="325" on="0"/>
        <pt x="1612" y="214" on="0"/>
        <pt x="1626" y="160" on="1"/>
        <pt x="1828" y="160" on="1"/>
        <pt x="1828" y="0" on="1"/>
        <pt x="1122" y="0" on="1"/>
        <pt x="1122" y="160" on="1"/>
        <pt x="1360" y="160" on="1"/>
        <pt x="1343" y="214" on="0"/>
        <pt x="1271" y="328" on="0"/>
        <pt x="1169" y="428" on="0"/>
        <pt x="1040" y="502" on="0"/>
        <pt x="967" y="515" on="1"/>
        <pt x="645" y="515" on="1"/>
        <pt x="645" y="160" on="1"/>
        <pt x="889" y="160" on="1"/>
        <pt x="889" y="0" on="1"/>
        <pt x="159" y="0" on="1"/>
      </contour>
      <contour>
        <pt x="1449" y="523" on="1"/>
        <pt x="1516" y="543" on="0"/>
        <pt x="1622" y="615" on="0"/>
        <pt x="1695" y="711" on="0"/>
        <pt x="1734" y="827" on="0"/>
        <pt x="1734" y="890" on="1"/>
        <pt x="1734" y="934" on="0"/>
        <pt x="1716" y="1016" on="0"/>
        <pt x="1672" y="1091" on="0"/>
        <pt x="1598" y="1161" on="0"/>
        <pt x="1543" y="1194" on="1"/>
        <pt x="1605" y="1171" on="0"/>
        <pt x="1694" y="1106" on="0"/>
        <pt x="1751" y="1026" on="0"/>
        <pt x="1778" y="937" on="0"/>
        <pt x="1778" y="890" on="1"/>
        <pt x="1778" y="832" on="0"/>
        <pt x="1747" y="722" on="0"/>
        <pt x="1684" y="623" on="0"/>
        <pt x="1586" y="541" on="0"/>
        <pt x="1520" y="512" on="1"/>
        <pt x="1550" y="488" on="0"/>
        <pt x="1609" y="417" on="0"/>
        <pt x="1661" y="336" on="0"/>
        <pt x="1703" y="255" on="0"/>
        <pt x="1715" y="221" on="1"/>
        <pt x="1668" y="221" on="1"/>
        <pt x="1653" y="260" on="0"/>
        <pt x="1608" y="347" on="0"/>
        <pt x="1551" y="429" on="0"/>
        <pt x="1485" y="500" on="0"/>
      </contour>
      <contour>
        <pt x="1006" y="675" on="1"/>
        <pt x="1126" y="675" on="0"/>
        <pt x="1284" y="702" on="0"/>
        <pt x="1379" y="755" on="0"/>
        <pt x="1418" y="833" on="0"/>
        <pt x="1418" y="883" on="1"/>
        <pt x="1418" y="945" on="0"/>
        <pt x="1330" y="1044" on="0"/>
        <pt x="1234" y="1068" on="1"/>
        <pt x="1189" y="1079" on="0"/>
        <pt x="1075" y="1085" on="0"/>
        <pt x="1006" y="1085" on="1"/>
        <pt x="645" y="1085" on="1"/>
        <pt x="645" y="675" on="1"/>
      </contour>
      <contour>
        <pt x="717" y="1015" on="1"/>
        <pt x="1006" y="1015" on="1"/>
        <pt x="1088" y="1015" on="0"/>
        <pt x="1198" y="1008" on="0"/>
        <pt x="1274" y="990" on="0"/>
        <pt x="1324" y="961" on="0"/>
        <pt x="1345" y="939" on="1"/>
        <pt x="1325" y="948" on="0"/>
        <pt x="1270" y="962" on="0"/>
        <pt x="1190" y="972" on="0"/>
        <pt x="1081" y="977" on="0"/>
        <pt x="1006" y="977" on="1"/>
        <pt x="757" y="977" on="1"/>
        <pt x="757" y="735" on="1"/>
        <pt x="717" y="735" on="1"/>
      </contour>
      <contour>
        <pt x="198" y="1015" on="1"/>
        <pt x="357" y="1015" on="1"/>
        <pt x="357" y="977" on="1"/>
        <pt x="198" y="977" on="1"/>
      </contour>
      <contour>
        <pt x="717" y="445" on="1"/>
        <pt x="838" y="445" on="1"/>
        <pt x="934" y="445" on="0"/>
        <pt x="1083" y="414" on="0"/>
        <pt x="1117" y="376" on="1"/>
        <pt x="1089" y="384" on="0"/>
        <pt x="1034" y="396" on="0"/>
        <pt x="965" y="403" on="0"/>
        <pt x="874" y="407" on="0"/>
        <pt x="810" y="407" on="1"/>
        <pt x="757" y="407" on="1"/>
        <pt x="757" y="220" on="1"/>
        <pt x="717" y="220" on="1"/>
      </contour>
      <contour>
        <pt x="1900" y="-70" on="1"/>
        <pt x="1900" y="104" on="1"/>
        <pt x="1940" y="104" on="1"/>
        <pt x="1940" y="-108" on="1"/>
        <pt x="1165" y="-108" on="1"/>
        <pt x="1165" y="-70" on="1"/>
      </contour>
      <contour>
        <pt x="963" y="-70" on="1"/>
        <pt x="963" y="104" on="1"/>
        <pt x="1003" y="104" on="1"/>
        <pt x="1003" y="-108" on="1"/>
        <pt x="223" y="-108" on="1"/>
        <pt x="223" y="-70" on="1"/>
      </contour>
      <contour>
        <pt x="1135" y="-204" on="1"/>
        <pt x="1135" y="-317" on="1"/>
        <pt x="1135" y="-450" on="0"/>
        <pt x="1010" y="-578" on="0"/>
        <pt x="896" y="-578" on="1"/>
        <pt x="886" y="-578" on="1"/>
        <pt x="886" y="-477" on="1"/>
        <pt x="928" y="-477" on="0"/>
        <pt x="970" y="-426" on="0"/>
        <pt x="974" y="-371" on="1"/>
        <pt x="890" y="-371" on="1"/>
        <pt x="890" y="-204" on="1"/>
      </contour>
      <contour>
        <pt x="934" y="-646" on="1"/>
        <pt x="1062" y="-636" on="0"/>
        <pt x="1207" y="-471" on="0"/>
        <pt x="1207" y="-317" on="1"/>
        <pt x="1207" y="-255" on="1"/>
        <pt x="1247" y="-255" on="1"/>
        <pt x="1247" y="-317" on="1"/>
        <pt x="1247" y="-406" on="0"/>
        <pt x="1201" y="-539" on="0"/>
        <pt x="1119" y="-630" on="0"/>
        <pt x="1004" y="-680" on="0"/>
        <pt x="934" y="-685" on="1"/>
      </contour>
    </TTGlyph>
    <TTGlyph name="S" xMin="180" yMin="-138" xMax="1687" yMax="1280">
      <contour>
        <pt x="180" y="360" on="1"/>
        <pt x="385" y="360" on="1"/>
        <pt x="518" y="240" on="0"/>
        <pt x="820" y="129" on="0"/>
        <pt x="985" y="129" on="1"/>
        <pt x="1057" y="129" on="0"/>
        <pt x="1177" y="157" on="0"/>
        <pt x="1265" y="206" on="0"/>
        <pt x="1314" y="272" on="0"/>
        <pt x="1314" y="310" on="1"/>
        <pt x="1314" y="354" on="0"/>
        <pt x="1258" y="428" on="0"/>
        <pt x="1135" y="488" on="0"/>
        <pt x="942" y="532" on="0"/>
        <pt x="806" y="546" on="1"/>
        <pt x="648" y="562" on="0"/>
        <pt x="426" y="635" on="0"/>
        <pt x="285" y="739" on="0"/>
        <pt x="220" y="867" on="0"/>
        <pt x="220" y="938" on="1"/>
        <pt x="220" y="1004" on="0"/>
        <pt x="296" y="1127" on="0"/>
        <pt x="446" y="1222" on="0"/>
        <pt x="670" y="1280" on="0"/>
        <pt x="818" y="1280" on="1"/>
        <pt x="904" y="1280" on="0"/>
        <pt x="1047" y="1253" on="0"/>
        <pt x="1168" y="1207" on="0"/>
        <pt x="1270" y="1144" on="0"/>
        <pt x="1315" y="1108" on="1"/>
        <pt x="1315" y="1245" on="1"/>
        <pt x="1540" y="1245" on="1"/>
        <pt x="1540" y="885" on="1"/>
        <pt x="1315" y="885" on="1"/>
        <pt x="1285" y="935" on="0"/>
        <pt x="1189" y="1021" on="0"/>
        <pt x="1064" y="1084" on="0"/>
        <pt x="916" y="1120" on="0"/>
        <pt x="835" y="1120" on="1"/>
        <pt x="750" y="1120" on="0"/>
        <pt x="621" y="1089" on="0"/>
        <pt x="534" y="1040" on="0"/>
        <pt x="490" y="980" on="0"/>
        <pt x="490" y="951" on="1"/>
        <pt x="490" y="914" on="0"/>
        <pt x="529" y="847" on="0"/>
        <pt x="628" y="790" on="0"/>
        <pt x="798" y="745" on="0"/>
        <pt x="929" y="729" on="1"/>
        <pt x="1113" y="706" on="0"/>
        <pt x="1361" y="636" on="0"/>
        <pt x="1511" y="537" on="0"/>
        <pt x="1575" y="406" on="0"/>
        <pt x="1575" y="324" on="1"/>
        <pt x="1575" y="262" on="0"/>
        <pt x="1508" y="136" on="0"/>
        <pt x="1371" y="34" on="0"/>
        <pt x="1161" y="-30" on="0"/>
        <pt x="1019" y="-30" on="1"/>
        <pt x="930" y="-30" on="0"/>
        <pt x="767" y="-7" on="0"/>
        <pt x="616" y="38" on="0"/>
        <pt x="474" y="104" on="0"/>
        <pt x="405" y="148" on="1"/>
        <pt x="405" y="0" on="1"/>
        <pt x="180" y="0" on="1"/>
      </contour>
      <contour>
        <pt x="1375" y="815" on="1"/>
        <pt x="1612" y="815" on="1"/>
        <pt x="1612" y="1194" on="1"/>
        <pt x="1654" y="1194" on="1"/>
        <pt x="1654" y="777" on="1"/>
        <pt x="1375" y="777" on="1"/>
      </contour>
      <contour>
        <pt x="573" y="957" on="1"/>
        <pt x="573" y="978" on="0"/>
        <pt x="616" y="1012" on="0"/>
        <pt x="692" y="1036" on="0"/>
        <pt x="795" y="1050" on="0"/>
        <pt x="855" y="1050" on="1"/>
        <pt x="946" y="1050" on="0"/>
        <pt x="1101" y="993" on="0"/>
        <pt x="1152" y="948" on="1"/>
        <pt x="1124" y="960" on="0"/>
        <pt x="1054" y="983" on="0"/>
        <pt x="977" y="1002" on="0"/>
        <pt x="896" y="1013" on="0"/>
        <pt x="857" y="1013" on="1"/>
        <pt x="748" y="1013" on="0"/>
        <pt x="607" y="978" on="0"/>
      </contour>
      <contour>
        <pt x="249" y="698" on="1"/>
        <pt x="283" y="654" on="0"/>
        <pt x="374" y="584" on="0"/>
        <pt x="503" y="530" on="0"/>
        <pt x="676" y="490" on="0"/>
        <pt x="792" y="477" on="1"/>
        <pt x="905" y="464" on="0"/>
        <pt x="1066" y="436" on="0"/>
        <pt x="1172" y="403" on="0"/>
        <pt x="1229" y="361" on="0"/>
        <pt x="1239" y="333" on="1"/>
        <pt x="1210" y="350" on="0"/>
        <pt x="1145" y="377" on="0"/>
        <pt x="1043" y="402" on="0"/>
        <pt x="889" y="426" on="0"/>
        <pt x="772" y="440" on="1"/>
        <pt x="649" y="455" on="0"/>
        <pt x="460" y="507" on="0"/>
        <pt x="329" y="574" on="0"/>
        <pt x="256" y="655" on="0"/>
      </contour>
      <contour>
        <pt x="477" y="-70" on="1"/>
        <pt x="477" y="29" on="1"/>
        <pt x="597" y="-34" on="0"/>
        <pt x="859" y="-100" on="0"/>
        <pt x="1018" y="-100" on="1"/>
        <pt x="1139" y="-100" on="0"/>
        <pt x="1365" y="-48" on="0"/>
        <pt x="1541" y="56" on="0"/>
        <pt x="1647" y="214" on="0"/>
        <pt x="1647" y="320" on="1"/>
        <pt x="1647" y="384" on="0"/>
        <pt x="1620" y="489" on="0"/>
        <pt x="1580" y="542" on="1"/>
        <pt x="1604" y="525" on="0"/>
        <pt x="1643" y="476" on="0"/>
        <pt x="1671" y="417" on="0"/>
        <pt x="1687" y="352" on="0"/>
        <pt x="1687" y="320" on="1"/>
        <pt x="1687" y="210" on="0"/>
        <pt x="1582" y="40" on="0"/>
        <pt x="1400" y="-77" on="0"/>
        <pt x="1156" y="-138" on="0"/>
        <pt x="1017" y="-138" on="1"/>
        <pt x="861" y="-138" on="0"/>
        <pt x="616" y="-84" on="0"/>
        <pt x="519" y="-36" on="1"/>
        <pt x="519" y="-108" on="1"/>
        <pt x="240" y="-108" on="1"/>
        <pt x="240" y="-70" on="1"/>
      </contour>
    </TTGlyph>
    <TTGlyph name="T" xMin="115" yMin="-108" xMax="1856" yMax="1245">
      <contour>
        <pt x="477" y="160" on="1"/>
        <pt x="817" y="160" on="1"/>
        <pt x="817" y="1085" on="1"/>
        <pt x="340" y="1085" on="1"/>
        <pt x="340" y="825" on="1"/>
        <pt x="115" y="825" on="1"/>
        <pt x="115" y="1245" on="1"/>
        <pt x="1744" y="1245" on="1"/>
        <pt x="1744" y="825" on="1"/>
        <pt x="1519" y="825" on="1"/>
        <pt x="1519" y="1085" on="1"/>
        <pt x="1042" y="1085" on="1"/>
        <pt x="1042" y="160" on="1"/>
        <pt x="1382" y="160" on="1"/>
        <pt x="1382" y="0" on="1"/>
        <pt x="477" y="0" on="1"/>
      </contour>
      <contour>
        <pt x="1579" y="755" on="1"/>
        <pt x="1816" y="755" on="1"/>
        <pt x="1816" y="1195" on="1"/>
        <pt x="1856" y="1195" on="1"/>
        <pt x="1856" y="717" on="1"/>
        <pt x="1579" y="717" on="1"/>
      </contour>
      <contour>
        <pt x="1114" y="1015" on="1"/>
        <pt x="1477" y="1015" on="1"/>
        <pt x="1477" y="977" on="1"/>
        <pt x="1154" y="977" on="1"/>
        <pt x="1154" y="220" on="1"/>
        <pt x="1114" y="220" on="1"/>
      </contour>
      <contour>
        <pt x="175" y="755" on="1"/>
        <pt x="412" y="755" on="1"/>
        <pt x="412" y="1015" on="1"/>
        <pt x="775" y="1015" on="1"/>
        <pt x="775" y="977" on="1"/>
        <pt x="452" y="977" on="1"/>
        <pt x="452" y="717" on="1"/>
        <pt x="175" y="717" on="1"/>
      </contour>
      <contour>
        <pt x="1454" y="-70" on="1"/>
        <pt x="1454" y="104" on="1"/>
        <pt x="1494" y="104" on="1"/>
        <pt x="1494" y="-108" on="1"/>
        <pt x="537" y="-108" on="1"/>
        <pt x="537" y="-70" on="1"/>
      </contour>
    </TTGlyph>
</ttFont>
